<svg width="40" height="41" viewBox="0 0 40 41" fill="none" xmlns="http://www.w3.org/2000/svg">
<rect y="0.5" width="40" height="40" rx="20" fill="#D9DBE9"/>
<path fill-rule="evenodd" clip-rule="evenodd" d="M16.391 12.167H23.616C26.441 12.167 28.3327 14.1495 28.3327 17.0995V23.9078C28.3327 26.8503 26.441 28.8337 23.616 28.8337H16.391C13.566 28.8337 11.666 26.8503 11.666 23.9078V17.0995C11.666 14.1495 13.566 12.167 16.391 12.167ZM22.983 23.6753C23.1913 23.6753 23.3997 23.5669 23.5163 23.3669C23.6997 23.0744 23.5997 22.6911 23.2997 22.5086L20.333 20.7419V16.8911C20.333 16.5503 20.058 16.2661 19.708 16.2661C19.3663 16.2661 19.083 16.5503 19.083 16.8911V21.1003C19.083 21.3169 19.1997 21.5253 19.3913 21.6336L22.658 23.5836C22.758 23.6503 22.8747 23.6753 22.983 23.6753Z" fill="#A0A3BD"/>
</svg>
