<svg width="40" height="40" viewBox="0 0 40 40" fill="none" xmlns="http://www.w3.org/2000/svg">
<rect width="40" height="40" rx="20" fill="#FFDFDF"/>
<path fill-rule="evenodd" clip-rule="evenodd" d="M16.3915 11.666H23.6165C26.4415 11.666 28.3332 13.6485 28.3332 16.5985V23.4068C28.3332 26.3493 26.4415 28.3327 23.6165 28.3327H16.3915C13.5665 28.3327 11.6665 26.3493 11.6665 23.4068V16.5985C11.6665 13.6485 13.5665 11.666 16.3915 11.666ZM22.9831 23.1743C23.1914 23.1743 23.3998 23.066 23.5164 22.866C23.6998 22.5735 23.5998 22.1901 23.2998 22.0076L20.3331 20.241V16.3901C20.3331 16.0493 20.0581 15.7651 19.7081 15.7651C19.3664 15.7651 19.0831 16.0493 19.0831 16.3901V20.5993C19.0831 20.816 19.1998 21.0243 19.3914 21.1326L22.6581 23.0826C22.7581 23.1493 22.8748 23.1743 22.9831 23.1743Z" fill="#FFA5A8"/>
</svg>
