<svg width="40" height="40" viewBox="0 0 40 40" fill="none" xmlns="http://www.w3.org/2000/svg">
<rect width="40" height="40" rx="20" fill="#E3F5E6"/>
<path fill-rule="evenodd" clip-rule="evenodd" d="M24.6016 16.1627V17.4405C26.0369 17.8885 27.0827 19.1878 27.0827 20.7397V24.8538C27.0827 26.775 25.4899 28.3327 23.5262 28.3327H16.4733C14.5088 28.3327 12.916 26.775 12.916 24.8538V20.7397C12.916 19.1878 13.9626 17.8885 15.3971 17.4405V16.1627C15.4056 13.6783 17.4632 11.666 19.9866 11.666C22.5439 11.666 24.6016 13.6783 24.6016 16.1627ZM20.0039 13.1154C21.7228 13.1154 23.12 14.4818 23.12 16.1629V17.2609H16.8792V16.1463C16.8877 14.4735 18.2849 13.1154 20.0039 13.1154ZM20.7407 23.7122C20.7407 24.118 20.4104 24.4409 19.9955 24.4409C19.589 24.4409 19.2588 24.118 19.2588 23.7122V21.8738C19.2588 21.4763 19.589 21.1533 19.9955 21.1533C20.4104 21.1533 20.7407 21.4763 20.7407 21.8738V23.7122Z" fill="#6BBD7D"/>
</svg>
