<svg width="48" height="48" viewBox="0 0 48 48" fill="none" xmlns="http://www.w3.org/2000/svg">
<g clip-path="url(#clip0_2319_60365)">
<rect width="48" height="48" rx="10.2857" fill="#84D7FF"/>
<mask id="mask0_2319_60365" style="mask-type:alpha" maskUnits="userSpaceOnUse" x="-32" y="-30" width="156" height="98">
<rect x="-31.7143" y="-29.5703" width="155.143" height="97.5184" rx="5.31918" fill="url(#paint0_linear_2319_60365)"/>
</mask>
<g mask="url(#mask0_2319_60365)">
<circle cx="48.7384" cy="35.3669" r="33.4665" fill="url(#paint1_linear_2319_60365)" fill-opacity="0.5"/>
</g>
<mask id="mask1_2319_60365" style="mask-type:alpha" maskUnits="userSpaceOnUse" x="-32" y="-30" width="156" height="98">
<rect x="-31.7143" y="-29.5703" width="155.143" height="97.5184" rx="5.31918" fill="url(#paint2_linear_2319_60365)"/>
</mask>
<g mask="url(#mask1_2319_60365)">
<circle cx="16.3702" cy="21.1728" r="22.8282" transform="rotate(-25.0881 16.3702 21.1728)" fill="url(#paint3_linear_2319_60365)" fill-opacity="0.5"/>
</g>
<mask id="mask2_2319_60365" style="mask-type:alpha" maskUnits="userSpaceOnUse" x="-32" y="-30" width="156" height="98">
<rect x="-31.7143" y="-29.5703" width="155.143" height="97.5184" rx="5.31918" fill="url(#paint4_linear_2319_60365)"/>
</mask>
<g mask="url(#mask2_2319_60365)">
<circle cx="23.7998" cy="31.2616" r="19.2153" transform="rotate(-175.524 23.7998 31.2616)" fill="url(#paint5_linear_2319_60365)" fill-opacity="0.5"/>
</g>
<mask id="mask3_2319_60365" style="mask-type:alpha" maskUnits="userSpaceOnUse" x="-32" y="-30" width="156" height="98">
<rect x="-31.7143" y="-29.5703" width="155.143" height="97.5184" rx="5.31918" fill="url(#paint6_linear_2319_60365)"/>
</mask>
<g mask="url(#mask3_2319_60365)">
<circle cx="1.53069" cy="35.1462" r="32.8016" transform="rotate(-140.12 1.53069 35.1462)" fill="url(#paint7_linear_2319_60365)" fill-opacity="0.5"/>
</g>
<g clip-path="url(#clip1_2319_60365)">
<path d="M24 34.9997C17.688 34.9997 12.5714 29.8832 12.5714 23.5712C12.5714 17.2592 17.688 12.1426 24 12.1426C30.312 12.1426 35.4286 17.2592 35.4286 23.5712C35.4286 29.8832 30.312 34.9997 24 34.9997ZM24 32.714C26.4248 32.714 28.7503 31.7507 30.465 30.0361C32.1796 28.3215 33.1428 25.996 33.1428 23.5712C33.1428 21.1463 32.1796 18.8208 30.465 17.1062C28.7503 15.3916 26.4248 14.4283 24 14.4283C21.5751 14.4283 19.2496 15.3916 17.535 17.1062C15.8204 18.8208 14.8571 21.1463 14.8571 23.5712C14.8571 25.996 15.8204 28.3215 17.535 30.0361C19.2496 31.7507 21.5751 32.714 24 32.714Z" fill="white"/>
</g>
</g>
<defs>
<linearGradient id="paint0_linear_2319_60365" x1="-31.7143" y1="67.9481" x2="123.429" y2="-29.5703" gradientUnits="userSpaceOnUse">
<stop stop-color="#0968E5"/>
<stop offset="0.492708" stop-color="#0941AB"/>
<stop offset="1" stop-color="#091970"/>
</linearGradient>
<linearGradient id="paint1_linear_2319_60365" x1="71.0494" y1="8.38615" x2="37.5829" y2="35.6264" gradientUnits="userSpaceOnUse">
<stop stop-color="white"/>
<stop offset="1" stop-color="white" stop-opacity="0"/>
</linearGradient>
<linearGradient id="paint2_linear_2319_60365" x1="-31.7143" y1="67.9481" x2="123.429" y2="-29.5703" gradientUnits="userSpaceOnUse">
<stop stop-color="#0968E5"/>
<stop offset="0.492708" stop-color="#0941AB"/>
<stop offset="1" stop-color="#091970"/>
</linearGradient>
<linearGradient id="paint3_linear_2319_60365" x1="6.17508" y1="-1.65536" x2="16.5918" y2="24.2757" gradientUnits="userSpaceOnUse">
<stop stop-color="white"/>
<stop offset="1" stop-color="white" stop-opacity="0"/>
</linearGradient>
<linearGradient id="paint4_linear_2319_60365" x1="-31.7143" y1="67.9481" x2="123.429" y2="-29.5703" gradientUnits="userSpaceOnUse">
<stop stop-color="#0968E5"/>
<stop offset="0.492708" stop-color="#0941AB"/>
<stop offset="1" stop-color="#091970"/>
</linearGradient>
<linearGradient id="paint5_linear_2319_60365" x1="23.7998" y1="12.0463" x2="22.7173" y2="35.0505" gradientUnits="userSpaceOnUse">
<stop stop-color="white"/>
<stop offset="1" stop-color="white" stop-opacity="0"/>
</linearGradient>
<linearGradient id="paint6_linear_2319_60365" x1="-31.7143" y1="67.9481" x2="123.429" y2="-29.5703" gradientUnits="userSpaceOnUse">
<stop stop-color="#0968E5"/>
<stop offset="0.492708" stop-color="#0941AB"/>
<stop offset="1" stop-color="#091970"/>
</linearGradient>
<linearGradient id="paint7_linear_2319_60365" x1="1.53069" y1="2.34455" x2="-1.47702" y2="35.3487" gradientUnits="userSpaceOnUse">
<stop stop-color="white"/>
<stop offset="1" stop-color="white" stop-opacity="0"/>
</linearGradient>
<clipPath id="clip0_2319_60365">
<rect width="48" height="48" rx="10.2857" fill="white"/>
</clipPath>
<clipPath id="clip1_2319_60365">
<rect width="27.4286" height="27.4286" fill="white" transform="translate(10.2857 9.85742)"/>
</clipPath>
</defs>
</svg>
