<svg width="350" height="351" viewBox="0 0 350 351" fill="none" xmlns="http://www.w3.org/2000/svg">
<path d="M202.759 222.155C202.732 222.157 202.705 222.157 202.678 222.155C202.489 222.134 202.317 222.038 202.198 221.89C202.079 221.741 202.024 221.551 202.044 221.362L203.237 210.596C203.248 210.501 203.277 210.41 203.323 210.327C203.369 210.243 203.431 210.17 203.504 210.112C203.579 210.052 203.664 210.008 203.755 209.981C203.847 209.955 203.942 209.947 204.036 209.958C204.131 209.968 204.223 209.996 204.306 210.043C204.389 210.088 204.462 210.15 204.522 210.225C204.581 210.298 204.625 210.383 204.651 210.474C204.678 210.567 204.686 210.662 204.676 210.757L203.482 221.52C203.461 221.697 203.376 221.859 203.242 221.977C203.109 222.093 202.936 222.157 202.759 222.155Z" fill="#14142B"/>
<path d="M198.545 221.434L203.749 212.516L202.758 221.434H198.545Z" fill="#14142B"/>
<path d="M202.758 222.155H198.546C198.42 222.154 198.296 222.12 198.187 222.056C198.079 221.993 197.988 221.902 197.926 221.792C197.863 221.683 197.83 221.559 197.832 221.433C197.832 221.307 197.865 221.183 197.93 221.075L203.131 212.157C203.213 212.016 203.343 211.906 203.497 211.848C203.651 211.789 203.82 211.786 203.976 211.837C204.133 211.89 204.267 211.994 204.356 212.131C204.444 212.27 204.484 212.436 204.465 212.599L203.477 221.516C203.457 221.692 203.372 221.855 203.24 221.973C203.107 222.091 202.936 222.155 202.758 222.155ZM199.796 220.717H202.113L202.66 215.812L199.796 220.717Z" fill="#14142B"/>
<path d="M267.214 187.626C267.025 187.625 266.845 187.551 266.71 187.418C266.575 187.285 266.498 187.104 266.496 186.915C266.461 184.004 266.415 181.444 266.374 179.187C266.215 170.303 266.118 164.939 266.828 153.861L266.843 153.623C266.96 151.743 267.095 149.611 268.388 148.011C269.275 146.91 270.5 146.286 271.675 145.681C272.238 145.406 272.786 145.101 273.318 144.767C275.253 143.5 276.46 141.425 276.471 139.357C276.484 137.17 275.033 135.115 273.087 134.575C272.792 134.492 272.471 134.438 272.141 134.381C271.437 134.262 270.703 134.137 270.031 133.725C268.313 132.682 268.016 130.515 267.951 128.535C267.889 126.661 267.951 123.979 268.01 121.384C268.07 118.79 268.131 116.148 268.07 114.316C268.063 114.125 268.133 113.94 268.263 113.8C268.394 113.661 268.574 113.579 268.765 113.573C268.955 113.567 269.141 113.637 269.281 113.767C269.419 113.897 269.501 114.078 269.507 114.268C269.569 116.142 269.507 118.825 269.447 121.417C269.388 124.009 269.326 126.655 269.386 128.488C269.442 130.163 269.649 131.811 270.777 132.498C271.218 132.764 271.783 132.861 272.383 132.963C272.75 133.021 273.113 133.095 273.472 133.19C276.015 133.897 277.923 136.551 277.909 139.363C277.896 141.909 276.44 144.441 274.107 145.968C273.533 146.335 272.94 146.668 272.331 146.972C271.235 147.53 270.198 148.058 269.503 148.921C268.497 150.167 268.383 151.973 268.27 153.722L268.256 153.96C267.552 164.98 267.64 170.321 267.806 179.17C267.846 181.43 267.892 183.99 267.927 186.907C267.93 187.097 267.856 187.281 267.723 187.418C267.591 187.553 267.409 187.631 267.219 187.635L267.214 187.626Z" fill="#14142B"/>
<path d="M242.21 159.269C239.4 159.274 236.606 158.847 233.925 158.005C231.292 157.173 229.226 156.069 227.609 154.632C225.378 152.649 223.694 149.702 222.603 145.856C220.281 137.678 220.845 122.553 221.198 119.427C221.205 119.33 221.231 119.236 221.276 119.15C221.321 119.064 221.381 118.988 221.456 118.926C221.531 118.864 221.617 118.819 221.709 118.791C221.802 118.763 221.899 118.755 221.996 118.765C222.092 118.777 222.185 118.807 222.269 118.855C222.353 118.903 222.427 118.967 222.486 119.043C222.544 119.12 222.588 119.208 222.611 119.302C222.635 119.395 222.64 119.493 222.625 119.589C222.278 122.658 221.722 137.487 223.988 145.471C225 149.044 226.54 151.765 228.564 153.566C230.026 154.865 231.922 155.872 234.359 156.647C239.293 158.189 244.572 158.244 249.538 156.803C249.627 156.776 249.723 156.767 249.818 156.776C249.911 156.787 250.002 156.815 250.086 156.859C250.169 156.905 250.242 156.965 250.302 157.039C250.361 157.112 250.406 157.196 250.432 157.287C250.46 157.378 250.469 157.473 250.459 157.567C250.449 157.662 250.421 157.753 250.376 157.836C250.331 157.918 250.27 157.992 250.197 158.051C250.123 158.112 250.039 158.156 249.948 158.183C247.434 158.911 244.828 159.278 242.21 159.269Z" fill="#14142B"/>
<path d="M231.165 187.627H231.121C231.027 187.621 230.934 187.596 230.849 187.556C230.764 187.515 230.688 187.456 230.626 187.386C230.563 187.315 230.516 187.234 230.485 187.144C230.454 187.055 230.441 186.961 230.447 186.866C230.765 181.636 230.673 168.995 229.88 155.886C229.868 155.696 229.932 155.508 230.059 155.366C230.185 155.223 230.364 155.135 230.555 155.123C230.745 155.112 230.933 155.176 231.076 155.303C231.219 155.429 231.307 155.608 231.318 155.799C232.115 168.972 232.205 181.681 231.885 186.952C231.872 187.136 231.792 187.306 231.659 187.431C231.525 187.557 231.349 187.626 231.165 187.627Z" fill="#14142B"/>
<path d="M268.986 143.068C268.796 143.068 268.612 142.992 268.478 142.858C268.343 142.723 268.267 142.541 268.267 142.349C268.267 142.159 268.343 141.976 268.478 141.841C268.612 141.706 268.796 141.631 268.986 141.631C270.046 141.631 271.698 140.416 271.998 139.143C272.046 138.961 272.163 138.806 272.322 138.709C272.483 138.612 272.676 138.583 272.858 138.626C273.041 138.67 273.2 138.782 273.3 138.94C273.4 139.099 273.435 139.29 273.397 139.473C272.963 141.307 270.824 143.056 268.996 143.068H268.986Z" fill="#14142B"/>
<path d="M237.616 139.589C237.58 139.591 237.543 139.591 237.505 139.589C235.755 139.319 234.488 138.592 233.843 137.486C233.614 137.07 233.488 136.604 233.474 136.128C233.46 135.652 233.561 135.18 233.765 134.751C233.915 134.41 234.149 134.112 234.443 133.885C234.738 133.656 235.084 133.506 235.451 133.444C235.749 133.408 236.05 133.408 236.349 133.444C236.574 133.487 236.806 133.477 237.027 133.414C237.302 133.263 237.349 132.542 237.365 132.306L237.867 124.753C237.873 124.659 237.898 124.567 237.939 124.482C237.981 124.396 238.04 124.321 238.111 124.259C238.182 124.196 238.265 124.148 238.355 124.118C238.444 124.087 238.539 124.074 238.633 124.081C238.728 124.087 238.82 124.112 238.905 124.154C238.989 124.196 239.065 124.254 239.128 124.325C239.19 124.396 239.238 124.479 239.268 124.569C239.298 124.658 239.311 124.753 239.305 124.848L238.807 132.386C238.773 132.91 238.693 134.135 237.723 134.662C237.208 134.944 236.67 134.899 236.236 134.867C236.048 134.845 235.859 134.842 235.671 134.858C235.537 134.886 235.411 134.948 235.306 135.035C235.201 135.124 235.119 135.237 235.069 135.365C234.967 135.582 234.915 135.822 234.919 136.062C234.923 136.303 234.983 136.539 235.094 136.754C235.623 137.661 236.822 138.018 237.732 138.158C237.922 138.172 238.099 138.262 238.224 138.407C238.349 138.552 238.411 138.741 238.397 138.931C238.383 139.122 238.294 139.299 238.148 139.424C238.003 139.549 237.816 139.611 237.624 139.597L237.616 139.589Z" fill="#14142B"/>
<path d="M249.325 135.899C249.256 135.9 249.186 135.891 249.12 135.871L245.334 134.778C245.151 134.725 244.995 134.601 244.903 134.435C244.811 134.268 244.789 134.071 244.841 133.887C244.895 133.704 245.019 133.549 245.186 133.457C245.352 133.365 245.548 133.343 245.733 133.395L249.52 134.489C249.687 134.538 249.83 134.646 249.923 134.792C250.018 134.937 250.055 135.112 250.031 135.284C250.005 135.455 249.919 135.612 249.788 135.725C249.656 135.838 249.488 135.9 249.314 135.899H249.325Z" fill="#FF7378"/>
<path d="M223.058 147.129C223.007 147.13 222.956 147.124 222.907 147.113C220.442 146.583 215.938 143.148 216.77 137.618C217.181 134.839 219.824 133.511 221.569 133.625C221.76 133.637 221.937 133.724 222.064 133.868C222.19 134.011 222.255 134.199 222.243 134.389C222.231 134.58 222.144 134.758 222 134.885C221.857 135.011 221.669 135.075 221.479 135.063C220.466 134.999 218.487 135.866 218.192 137.834C217.485 142.522 221.439 145.328 223.208 145.708C223.382 145.745 223.534 145.846 223.638 145.989C223.742 146.133 223.789 146.31 223.77 146.486C223.751 146.662 223.669 146.825 223.538 146.944C223.406 147.063 223.236 147.129 223.058 147.129Z" fill="#14142B"/>
<path d="M247.403 129.766L247.43 129.767C247.612 129.78 247.77 129.642 247.783 129.46L248.012 126.091C248.024 125.909 247.886 125.75 247.704 125.738L247.678 125.736C247.496 125.724 247.338 125.862 247.325 126.044L247.095 129.413C247.084 129.595 247.221 129.753 247.403 129.766Z" fill="#14142B"/>
<path d="M247.443 131.018H247.337H247.31C247.105 131.004 246.905 130.951 246.721 130.859C246.536 130.768 246.373 130.642 246.238 130.486C246.103 130.332 246 130.152 245.933 129.958C245.868 129.763 245.841 129.557 245.855 129.352L246.086 125.983C246.114 125.57 246.307 125.185 246.618 124.913C246.931 124.64 247.338 124.504 247.752 124.531H247.78C248.193 124.56 248.577 124.751 248.849 125.064C249.121 125.375 249.258 125.782 249.23 126.195L249.001 129.566C248.973 129.96 248.796 130.329 248.507 130.598C248.219 130.868 247.838 131.017 247.443 131.018Z" fill="#14142B"/>
<path d="M226.951 134.377C226.76 134.39 226.573 134.328 226.428 134.202C226.283 134.077 226.195 133.9 226.181 133.709C226.167 133.519 226.23 133.331 226.356 133.186C226.48 133.041 226.658 132.953 226.848 132.939L230.752 132.369C230.941 132.343 231.132 132.392 231.285 132.506C231.438 132.62 231.539 132.791 231.566 132.978C231.593 133.167 231.544 133.36 231.429 133.513C231.316 133.666 231.146 133.766 230.957 133.794L227.053 134.362C227.021 134.37 226.986 134.375 226.951 134.377Z" fill="#FF7378"/>
<path d="M229.851 124.558L229.825 124.556C229.642 124.544 229.485 124.681 229.472 124.863L229.243 128.233C229.23 128.415 229.368 128.572 229.55 128.585L229.577 128.587C229.759 128.599 229.916 128.461 229.929 128.279L230.159 124.91C230.172 124.728 230.034 124.57 229.851 124.558Z" fill="#14142B"/>
<path d="M229.604 129.804H229.497H229.469C229.264 129.79 229.064 129.737 228.881 129.644C228.697 129.553 228.533 129.426 228.398 129.272C228.264 129.117 228.161 128.937 228.096 128.743C228.03 128.549 228.004 128.344 228.019 128.138L228.246 124.77C228.275 124.356 228.468 123.972 228.779 123.699C229.092 123.427 229.499 123.288 229.912 123.315H229.941C230.354 123.344 230.738 123.537 231.01 123.848C231.282 124.161 231.418 124.568 231.392 124.981L231.163 128.352C231.134 128.746 230.958 129.115 230.668 129.384C230.379 129.654 230 129.803 229.604 129.804Z" fill="#14142B"/>
<path d="M230.752 156.539L230.892 161.688C230.892 161.688 239.963 161.071 247.751 157.99C247.751 157.981 239.053 160.957 230.752 156.539Z" fill="#14142B"/>
<path d="M230.893 162.407C230.714 162.407 230.541 162.34 230.41 162.22C230.338 162.155 230.28 162.075 230.239 161.987C230.198 161.899 230.176 161.804 230.174 161.707L230.034 156.556C230.03 156.43 230.061 156.306 230.12 156.195C230.18 156.085 230.268 155.991 230.375 155.925C230.482 155.859 230.604 155.822 230.73 155.819C230.856 155.815 230.981 155.844 231.092 155.903C239.025 160.125 247.435 157.328 247.526 157.3C247.704 157.234 247.903 157.242 248.075 157.322C248.249 157.402 248.383 157.548 248.449 157.726C248.515 157.905 248.507 158.103 248.426 158.276C248.347 158.449 248.201 158.584 248.023 158.65C240.217 161.731 231.324 162.378 230.949 162.404L230.893 162.407ZM231.509 157.711L231.595 160.905C234.264 160.637 236.916 160.219 239.539 159.656C236.762 159.519 234.037 158.86 231.505 157.711H231.509Z" fill="#14142B"/>
<path d="M151.927 60.7872C151.804 60.7876 151.684 60.7556 151.578 60.6948C151.411 60.6019 151.288 60.4467 151.237 60.2634C151.185 60.08 151.208 59.8835 151.3 59.7171L163.121 38.5589C163.214 38.3924 163.369 38.2698 163.552 38.218C163.737 38.1662 163.933 38.1894 164.1 38.2826C164.265 38.3757 164.388 38.5312 164.44 38.7147C164.492 38.8982 164.468 39.0949 164.376 39.2613L152.555 60.4196C152.494 60.5313 152.401 60.6243 152.292 60.6889C152.181 60.7535 152.055 60.7875 151.927 60.7872Z" fill="#14142B"/>
<path d="M157.519 73.1536C157.372 73.1539 157.228 73.1089 157.108 73.0251C156.987 72.9411 156.894 72.8222 156.843 72.6843C156.793 72.5462 156.785 72.3961 156.822 72.2538C156.859 72.1114 156.939 71.9838 157.051 71.8883L200.56 34.7463C200.633 34.6849 200.716 34.6383 200.805 34.6091C200.895 34.5798 200.99 34.5686 201.084 34.5759C201.178 34.5833 201.27 34.6091 201.354 34.6519C201.438 34.6947 201.512 34.7536 201.574 34.8254C201.636 34.8971 201.683 34.9803 201.712 35.07C201.741 35.1598 201.752 35.2545 201.745 35.3486C201.738 35.4428 201.712 35.5346 201.669 35.6187C201.626 35.7028 201.567 35.7777 201.495 35.8391L157.985 72.9832C157.855 73.0935 157.69 73.154 157.519 73.1536Z" fill="#14142B"/>
<path d="M170.563 85.4585C170.392 85.4588 170.226 85.3976 170.095 85.2864C169.966 85.1753 169.88 85.0211 169.853 84.8519C169.826 84.6827 169.86 84.5096 169.95 84.3635C170.039 84.2176 170.178 84.1083 170.342 84.0556L186.832 78.6735C187.013 78.6145 187.212 78.6298 187.381 78.7164C187.551 78.8028 187.681 78.9533 187.739 79.1347C187.798 79.3161 187.783 79.5137 187.697 79.6838C187.609 79.8538 187.459 79.9826 187.278 80.0417L170.787 85.4236C170.715 85.4473 170.639 85.4591 170.563 85.4585Z" fill="#14142B"/>
<path d="M174.243 101.335C172.598 101.334 170.98 100.927 169.529 100.15C169.363 100.06 169.238 99.9059 169.183 99.723C169.128 99.5403 169.149 99.3433 169.239 99.1755C169.33 99.0078 169.484 98.8828 169.666 98.8283C169.849 98.7738 170.046 98.7941 170.214 98.8849C171.631 99.6445 173.234 99.9878 174.838 99.8749C175.029 99.8608 175.217 99.923 175.362 100.048C175.506 100.173 175.596 100.35 175.61 100.541C175.624 100.731 175.562 100.92 175.437 101.065C175.313 101.209 175.135 101.299 174.945 101.313C174.711 101.328 174.476 101.335 174.243 101.335Z" fill="#14142B"/>
<path d="M267.441 156.538C272.69 157.49 282.478 155.839 288.381 153.475C283.817 143.097 290.269 124.624 286.251 105.877C283.556 93.2992 273.964 91.0149 271.062 93.9729C269.395 88.6977 263.773 85.2713 258.162 84.8174C238.621 83.2356 217.391 97.9642 201.795 131.692C204.936 137.407 216.379 148.22 226.34 152.181C224.018 149.685 223.651 147.602 223.054 146.41C218.901 145.866 217.413 141.556 217.407 139.484C217.386 133.397 221.515 134.348 221.515 134.348C221.639 132.272 221.293 124.077 221.901 119.513L260.664 105.856C260.383 111.559 261.505 127.775 270.411 133.117C276.059 134.65 278.217 135.709 277.011 140.835C276.492 143.067 276.019 145.149 270.83 147.053C269.855 147.409 268.939 148.467 267.911 150.628C267.335 151.851 267.749 154.522 267.441 156.538Z" fill="#14142B"/>
<path d="M271.045 157.536C269.794 157.549 268.545 157.452 267.311 157.244C267.127 157.21 266.963 157.105 266.854 156.951C266.746 156.799 266.701 156.608 266.73 156.423C266.834 155.554 266.876 154.679 266.855 153.804C266.855 152.448 266.855 151.166 267.267 150.312C268.351 148.03 269.376 146.819 270.586 146.37C275.395 144.607 275.82 142.789 276.311 140.686C277.338 136.249 275.997 135.369 270.227 133.804C270.163 133.786 270.102 133.76 270.046 133.725C266.015 131.31 263.107 126.62 261.4 119.788C260.378 115.561 259.88 111.224 259.917 106.876L222.57 120.037C222.216 123.118 222.243 127.56 222.263 130.848C222.263 132.444 222.282 133.706 222.241 134.386C222.235 134.49 222.206 134.591 222.157 134.683C222.108 134.775 222.039 134.855 221.955 134.918C221.871 134.981 221.775 135.024 221.673 135.046C221.571 135.067 221.465 135.066 221.363 135.043C221.019 134.983 220.666 134.995 220.326 135.079C219.987 135.162 219.669 135.314 219.392 135.528C218.569 136.203 218.124 137.581 218.131 139.482C218.131 141.224 219.41 145.207 223.151 145.698C223.267 145.713 223.379 145.757 223.475 145.825C223.571 145.894 223.649 145.985 223.701 146.09C223.859 146.408 223.995 146.759 224.151 147.167C224.593 148.322 225.201 149.901 226.867 151.686C226.979 151.805 227.046 151.959 227.059 152.123C227.071 152.286 227.028 152.448 226.935 152.583C226.843 152.719 226.707 152.818 226.55 152.866C226.394 152.912 226.226 152.905 226.073 152.845C215.712 148.722 204.219 137.588 201.165 132.031C201.11 131.933 201.08 131.823 201.075 131.711C201.072 131.597 201.095 131.487 201.142 131.384C208.693 115.053 217.748 102.626 228.052 94.4457C237.619 86.8451 248.05 83.2729 258.22 84.0945C264.159 84.5752 269.422 88.1003 271.399 92.8064C272.763 92.0114 274.686 91.8656 276.711 92.4489C278.56 92.9851 284.771 95.5303 286.956 105.721C288.986 115.193 288.371 124.576 287.83 132.855C287.293 141.072 286.829 148.15 289.041 153.18C289.079 153.267 289.1 153.363 289.101 153.458C289.101 153.555 289.084 153.651 289.048 153.74C289.011 153.829 288.957 153.91 288.889 153.979C288.821 154.046 288.74 154.1 288.651 154.136C283.998 156.01 276.646 157.536 271.045 157.536ZM268.234 155.934C273.405 156.614 282.09 155.057 287.439 153.058C285.411 147.783 285.87 140.794 286.396 132.756C286.929 124.571 287.538 115.296 285.549 106.019C283.532 96.6046 277.969 94.3101 276.305 93.8252C274.362 93.2625 272.503 93.5152 271.58 94.4662C271.494 94.555 271.385 94.6199 271.266 94.6544C271.146 94.6888 271.02 94.6919 270.9 94.6632C270.779 94.6343 270.668 94.5748 270.577 94.4903C270.486 94.4058 270.418 94.299 270.381 94.1807C268.918 89.5505 263.871 85.9906 258.109 85.5243C248.306 84.7313 238.224 88.1948 228.94 95.5673C218.884 103.55 210.02 115.698 202.596 131.649C205.526 136.655 214.921 145.823 224.063 150.367C223.56 149.509 223.138 148.606 222.802 147.669C222.716 147.444 222.635 147.237 222.557 147.053C218.148 146.232 216.694 141.641 216.686 139.482C216.686 137.073 217.288 135.358 218.502 134.387C219.164 133.867 219.98 133.578 220.823 133.566C220.834 132.885 220.823 131.947 220.823 130.848C220.802 127.355 220.772 122.58 221.195 119.405C221.213 119.273 221.267 119.149 221.351 119.046C221.435 118.944 221.544 118.866 221.669 118.821L260.433 105.164C260.544 105.126 260.663 105.115 260.779 105.133C260.896 105.151 261.007 105.197 261.101 105.268C261.196 105.338 261.27 105.431 261.322 105.538C261.372 105.644 261.395 105.762 261.389 105.879C261.111 111.526 262.246 127.263 270.703 132.436C275.96 133.874 279.098 135.075 277.718 140.986C277.176 143.305 276.621 145.684 271.083 147.713C270.276 148.009 269.452 149.059 268.567 150.922C268.296 151.49 268.294 152.666 268.291 153.798C268.291 154.519 268.289 155.241 268.234 155.934Z" fill="#14142B"/>
<path d="M121.349 258.588C121.279 258.588 121.21 258.578 121.143 258.558C113.613 256.251 105.973 250.458 99.6297 242.241C93.3643 234.127 88.654 224.047 86.3677 213.858C86.3291 213.674 86.3648 213.481 86.4671 213.321C86.5694 213.163 86.7301 213.051 86.9144 213.01C87.0986 212.968 87.2918 213.002 87.4521 213.101C87.6123 213.201 87.7269 213.36 87.7708 213.544C92.4195 234.256 106.63 252.609 121.564 257.183C121.728 257.235 121.868 257.342 121.959 257.487C122.05 257.631 122.086 257.804 122.061 257.973C122.037 258.142 121.952 258.298 121.823 258.411C121.695 258.523 121.531 258.586 121.359 258.588H121.349Z" fill="#14142B"/>
<path d="M273.092 317.043C265.438 317.043 258.097 316.211 252.665 315.382C252.539 315.363 252.42 315.309 252.32 315.228C252.221 315.147 252.145 315.041 252.101 314.92C252.057 314.799 252.045 314.67 252.067 314.544C252.091 314.418 252.147 314.299 252.229 314.202C262.272 302.553 264.099 284.358 256.574 270.942C256.523 270.86 256.489 270.768 256.475 270.672C256.46 270.575 256.464 270.477 256.489 270.384C256.513 270.29 256.557 270.202 256.616 270.125C256.674 270.048 256.749 269.984 256.834 269.936C256.918 269.889 257.012 269.859 257.108 269.849C257.205 269.838 257.302 269.847 257.395 269.875C257.488 269.905 257.574 269.951 257.649 270.013C257.723 270.076 257.784 270.153 257.827 270.239C261.621 277.003 263.259 285.219 262.439 293.38C261.667 301.087 258.742 308.41 254.144 314.148C266.862 315.984 288.628 317.531 300.832 309.355C301.329 309.023 301.827 308.681 302.325 308.329C305.597 306.069 308.981 303.746 313.007 303.526C313.185 303.516 313.369 303.509 313.552 303.503C314.525 303.468 315.445 303.436 315.982 302.904C316.816 302.082 316.474 300.544 314.903 298.084C313.118 295.291 313.776 291.482 314.47 287.452C314.694 286.156 314.926 284.815 315.086 283.467C318.118 257.802 319.714 238.727 314.513 208.611C310.145 183.331 292.682 183.22 279.933 183.144C277.468 183.128 275.117 183.113 273.096 182.913C270.364 187.638 262.932 189.793 258.664 190.662C251.716 192.077 243.923 192.063 237.815 190.627C230.786 188.983 226.76 185.65 226.384 181.227C225.918 181.203 225.377 181.166 224.751 181.122C219.34 180.75 208.08 179.98 195.766 184.152C188.301 186.683 182.031 192.889 175.971 198.891C168.18 206.607 160.14 214.565 149.52 214.565C148.668 214.565 147.817 214.515 146.973 214.414C141.377 213.758 136.182 209.553 132.799 206.14C129.117 202.377 125.987 198.11 123.503 193.468C116.008 205.629 104.099 212.486 87.144 214.421C86.9533 214.442 86.762 214.388 86.6119 214.267C86.4618 214.148 86.3654 213.973 86.3439 213.783C86.3224 213.593 86.3775 213.401 86.4971 213.251C86.6167 213.101 86.7911 213.005 86.9818 212.983C103.972 211.049 115.741 204.058 122.93 191.619C122.997 191.507 123.092 191.415 123.207 191.353C123.32 191.29 123.449 191.258 123.579 191.262C123.709 191.268 123.835 191.31 123.944 191.382C124.052 191.454 124.14 191.555 124.196 191.673C128.16 199.873 137.891 211.911 147.121 212.997C158.341 214.316 166.404 206.332 174.94 197.88C181.126 191.753 187.523 185.429 195.3 182.791C207.888 178.525 219.334 179.311 224.845 179.689C225.783 179.753 226.523 179.804 227.088 179.818C227.276 179.824 227.453 179.901 227.584 180.035C227.715 180.17 227.788 180.35 227.789 180.537C227.789 185.978 234.274 188.318 238.142 189.226C244.056 190.619 251.619 190.627 258.372 189.253C265.426 187.816 270.41 185.111 272.044 181.827C272.111 181.694 272.216 181.586 272.346 181.516C272.476 181.444 272.625 181.416 272.772 181.433C274.825 181.675 277.307 181.689 279.937 181.706C286.321 181.745 294.264 181.792 301.061 185.138C309.045 189.069 313.909 196.668 315.931 208.373C321.164 238.681 319.56 257.853 316.514 283.643C316.349 285.028 316.115 286.39 315.898 287.704C315.221 291.608 314.64 294.995 316.123 297.318C316.925 298.571 319.053 301.903 317.003 303.935C316.068 304.861 314.764 304.907 313.614 304.948C313.439 304.948 313.266 304.959 313.098 304.97C309.472 305.175 306.257 307.381 303.149 309.522C302.643 309.87 302.143 310.214 301.641 310.549C294.175 315.547 283.357 317.04 273.092 317.043Z" fill="#14142B"/>
<path d="M272.18 273.849C266.973 273.849 260.217 272.513 256.945 271.263C256.766 271.195 256.623 271.058 256.545 270.885C256.468 270.711 256.462 270.512 256.529 270.334C256.598 270.157 256.734 270.012 256.907 269.935C257.082 269.857 257.28 269.851 257.458 269.92C261.772 271.562 272.965 273.482 276.918 271.748C280.599 270.133 283.491 266.259 284.662 261.384C285.738 256.889 285.397 252.163 285.073 247.594C285.066 247.5 285.078 247.405 285.107 247.316C285.137 247.226 285.184 247.142 285.246 247.071C285.309 246.999 285.383 246.94 285.469 246.898C285.553 246.855 285.645 246.83 285.739 246.823C285.834 246.816 285.928 246.828 286.018 246.857C286.108 246.887 286.192 246.934 286.263 246.996C286.334 247.059 286.394 247.134 286.436 247.219C286.479 247.303 286.503 247.395 286.51 247.489C286.85 252.169 287.199 257.007 286.071 261.719C284.798 267.029 281.598 271.271 277.505 273.064C276.236 273.62 274.335 273.849 272.18 273.849Z" fill="#14142B"/>
<path d="M305.282 302.148C305.09 302.153 304.905 302.083 304.766 301.954C304.627 301.823 304.545 301.642 304.538 301.452C304.533 301.261 304.603 301.077 304.732 300.937C304.863 300.798 305.044 300.716 305.234 300.709C306.511 300.625 307.721 299.804 308.469 298.516C309.217 297.228 309.33 295.767 308.769 294.612C308.723 294.527 308.695 294.434 308.687 294.337C308.679 294.241 308.689 294.144 308.72 294.052C308.749 293.96 308.797 293.875 308.861 293.801C308.924 293.729 309.002 293.669 309.088 293.627C309.176 293.584 309.27 293.561 309.367 293.555C309.463 293.55 309.56 293.566 309.651 293.598C309.742 293.632 309.825 293.683 309.896 293.75C309.966 293.815 310.023 293.896 310.061 293.984C310.834 295.568 310.702 297.53 309.714 299.234C308.726 300.94 307.086 302.026 305.328 302.143L305.282 302.148Z" fill="#14142B"/>
<path d="M234.984 219.526C235.153 214.152 238.272 208.981 242.661 205.838C248.952 201.338 257.984 201.217 264.532 205.331C271.081 209.446 274.875 217.463 274.164 225.164C273.454 232.865 268.388 239.955 261.445 243.371C257.336 245.391 252.295 246.129 248.22 244.043C244.029 241.896 241.646 237.25 237.635 234.78C233.274 232.095 227.979 232.547 223.255 233.901C222.665 234.072 219.818 234.996 219.818 234.996C219.233 234.709 234.699 228.582 234.984 219.526Z" fill="#FF7378"/>
<path d="M253.701 245.999C251.688 246.027 249.697 245.576 247.893 244.684C245.555 243.486 243.764 241.562 242.033 239.7C240.502 238.057 239.055 236.5 237.259 235.387C233.766 233.232 229.11 232.962 223.442 234.587C222.873 234.752 220.059 235.664 220.029 235.674C219.849 235.732 219.654 235.717 219.483 235.633C219.362 235.572 219.259 235.48 219.187 235.364C219.115 235.25 219.075 235.117 219.073 234.982C219.073 234.452 219.306 234.32 220.882 233.459C224.485 231.493 234.052 226.27 234.265 219.491C234.435 214.101 237.492 208.641 242.244 205.243C248.719 200.611 258.041 200.394 264.913 204.713C271.619 208.927 275.622 217.168 274.879 225.22C274.153 233.071 269.006 240.444 261.762 244.006C259.084 245.332 256.309 245.999 253.701 245.999ZM230.174 232.109C233.16 232.109 235.783 232.795 238.012 234.164C239.976 235.374 241.556 237.072 243.084 238.716C244.807 240.565 246.435 242.318 248.549 243.399C251.983 245.159 256.685 244.905 261.128 242.721C267.932 239.375 272.767 232.451 273.453 225.094C274.148 217.566 270.411 209.867 264.156 205.938C257.763 201.92 249.099 202.119 243.086 206.418C238.693 209.561 235.866 214.592 235.709 219.544C235.526 225.337 229.617 229.914 225.136 232.692C226.79 232.319 228.478 232.125 230.174 232.109Z" fill="#FF7378"/>
<path d="M247.38 230.413C247.196 230.413 247.018 230.343 246.885 230.216C246.751 230.088 246.672 229.915 246.664 229.73L246.303 222.566C246.294 222.376 246.36 222.189 246.489 222.047C246.617 221.905 246.795 221.82 246.987 221.811C247.177 221.802 247.364 221.868 247.506 221.996C247.647 222.124 247.732 222.303 247.742 222.493L248.101 229.665C248.11 229.855 248.044 230.042 247.915 230.183C247.787 230.324 247.609 230.409 247.418 230.419L247.38 230.413Z" fill="#14142B"/>
<path d="M243.779 227.481C243.599 227.481 243.426 227.412 243.294 227.29C243.163 227.168 243.081 227 243.066 226.822C243.052 226.642 243.104 226.464 243.215 226.321C243.325 226.18 243.485 226.084 243.662 226.054L250.116 224.98C250.305 224.948 250.497 224.992 250.653 225.103C250.808 225.215 250.913 225.383 250.944 225.571C250.976 225.759 250.93 225.953 250.819 226.108C250.709 226.263 250.541 226.368 250.353 226.399L243.898 227.473C243.859 227.479 243.818 227.482 243.779 227.481Z" fill="#14142B"/>
<path d="M227.36 121.887C227.199 121.888 227.044 121.835 226.918 121.737C226.791 121.639 226.701 121.501 226.661 121.346C226.622 121.191 226.636 121.026 226.7 120.879C226.764 120.733 226.876 120.612 227.017 120.536C228.652 119.651 230.501 119.239 232.358 119.345C232.548 119.355 232.727 119.442 232.854 119.584C232.981 119.726 233.046 119.914 233.036 120.104C233.024 120.295 232.938 120.473 232.796 120.6C232.653 120.727 232.467 120.793 232.275 120.782C230.684 120.699 229.1 121.054 227.696 121.809C227.592 121.863 227.477 121.889 227.36 121.887Z" fill="#14142B"/>
<path d="M251.187 123.169C251.071 123.169 250.957 123.141 250.856 123.088C249.288 122.271 247.552 121.83 245.784 121.8C245.593 121.796 245.411 121.717 245.278 121.58C245.146 121.443 245.072 121.258 245.075 121.068C245.076 120.974 245.096 120.879 245.133 120.793C245.17 120.705 245.224 120.627 245.293 120.562C245.361 120.495 245.441 120.444 245.53 120.409C245.617 120.375 245.712 120.359 245.806 120.361C247.798 120.396 249.754 120.893 251.522 121.811C251.665 121.886 251.78 122.006 251.846 122.153C251.913 122.3 251.928 122.466 251.889 122.622C251.851 122.78 251.761 122.918 251.633 123.018C251.505 123.117 251.348 123.17 251.187 123.169Z" fill="#14142B"/>
<path d="M236.755 148.031C236.38 148.031 236.006 148.031 235.629 148.009C235.439 148 235.26 147.918 235.13 147.776C235.001 147.636 234.933 147.451 234.941 147.26C234.948 147.069 235.032 146.89 235.172 146.76C235.313 146.631 235.499 146.563 235.689 146.57C240.365 146.761 245.006 145.685 249.12 143.454C249.202 143.407 249.295 143.377 249.39 143.365C249.485 143.354 249.582 143.361 249.673 143.387C249.765 143.413 249.851 143.457 249.926 143.518C250 143.578 250.062 143.651 250.108 143.735C250.153 143.82 250.182 143.912 250.192 144.007C250.201 144.103 250.192 144.198 250.164 144.29C250.136 144.381 250.089 144.467 250.027 144.54C249.967 144.614 249.891 144.674 249.806 144.717C245.799 146.891 241.313 148.03 236.755 148.031Z" fill="#14142B"/>
<path d="M253.376 144.455C253.208 144.455 253.043 144.396 252.915 144.287C252.785 144.179 252.698 144.028 252.67 143.861C252.593 143.434 252.426 143.03 252.181 142.673C251.935 142.314 251.616 142.013 251.247 141.788C251.16 141.743 251.084 141.68 251.024 141.604C250.963 141.528 250.919 141.441 250.892 141.346C250.866 141.253 250.86 141.155 250.873 141.058C250.886 140.962 250.919 140.869 250.969 140.786C251.018 140.702 251.084 140.63 251.164 140.573C251.242 140.515 251.332 140.475 251.427 140.454C251.522 140.433 251.62 140.43 251.716 140.448C251.811 140.465 251.902 140.503 251.984 140.556C252.531 140.888 253.001 141.331 253.363 141.858C253.726 142.386 253.972 142.983 254.085 143.613C254.101 143.706 254.099 143.801 254.079 143.893C254.058 143.985 254.021 144.073 253.966 144.15C253.912 144.228 253.844 144.293 253.763 144.343C253.684 144.395 253.595 144.428 253.502 144.445C253.46 144.452 253.418 144.455 253.376 144.455Z" fill="#14142B"/>
<path d="M241.5 151.365C241.348 151.364 241.2 151.315 241.078 151.225C240.955 151.134 240.864 151.007 240.819 150.862C240.773 150.717 240.774 150.56 240.823 150.416C240.872 150.272 240.966 150.146 241.089 150.059C242.209 149.271 243.566 148.891 244.934 148.984C245.124 148.997 245.301 149.086 245.427 149.23C245.553 149.374 245.616 149.562 245.603 149.753C245.589 149.943 245.502 150.122 245.357 150.246C245.214 150.372 245.026 150.435 244.834 150.423C243.798 150.36 242.771 150.649 241.92 151.244C241.795 151.327 241.649 151.369 241.5 151.365Z" fill="#14142B"/>
<path d="M139.972 123.887L125.706 72.7103C125.497 71.9641 125.001 71.3313 124.326 70.9507C123.651 70.5701 122.853 70.4731 122.106 70.6807L33.4573 95.3927C32.7111 95.6012 32.0783 96.0974 31.6978 96.7722C31.3172 97.447 31.2201 98.2453 31.4278 98.9916L45.6962 150.167C45.9038 150.914 46.3994 151.548 47.074 151.929C47.7485 152.309 48.5468 152.407 49.2932 152.2L100.685 137.873C102.382 134.587 100.821 130.244 101.332 126.672C101.538 125.851 102.77 124.092 103.386 123.475C105.851 121.627 109.502 122.108 111.145 124.573C113.168 127.83 112.936 131.727 111.967 134.975L137.942 127.485C138.311 127.382 138.657 127.207 138.959 126.971C139.261 126.735 139.514 126.441 139.702 126.106C139.891 125.772 140.011 125.404 140.058 125.023C140.103 124.642 140.074 124.256 139.972 123.887Z" fill="#84D7FF"/>
<path d="M48.5046 153.027C47.7114 153.022 46.9415 152.758 46.3114 152.277C45.6813 151.795 45.2253 151.121 45.0124 150.356L30.7357 99.1847C30.477 98.2545 30.5983 97.2596 31.0727 96.4186C31.5473 95.5777 32.3365 94.9597 33.2665 94.7004L121.913 69.9884C122.843 69.7307 123.838 69.8521 124.678 70.3261C125.519 70.8002 126.138 71.588 126.398 72.5171L140.658 123.696C140.916 124.626 140.794 125.619 140.321 126.459C139.846 127.301 139.058 127.919 138.13 128.179L112.166 135.674C112.042 135.709 111.91 135.71 111.785 135.676C111.66 135.643 111.546 135.577 111.456 135.485C111.365 135.391 111.301 135.276 111.271 135.151C111.241 135.025 111.245 134.893 111.283 134.77C112.074 132.115 112.587 128.26 110.546 124.96C110.21 124.475 109.779 124.063 109.279 123.749C108.778 123.437 108.218 123.23 107.635 123.143C106.979 123.03 106.307 123.049 105.658 123.2C105.01 123.35 104.398 123.629 103.859 124.02C103.257 124.636 102.216 126.188 102.037 126.814C101.858 128.11 101.965 129.521 102.078 131.014C102.265 133.479 102.456 136.015 101.322 138.204C101.277 138.293 101.214 138.37 101.138 138.433C101.061 138.496 100.972 138.542 100.876 138.568L49.4865 152.892C49.1668 152.981 48.8365 153.027 48.5046 153.027ZM122.891 71.2928C122.691 71.2923 122.492 71.3192 122.299 71.3729L33.6506 96.085C33.3719 96.1626 33.1113 96.2943 32.8834 96.4727C32.6557 96.651 32.4653 96.8726 32.3232 97.1246C32.1811 97.3766 32.09 97.6541 32.0552 97.9414C32.0203 98.2286 32.0425 98.5198 32.1203 98.7985L46.3887 149.975C46.5454 150.537 46.9192 151.014 47.4277 151.301C47.9361 151.588 48.5377 151.662 49.1003 151.506L100.178 137.268C100.975 135.493 100.815 133.365 100.644 131.124C100.529 129.604 100.41 128.032 100.62 126.569C100.62 126.545 100.62 126.523 100.634 126.497C100.887 125.489 102.24 123.605 102.877 122.968C102.901 122.943 102.927 122.921 102.955 122.9C103.654 122.381 104.452 122.009 105.299 121.806C106.147 121.604 107.027 121.577 107.885 121.725C108.661 121.848 109.404 122.128 110.068 122.548C110.732 122.969 111.303 123.521 111.745 124.17L111.757 124.19C113.777 127.444 113.629 131.101 112.99 133.932L137.749 126.793C138.028 126.716 138.29 126.584 138.518 126.406C138.747 126.227 138.937 126.006 139.079 125.754C139.223 125.502 139.314 125.224 139.35 124.936C139.385 124.649 139.363 124.357 139.286 124.077L125.013 72.9033C124.883 72.4403 124.606 72.0324 124.223 71.7417C123.839 71.4509 123.373 71.2933 122.891 71.2928Z" fill="#84D7FF"/>
<path d="M87.3495 120.49C86.9697 120.489 86.5934 120.419 86.2382 120.285L31.1693 99.665C31.0808 99.632 30.9997 99.5818 30.9306 99.5174C30.8615 99.453 30.8057 99.3757 30.7665 99.2898C30.7273 99.2038 30.7055 99.1111 30.7021 99.0166C30.6987 98.9222 30.7141 98.8282 30.7472 98.7396C30.7802 98.6512 30.8303 98.5701 30.8947 98.5009C30.9591 98.4318 31.0365 98.3761 31.1225 98.3369C31.296 98.2578 31.4938 98.2508 31.6726 98.3175L86.7251 118.941C87.0654 119.071 87.4379 119.087 87.7885 118.989C88.1391 118.892 88.4494 118.686 88.6745 118.4L125.14 72.2641C125.259 72.1143 125.432 72.0176 125.621 71.9952C125.811 71.9729 126.001 72.0267 126.152 72.145C126.301 72.2632 126.398 72.436 126.42 72.6256C126.442 72.8151 126.388 73.0057 126.271 73.1557L89.8186 119.291C89.5246 119.664 89.1497 119.967 88.722 120.174C88.2943 120.382 87.825 120.49 87.3495 120.49Z" fill="#14142B"/>
<path d="M46.6166 151.473C46.4701 151.472 46.327 151.427 46.2067 151.343C46.0865 151.259 45.9948 151.14 45.9438 151.003C45.8928 150.866 45.8851 150.716 45.9216 150.574C45.9582 150.432 46.0372 150.305 46.1483 150.209L82.8445 118.652C82.9158 118.589 82.9991 118.541 83.0893 118.51C83.1795 118.479 83.2749 118.467 83.37 118.474C83.4651 118.481 83.5579 118.505 83.6431 118.548C83.7283 118.591 83.8041 118.65 83.8662 118.722C83.9282 118.794 83.9754 118.878 84.0048 118.969C84.034 119.06 84.0451 119.156 84.0372 119.251C84.0293 119.345 84.0025 119.438 83.9587 119.522C83.9147 119.608 83.8544 119.682 83.7812 119.743L47.085 151.298C46.955 151.411 46.7887 151.473 46.6166 151.473Z" fill="#14142B"/>
<path d="M138.857 125.76C138.817 125.76 138.778 125.756 138.738 125.75L91.0066 117.728C90.9119 117.714 90.821 117.682 90.7392 117.631C90.6574 117.582 90.5864 117.517 90.5301 117.439C90.4739 117.362 90.4338 117.274 90.412 117.181C90.3901 117.087 90.3872 116.991 90.4032 116.897C90.4192 116.802 90.4538 116.712 90.5051 116.631C90.5564 116.551 90.6234 116.481 90.7019 116.426C90.7805 116.372 90.8692 116.333 90.9627 116.314C91.0563 116.294 91.1529 116.293 91.2469 116.311L138.976 124.322C139.07 124.33 139.163 124.356 139.247 124.399C139.331 124.442 139.406 124.502 139.467 124.574C139.528 124.647 139.574 124.731 139.604 124.82C139.633 124.911 139.643 125.006 139.635 125.1C139.628 125.195 139.601 125.287 139.558 125.371C139.515 125.455 139.455 125.53 139.383 125.592C139.311 125.652 139.227 125.699 139.137 125.728C139.046 125.757 138.951 125.768 138.857 125.76Z" fill="#14142B"/>
<path d="M247.245 312.746L244.326 310.04C243.023 308.834 241.312 308.163 239.537 308.162H215.161L214.869 293.672C211.666 294.617 208.671 295.813 205.518 296.958C203.463 297.781 200.512 297.682 198.457 296.655C196.197 295.627 194.622 291.671 196.265 289.411C199.347 285.303 203.782 286.07 208.301 284.837C209.739 284.426 211.177 283.894 212.204 282.867C204.603 279.785 197.269 284.138 189.259 282.29C186.794 281.674 184.801 279.787 183.773 277.117C182.952 275.064 184.391 272.499 185.623 271.062C186.444 270.239 187.79 269.25 189.022 268.838C197.034 267.606 203.874 270.798 211.68 271.414C205.928 267.922 199.766 267.364 193.397 265.31C190.727 264.488 187.173 262.122 186.762 259.041C186.557 255.754 188.977 251.645 192.058 251.44C200.32 250.671 207.389 256.278 214.191 260.683L213.481 225.816C213.458 224.646 212.977 223.533 212.142 222.714C211.307 221.895 210.183 221.437 209.014 221.437H123.123C122.498 221.437 121.878 221.573 121.31 221.838C120.743 222.102 120.239 222.488 119.837 222.967C119.433 223.447 119.14 224.009 118.978 224.613C118.815 225.219 118.787 225.851 118.894 226.468L134.096 314.021H246.756C246.904 314.023 247.051 313.98 247.175 313.896C247.298 313.813 247.393 313.693 247.447 313.554C247.499 313.414 247.508 313.263 247.472 313.118C247.436 312.973 247.357 312.843 247.245 312.746Z" fill="#84D7FF"/>
<path d="M246.749 314.734H134.085C133.916 314.734 133.753 314.673 133.623 314.564C133.494 314.455 133.407 314.304 133.378 314.137L118.176 226.586C118.053 225.866 118.087 225.129 118.277 224.423C118.466 223.718 118.808 223.064 119.278 222.505C119.747 221.945 120.334 221.496 120.994 221.187C121.655 220.878 122.376 220.716 123.107 220.715H209.02C210.376 220.722 211.675 221.257 212.644 222.206C213.612 223.155 214.173 224.444 214.208 225.798L214.918 260.667C214.919 260.797 214.886 260.926 214.821 261.039C214.754 261.151 214.66 261.244 214.547 261.307C214.432 261.371 214.303 261.402 214.172 261.398C214.043 261.393 213.915 261.354 213.806 261.283C212.962 260.734 212.099 260.158 211.262 259.6C205.294 255.614 199.122 251.495 192.133 252.144C189.462 252.323 187.321 256.098 187.488 258.966C187.845 261.522 190.908 263.783 193.618 264.617C195.654 265.275 197.691 265.784 199.659 266.275C203.973 267.353 208.06 268.372 212.052 270.794C212.19 270.878 212.296 271.006 212.352 271.157C212.408 271.309 212.412 271.476 212.363 271.629C212.312 271.783 212.213 271.916 212.079 272.005C211.944 272.095 211.784 272.137 211.623 272.126C208.664 271.893 205.827 271.292 203.088 270.709C198.447 269.728 194.063 268.797 189.195 269.534C188.108 269.912 186.892 270.806 186.15 271.543C184.854 273.066 183.829 275.289 184.449 276.844C185.396 279.309 187.214 281.03 189.441 281.587C192.966 282.409 196.454 281.952 199.827 281.521C203.936 280.993 208.181 280.449 212.483 282.193C212.592 282.238 212.689 282.309 212.765 282.4C212.841 282.491 212.892 282.6 212.917 282.717C212.94 282.833 212.934 282.953 212.9 283.067C212.867 283.18 212.805 283.284 212.722 283.368C211.553 284.534 209.93 285.112 208.497 285.52C207.229 285.844 205.941 286.092 204.643 286.26C201.551 286.721 198.878 287.118 196.837 289.837C196.289 290.588 196.154 291.711 196.469 292.904C196.837 294.298 197.752 295.541 198.751 295.985L198.776 295.997C200.625 296.92 203.342 297.039 205.246 296.277H205.27C206.115 295.972 206.947 295.66 207.776 295.356C209.998 294.535 212.296 293.684 214.661 292.986C214.767 292.954 214.879 292.947 214.988 292.966C215.097 292.985 215.2 293.029 215.29 293.094C215.38 293.159 215.452 293.245 215.503 293.344C215.553 293.442 215.581 293.55 215.583 293.661L215.863 307.448H239.533C241.491 307.445 243.376 308.185 244.81 309.517L247.729 312.222C247.947 312.417 248.1 312.674 248.168 312.96C248.235 313.245 248.214 313.544 248.108 313.816C248.001 314.09 247.813 314.323 247.569 314.486C247.325 314.649 247.038 314.735 246.745 314.729L246.749 314.734ZM134.695 313.295H246.749L247.245 312.754L246.755 313.281L243.836 310.576C242.668 309.49 241.131 308.889 239.537 308.89H215.161C214.974 308.89 214.793 308.815 214.659 308.684C214.524 308.552 214.446 308.373 214.443 308.185L214.167 294.643C212.181 295.259 210.279 295.969 208.28 296.71C207.459 297.016 206.617 297.326 205.772 297.628C203.492 298.535 200.359 298.402 198.147 297.301C196.762 296.664 195.56 295.087 195.082 293.273C194.65 291.63 194.864 290.113 195.684 288.986C198.083 285.787 201.166 285.328 204.43 284.841C205.671 284.68 206.9 284.447 208.111 284.14C209.024 283.905 209.902 283.557 210.727 283.1C207.192 282.031 203.693 282.484 200.01 282.951C196.518 283.399 192.892 283.863 189.104 282.987C186.405 282.314 184.226 280.268 183.112 277.373C182.21 275.115 183.535 272.391 185.075 270.595L185.113 270.554C185.922 269.747 187.373 268.633 188.796 268.159C188.834 268.146 188.873 268.137 188.914 268.13C194.067 267.339 198.805 268.335 203.385 269.311C204.738 269.599 206.115 269.89 207.512 270.133C204.873 269.059 202.144 268.378 199.311 267.668C197.32 267.171 195.258 266.658 193.184 265.988C190.588 265.189 186.535 262.7 186.058 259.128C186.057 259.111 186.057 259.095 186.058 259.079C185.831 255.482 188.442 250.946 192.015 250.708C199.491 250.014 205.879 254.278 212.058 258.401C212.514 258.707 212.98 259.017 213.446 259.327L212.766 225.824C212.739 224.845 212.335 223.915 211.635 223.232C210.936 222.547 209.998 222.161 209.02 222.155H123.123C122.603 222.155 122.087 222.269 121.615 222.489C121.142 222.709 120.724 223.03 120.388 223.429C120.054 223.827 119.809 224.295 119.673 224.797C119.538 225.301 119.513 225.828 119.602 226.341L134.695 313.295Z" fill="#84D7FF"/>
<path d="M168.782 267.668C165.873 267.668 163.681 266.497 163.681 264.941C163.681 263.386 165.873 262.211 168.782 262.211C171.69 262.211 173.885 263.385 173.885 264.94C173.885 266.494 171.69 267.668 168.782 267.668ZM168.782 263.652C166.51 263.652 165.12 264.485 165.12 264.941C165.12 265.398 166.51 266.229 168.782 266.229C171.054 266.229 172.446 265.395 172.446 264.941C172.446 264.488 171.06 263.65 168.782 263.65V263.652Z" fill="#14142B"/>
<path d="M198.545 226.808H119.847C119.656 226.808 119.473 226.732 119.338 226.596C119.204 226.462 119.128 226.279 119.128 226.089C119.128 225.898 119.204 225.714 119.338 225.58C119.473 225.445 119.656 225.369 119.847 225.369H198.545C198.735 225.369 198.919 225.445 199.054 225.58C199.188 225.714 199.264 225.898 199.264 226.089C199.264 226.279 199.188 226.462 199.054 226.596C198.919 226.732 198.735 226.808 198.545 226.808Z" fill="#14142B"/>
<path d="M231.338 181.046L227.069 180.537C227.069 180.537 228.052 185.864 231.192 186.407L231.338 181.046Z" fill="#14142B"/>
<path d="M231.192 187.127C231.151 187.126 231.109 187.123 231.07 187.117C227.476 186.501 226.408 180.904 226.363 180.666C226.342 180.556 226.348 180.441 226.38 180.334C226.412 180.225 226.468 180.126 226.545 180.043C226.624 179.962 226.718 179.899 226.824 179.86C226.93 179.822 227.044 179.809 227.156 179.822L231.422 180.334C231.601 180.355 231.764 180.441 231.882 180.578C231.998 180.713 232.06 180.888 232.056 181.068L231.911 186.426C231.906 186.614 231.828 186.791 231.694 186.922C231.56 187.053 231.38 187.126 231.192 187.127ZM228.014 181.376C228.411 182.724 229.223 184.625 230.5 185.391L230.601 181.694L228.014 181.376Z" fill="#14142B"/>
<path d="M272.689 182.148L267.143 181.719L267.221 186.907C267.221 186.907 270.689 184.892 272.689 182.148Z" fill="#14142B"/>
<path d="M267.216 187.627C267.091 187.627 266.969 187.594 266.862 187.532C266.752 187.47 266.661 187.38 266.597 187.272C266.533 187.165 266.498 187.041 266.496 186.915L266.42 181.727C266.419 181.627 266.437 181.527 266.476 181.435C266.516 181.343 266.573 181.26 266.646 181.193C266.72 181.125 266.806 181.072 266.901 181.039C266.995 181.006 267.095 180.992 267.195 180.999L272.741 181.428C272.868 181.439 272.991 181.483 273.096 181.555C273.201 181.629 273.285 181.728 273.338 181.845C273.392 181.96 273.414 182.089 273.401 182.216C273.39 182.343 273.344 182.465 273.269 182.569C271.215 185.403 267.723 187.441 267.573 187.528C267.464 187.591 267.34 187.624 267.216 187.627ZM267.869 182.491L267.916 185.592C269.128 184.768 270.249 183.815 271.258 182.751L267.869 182.491Z" fill="#14142B"/>
<path d="M259.609 230.413C259.426 230.413 259.251 230.344 259.118 230.22C258.985 230.095 258.903 229.925 258.892 229.743L258.019 216.955L254.527 221.623C254.413 221.776 254.242 221.877 254.053 221.904C253.864 221.931 253.673 221.883 253.52 221.769C253.367 221.655 253.266 221.484 253.239 221.295C253.211 221.107 253.26 220.915 253.374 220.762L258.031 214.543C258.119 214.425 258.241 214.337 258.381 214.292C258.519 214.245 258.669 214.243 258.81 214.285C258.95 214.326 259.075 214.41 259.167 214.524C259.258 214.638 259.313 214.778 259.323 214.924L260.328 229.645C260.341 229.834 260.278 230.022 260.153 230.165C260.027 230.309 259.851 230.398 259.66 230.41L259.609 230.413Z" fill="#14142B"/>
<path d="M255.692 231.131C255.502 231.147 255.313 231.086 255.167 230.962C255.021 230.837 254.932 230.661 254.916 230.47C254.901 230.28 254.962 230.091 255.086 229.945C255.21 229.799 255.387 229.709 255.578 229.694L263.428 228.417C263.522 228.401 263.617 228.405 263.71 228.426C263.801 228.448 263.888 228.488 263.964 228.543C264.041 228.597 264.106 228.667 264.155 228.748C264.205 228.828 264.238 228.917 264.253 229.01C264.268 229.104 264.265 229.199 264.244 229.292C264.222 229.383 264.182 229.47 264.127 229.546C264.071 229.623 264.002 229.688 263.922 229.737C263.841 229.787 263.752 229.82 263.659 229.835L255.808 231.113C255.77 231.122 255.732 231.129 255.692 231.131Z" fill="#14142B"/>
<path d="M121.033 196.6C120.928 196.6 120.823 196.577 120.728 196.533C120.633 196.488 120.547 196.423 120.48 196.341C110.415 184.241 105.339 175.297 103.995 167.343C102.732 159.857 104.788 153.85 107.393 146.244C108.498 143.011 109.642 139.671 110.69 135.782C111.62 132.323 112.348 128.683 110.193 125.532C108.971 123.744 106.863 122.977 105.07 123.66C102.757 124.544 101.688 127.457 102.21 131.467C102.308 132.227 102.365 132.994 102.381 133.76C102.412 135.85 101.855 137.905 100.774 139.693C99.6918 141.48 98.1287 142.927 96.2633 143.867C94.1084 144.95 91.4092 147.021 90.7929 150.728C90.7806 150.824 90.7491 150.917 90.7002 151C90.6513 151.083 90.5861 151.156 90.5085 151.214C90.4309 151.272 90.3425 151.313 90.2486 151.336C90.1545 151.358 90.057 151.362 89.9617 151.345C89.8662 151.33 89.7751 151.295 89.6936 151.243C89.612 151.191 89.5419 151.124 89.4872 151.043C89.4325 150.964 89.3943 150.874 89.3752 150.78C89.3559 150.685 89.3561 150.587 89.3755 150.493C90.0904 146.178 93.1656 143.816 95.6183 142.581C97.2414 141.764 98.6017 140.505 99.5433 138.951C100.485 137.396 100.97 135.607 100.943 133.789C100.929 133.075 100.876 132.361 100.783 131.653C100.166 126.949 101.582 123.463 104.556 122.327C106.974 121.405 109.78 122.392 111.378 124.73C113.88 128.385 113.095 132.385 112.079 136.166C111.019 140.1 109.819 143.616 108.753 146.721C106.216 154.133 104.211 159.989 105.413 167.113C106.711 174.804 111.699 183.547 121.586 195.431C121.673 195.536 121.728 195.665 121.746 195.8C121.763 195.935 121.742 196.073 121.684 196.197C121.627 196.32 121.534 196.425 121.419 196.499C121.303 196.572 121.169 196.611 121.033 196.611V196.6Z" fill="#14142B"/>
<path d="M97.0229 212.138C96.9185 212.14 96.8153 212.116 96.7204 212.072C96.6257 212.029 96.5417 211.965 96.4745 211.884C94.938 210.064 88.2371 196.927 83.533 165.885C82.6005 159.742 79.6896 151.833 71.1215 149.04C71.0277 149.015 70.94 148.97 70.8638 148.91C70.7875 148.849 70.7244 148.774 70.6782 148.688C70.6319 148.603 70.6035 148.508 70.5948 148.412C70.5859 148.315 70.5969 148.217 70.627 148.125C70.657 148.032 70.7055 147.946 70.7697 147.874C70.8337 147.8 70.912 147.741 70.9997 147.699C71.0875 147.657 71.1828 147.632 71.28 147.629C71.3773 147.624 71.4742 147.639 71.5653 147.674C78.7899 150.03 83.5515 156.421 84.9484 165.664C89.5621 196.066 96.1807 209.305 97.5714 210.952C97.6607 211.056 97.7183 211.184 97.737 211.321C97.7558 211.456 97.7351 211.595 97.6773 211.72C97.6196 211.844 97.5272 211.949 97.4111 212.023C97.2951 212.096 97.1604 212.136 97.0229 212.135V212.138Z" fill="#14142B"/>
<path d="M82.4751 179.405C83.4167 179.405 84.1801 178.642 84.1801 177.7C84.1801 176.759 83.4167 175.995 82.4751 175.995C81.5334 175.995 80.77 176.759 80.77 177.7C80.77 178.642 81.5334 179.405 82.4751 179.405Z" fill="#FF7378"/>
<path d="M82.4747 180.124C81.9953 180.124 81.5267 179.981 81.128 179.715C80.7294 179.449 80.4187 179.07 80.2353 178.628C80.0518 178.185 80.0038 177.697 80.0974 177.227C80.1908 176.757 80.4217 176.325 80.7608 175.987C81.0997 175.647 81.5316 175.416 82.0019 175.323C82.472 175.23 82.9595 175.277 83.4023 175.461C83.8452 175.644 84.2238 175.955 84.4901 176.353C84.7565 176.752 84.8987 177.221 84.8987 177.701C84.8981 178.343 84.6426 178.959 84.1881 179.413C83.7337 179.868 83.1174 180.124 82.4747 180.124ZM82.4747 176.716C82.2796 176.716 82.0889 176.774 81.9267 176.883C81.7646 176.991 81.6381 177.145 81.5635 177.325C81.489 177.506 81.4696 177.704 81.5078 177.895C81.546 178.087 81.6401 178.263 81.7782 178.401C81.9163 178.538 82.0923 178.632 82.2836 178.67C82.4751 178.707 82.6734 178.688 82.8535 178.613C83.0337 178.538 83.1874 178.411 83.2956 178.249C83.4036 178.086 83.4611 177.895 83.4608 177.701C83.4602 177.439 83.356 177.188 83.1712 177.004C82.9864 176.82 82.7359 176.716 82.4747 176.716Z" fill="#FF7378"/>
<path d="M91.7397 182.084C92.9502 182.084 93.9315 181.103 93.9315 179.892C93.9315 178.682 92.9502 177.701 91.7397 177.701C90.5291 177.701 89.5479 178.682 89.5479 179.892C89.5479 181.103 90.5291 182.084 91.7397 182.084Z" fill="#FF7378"/>
<path d="M91.7392 182.801C91.1632 182.802 90.5997 182.632 90.1202 182.313C89.6407 181.994 89.2667 181.54 89.0455 181.008C88.8243 180.476 88.7658 179.89 88.8776 179.324C88.9893 178.76 89.2663 178.241 89.6734 177.833C90.0804 177.425 90.5992 177.147 91.1642 177.035C91.7291 176.922 92.3148 176.981 92.8469 177.201C93.3792 177.422 93.834 177.795 94.1538 178.273C94.4737 178.753 94.6443 179.316 94.6438 179.891C94.6434 180.663 94.3372 181.401 93.7927 181.947C93.2483 182.492 92.5098 182.799 91.7392 182.801ZM91.7392 178.419C91.448 178.419 91.1632 178.505 90.921 178.668C90.6788 178.829 90.4899 179.06 90.3785 179.328C90.267 179.597 90.2378 179.894 90.2947 180.18C90.3515 180.465 90.4918 180.728 90.6978 180.933C90.9037 181.14 91.1662 181.28 91.4519 181.337C91.7377 181.393 92.0338 181.364 92.3029 181.253C92.5721 181.141 92.802 180.952 92.9638 180.71C93.1258 180.468 93.2121 180.183 93.2121 179.891C93.2121 179.502 93.0569 179.126 92.7807 178.851C92.5045 178.574 92.1299 178.419 91.7392 178.419Z" fill="#FF7378"/>
<path d="M99.6909 181.289C101.109 181.289 102.259 180.139 102.259 178.721C102.259 177.302 101.109 176.153 99.6909 176.153C98.2727 176.153 97.123 177.302 97.123 178.721C97.123 180.139 98.2727 181.289 99.6909 181.289Z" fill="#FF7378"/>
<path d="M99.6915 182.008C99.0414 182.008 98.4059 181.815 97.8655 181.454C97.325 181.093 96.9037 180.58 96.655 179.979C96.4061 179.378 96.3411 178.718 96.468 178.08C96.5948 177.443 96.9078 176.857 97.3675 176.397C97.827 175.938 98.4127 175.624 99.0503 175.498C99.6878 175.371 100.349 175.436 100.949 175.685C101.55 175.933 102.063 176.354 102.424 176.896C102.785 177.436 102.978 178.072 102.978 178.721C102.978 179.593 102.632 180.428 102.016 181.045C101.399 181.661 100.563 182.008 99.6915 182.008ZM99.6915 176.872C99.3258 176.872 98.9684 176.981 98.6643 177.184C98.3603 177.387 98.1233 177.676 97.9835 178.013C97.8435 178.352 97.8068 178.724 97.8782 179.082C97.9495 179.44 98.1257 179.77 98.3842 180.028C98.6427 180.287 98.9722 180.463 99.3308 180.534C99.6894 180.606 100.061 180.569 100.399 180.429C100.737 180.289 101.026 180.053 101.229 179.748C101.432 179.445 101.54 179.087 101.54 178.721C101.54 178.23 101.345 177.76 100.999 177.414C100.652 177.067 100.182 176.872 99.6915 176.872Z" fill="#FF7378"/>
<path d="M106.892 176.937C108.102 176.937 109.083 175.956 109.083 174.746C109.083 173.535 108.102 172.554 106.892 172.554C105.681 172.554 104.7 173.535 104.7 174.746C104.7 175.956 105.681 176.937 106.892 176.937Z" fill="#FF7378"/>
<path d="M106.891 177.657C106.316 177.657 105.753 177.486 105.274 177.166C104.795 176.847 104.422 176.392 104.202 175.861C103.982 175.329 103.924 174.743 104.036 174.178C104.149 173.614 104.426 173.095 104.833 172.689C105.24 172.281 105.759 172.004 106.323 171.892C106.888 171.779 107.473 171.837 108.005 172.057C108.537 172.278 108.992 172.65 109.311 173.13C109.631 173.608 109.802 174.17 109.802 174.747C109.802 175.518 109.495 176.259 108.949 176.803C108.403 177.349 107.663 177.656 106.891 177.657ZM106.891 173.273C106.6 173.273 106.315 173.359 106.073 173.522C105.831 173.684 105.642 173.914 105.531 174.183C105.419 174.451 105.39 174.748 105.447 175.034C105.504 175.319 105.644 175.582 105.85 175.787C106.056 175.994 106.318 176.134 106.604 176.191C106.89 176.248 107.186 176.219 107.455 176.107C107.724 175.996 107.954 175.807 108.116 175.564C108.278 175.322 108.364 175.037 108.364 174.747C108.365 174.552 108.328 174.359 108.254 174.18C108.181 174 108.073 173.837 107.936 173.699C107.799 173.562 107.636 173.453 107.457 173.378C107.278 173.303 107.085 173.265 106.891 173.265V173.273Z" fill="#FF7378"/>
<path d="M110.094 169.397C111.126 169.397 111.963 168.56 111.963 167.527C111.963 166.496 111.126 165.658 110.094 165.658C109.061 165.658 108.225 166.496 108.225 167.527C108.225 168.56 109.061 169.397 110.094 169.397Z" fill="#FF7378"/>
<path d="M110.093 170.119C109.581 170.119 109.08 169.967 108.654 169.682C108.227 169.399 107.895 168.994 107.699 168.52C107.502 168.048 107.451 167.526 107.551 167.023C107.65 166.522 107.897 166.06 108.259 165.697C108.621 165.334 109.083 165.088 109.585 164.988C110.088 164.887 110.609 164.939 111.082 165.135C111.556 165.331 111.96 165.663 112.245 166.089C112.53 166.515 112.682 167.015 112.682 167.527C112.681 168.215 112.408 168.873 111.922 169.358C111.437 169.843 110.78 170.116 110.093 170.119ZM110.093 166.377C109.865 166.377 109.642 166.445 109.452 166.571C109.263 166.698 109.115 166.878 109.027 167.088C108.94 167.299 108.917 167.531 108.961 167.755C109.005 167.978 109.115 168.183 109.276 168.345C109.438 168.506 109.643 168.616 109.867 168.66C110.091 168.705 110.323 168.681 110.533 168.594C110.744 168.507 110.924 168.359 111.05 168.169C111.177 167.979 111.244 167.756 111.244 167.527C111.243 167.223 111.122 166.931 110.906 166.715C110.691 166.5 110.398 166.378 110.093 166.377Z" fill="#FF7378"/>
<path d="M94.5355 206.736C94.5355 206.736 86.8878 211.872 87.0706 213.7C87.0706 213.7 95.2586 212.516 97.0232 211.419L94.5355 206.736Z" fill="#14142B"/>
<path d="M87.0701 214.419C86.8919 214.419 86.7202 214.352 86.588 214.233C86.456 214.113 86.373 213.949 86.3552 213.771C86.2833 213.061 86.6654 211.873 90.2848 208.973C92.1747 207.46 94.0543 206.192 94.1345 206.14C94.2177 206.085 94.3113 206.049 94.4096 206.033C94.5077 206.015 94.6083 206.02 94.7049 206.045C94.8015 206.068 94.8919 206.112 94.9705 206.174C95.0492 206.235 95.1141 206.312 95.1615 206.399L97.6492 211.082C97.7345 211.243 97.7556 211.431 97.7083 211.606C97.6611 211.782 97.5489 211.934 97.3945 212.03C95.5457 213.174 88.0191 214.289 87.1666 214.413C87.1346 214.417 87.1023 214.419 87.0701 214.419ZM94.2762 207.776C91.6057 209.624 89.2516 211.608 88.2718 212.782C91.01 212.345 94.457 211.676 96.0345 211.082L94.2762 207.776Z" fill="#14142B"/>
<path d="M119.145 193.576C119.145 193.576 123.013 191.796 123.566 191.977C123.566 191.977 123.003 193.569 121.033 195.88L119.145 193.576Z" fill="#14142B"/>
<path d="M121.033 196.6C120.928 196.599 120.824 196.575 120.729 196.53C120.635 196.485 120.551 196.418 120.484 196.338L118.597 194.031C118.527 193.946 118.478 193.846 118.452 193.739C118.427 193.631 118.427 193.52 118.452 193.413C118.476 193.306 118.525 193.205 118.595 193.12C118.665 193.035 118.753 192.967 118.853 192.922C122.976 191.026 123.551 191.213 123.795 191.292C123.887 191.322 123.971 191.37 124.044 191.432C124.117 191.495 124.177 191.572 124.219 191.658C124.262 191.744 124.286 191.838 124.292 191.934C124.298 192.029 124.284 192.125 124.251 192.215C124.227 192.287 123.621 193.961 121.581 196.348C121.513 196.428 121.429 196.491 121.335 196.535C121.24 196.578 121.136 196.602 121.033 196.6ZM120.298 193.846L121.033 194.745C121.455 194.21 121.845 193.65 122.199 193.068C121.638 193.279 120.963 193.557 120.298 193.846Z" fill="#14142B"/>
<path d="M213.22 283.576C213.163 283.574 213.106 283.567 213.05 283.555L212.639 283.446C210.926 282.974 205.708 281.537 196.438 282.785C193.856 283.132 189.111 283.436 186.355 281.569C183.849 279.868 181.977 276.31 183.782 272.518C185.763 268.366 190.038 267.949 192.409 268.071C195.873 268.249 198.983 268.827 202.288 269.44C204.367 269.826 206.498 270.221 208.861 270.552C206.539 269.319 202.715 267.695 196.851 266.54C194.374 266.053 189.928 264.852 187.985 262.278C186.214 259.932 185.604 256.078 188.449 253.161C191.566 249.965 195.622 250.921 197.765 251.772C203.517 254.061 210.271 257.691 217.323 262.27C217.405 262.32 217.475 262.385 217.531 262.464C217.587 262.542 217.627 262.63 217.648 262.724C217.669 262.817 217.67 262.914 217.653 263.008C217.636 263.103 217.601 263.193 217.548 263.273C217.497 263.354 217.429 263.423 217.35 263.476C217.271 263.53 217.181 263.567 217.088 263.586C216.993 263.606 216.896 263.606 216.803 263.586C216.708 263.567 216.62 263.529 216.54 263.475C209.556 258.957 202.888 255.361 197.231 253.108C195.421 252.388 192.009 251.567 189.476 254.164C187.216 256.487 187.67 259.478 189.131 261.411C190.848 263.685 195.293 264.769 197.126 265.131C206.326 266.941 210.708 269.893 212.147 270.865L212.43 271.051C212.566 271.138 212.668 271.268 212.721 271.42C212.773 271.573 212.773 271.739 212.721 271.891C212.668 272.043 212.566 272.174 212.43 272.261C212.295 272.348 212.134 272.387 211.974 272.372C208.159 271.994 205.038 271.414 202.021 270.854C198.771 270.25 195.7 269.679 192.331 269.507C190.314 269.404 186.69 269.739 185.07 273.139C183.619 276.18 185.07 278.966 187.153 280.379C189.6 282.039 194.32 281.612 196.237 281.359C205.797 280.073 211.232 281.564 213.011 282.06C213.163 282.101 213.284 282.136 213.376 282.156C213.546 282.2 213.694 282.303 213.793 282.447C213.892 282.592 213.934 282.767 213.914 282.941C213.893 283.115 213.809 283.275 213.68 283.391C213.549 283.508 213.381 283.573 213.206 283.576H213.22Z" fill="#14142B"/>
<path d="M202.283 298.008C199.876 298.008 196.694 296.899 195.605 294.017C195.022 292.472 195.062 291.015 195.721 289.703C196.625 287.891 198.711 286.429 201.597 285.595C202.748 285.258 203.886 285.04 205.09 284.807C207.554 284.334 210.11 283.845 212.867 282.258C213.032 282.164 213.229 282.138 213.413 282.188C213.596 282.237 213.754 282.359 213.848 282.524C213.944 282.689 213.97 282.886 213.92 283.069C213.871 283.253 213.749 283.411 213.584 283.505C210.618 285.211 207.945 285.724 205.367 286.219C204.198 286.445 203.093 286.657 202.008 286.973C199.51 287.704 197.738 288.904 197.015 290.354C196.54 291.303 196.522 292.371 196.957 293.528C197.902 296.032 201.192 296.872 203.204 296.515C205.258 296.15 207.286 295.467 210.956 293.904C214.887 292.234 218.401 291.811 222.121 291.363C224.88 291.033 227.731 290.689 231.005 289.816L231.33 289.73C232.207 289.489 232.607 289.399 233.73 289.607C233.822 289.623 233.91 289.658 233.99 289.711C234.069 289.762 234.138 289.829 234.192 289.906C234.245 289.984 234.283 290.071 234.302 290.164C234.322 290.257 234.323 290.351 234.307 290.445C234.29 290.538 234.255 290.627 234.203 290.706C234.152 290.785 234.085 290.853 234.007 290.907C233.929 290.96 233.842 290.998 233.749 291.018C233.657 291.037 233.562 291.039 233.468 291.022C232.625 290.866 232.468 290.909 231.71 291.117L231.375 291.207C228.005 292.105 225.1 292.454 222.294 292.791C218.676 293.226 215.26 293.637 211.52 295.227C208.276 296.609 205.915 297.487 203.457 297.93C203.068 297.991 202.676 298.016 202.283 298.008Z" fill="#14142B"/>
<path d="M258.957 305.215C258.845 305.215 258.734 305.188 258.635 305.137C253.705 302.647 249.717 299.936 246.201 297.536C244.26 296.215 242.429 294.97 240.685 293.933C240.597 293.889 240.519 293.827 240.455 293.751C240.392 293.675 240.345 293.587 240.317 293.492C240.289 293.398 240.281 293.297 240.294 293.199C240.307 293.101 240.338 293.007 240.39 292.923C240.44 292.838 240.507 292.764 240.588 292.706C240.667 292.649 240.76 292.608 240.855 292.587C240.952 292.566 241.052 292.566 241.149 292.586C241.246 292.604 241.337 292.644 241.419 292.7C243.201 293.76 245.051 295.017 247.008 296.35C250.5 298.716 254.436 301.402 259.281 303.851C259.426 303.923 259.541 304.043 259.608 304.189C259.676 304.336 259.693 304.501 259.655 304.658C259.618 304.816 259.529 304.955 259.402 305.055C259.276 305.155 259.118 305.21 258.957 305.21V305.215Z" fill="#14142B"/>
<path d="M240.003 271.312C239.868 271.312 239.736 271.273 239.622 271.201C232.577 266.797 226.532 260.97 221.871 254.094C220.464 252.021 219.753 249.93 219.128 248.087C218.274 245.572 217.656 243.753 215.747 243.085C215.571 243.02 215.426 242.888 215.347 242.718C215.266 242.548 215.256 242.353 215.318 242.174C215.379 241.997 215.509 241.85 215.677 241.767C215.846 241.683 216.041 241.669 216.22 241.727C218.792 242.627 219.578 244.943 220.488 247.625C221.086 249.382 221.762 251.374 223.061 253.284C227.608 259.997 233.511 265.685 240.386 269.983C240.518 270.066 240.62 270.189 240.676 270.335C240.732 270.481 240.739 270.642 240.696 270.791C240.653 270.942 240.562 271.074 240.437 271.168C240.312 271.261 240.159 271.313 240.003 271.312Z" fill="#14142B"/>
<path d="M259.609 278.969C259.569 278.971 259.531 278.971 259.491 278.969C255.08 278.21 250.785 276.883 246.716 275.018C246.627 274.981 246.546 274.927 246.478 274.858C246.41 274.791 246.357 274.709 246.321 274.619C246.284 274.529 246.267 274.434 246.269 274.337C246.272 274.24 246.293 274.146 246.332 274.058C246.372 273.969 246.429 273.89 246.5 273.825C246.57 273.759 246.654 273.708 246.745 273.675C246.836 273.643 246.932 273.629 247.029 273.635C247.124 273.64 247.219 273.665 247.305 273.707C251.263 275.52 255.437 276.811 259.726 277.549C259.916 277.564 260.093 277.655 260.217 277.801C260.34 277.947 260.401 278.136 260.386 278.326C260.371 278.517 260.28 278.693 260.134 278.818C259.988 278.942 259.799 279.002 259.609 278.987V278.969Z" fill="#14142B"/>
<path d="M253.95 276.544C253.95 276.544 255.745 272.189 257.201 270.587C257.201 270.587 257.782 272.158 259.609 278.245L253.95 276.544Z" fill="#14142B"/>
<path d="M259.608 278.969C259.539 278.967 259.469 278.958 259.402 278.937L253.744 277.233C253.647 277.203 253.557 277.156 253.481 277.09C253.404 277.025 253.343 276.943 253.299 276.853C253.256 276.762 253.233 276.663 253.231 276.563C253.228 276.461 253.247 276.362 253.285 276.269C253.361 276.086 255.149 271.781 256.671 270.107C256.754 270.016 256.859 269.947 256.976 269.908C257.093 269.869 257.218 269.862 257.34 269.885C257.461 269.908 257.573 269.962 257.668 270.042C257.762 270.122 257.833 270.224 257.876 270.341C257.901 270.406 258.492 272.002 260.298 278.042C260.33 278.15 260.337 278.263 260.317 278.372C260.297 278.483 260.253 278.587 260.186 278.677C260.12 278.767 260.032 278.84 259.932 278.89C259.833 278.942 259.722 278.967 259.61 278.969H259.608ZM254.927 276.093L258.534 277.177C257.778 274.681 257.274 273.093 256.96 272.132C256.196 273.405 255.517 274.727 254.927 276.088V276.093Z" fill="#14142B"/>
<path d="M252.457 300.814C252.457 300.814 250.74 313.053 252.774 314.672C252.774 314.672 255.368 311.261 258.957 304.495L252.457 300.814Z" fill="#14142B"/>
<path d="M252.774 315.391C252.611 315.391 252.454 315.336 252.327 315.235C251.657 314.701 250.804 313.278 251.135 307.098C251.312 303.842 251.751 300.744 251.751 300.714C251.768 300.597 251.812 300.488 251.881 300.392C251.95 300.297 252.039 300.22 252.144 300.169C252.251 300.117 252.366 300.092 252.484 300.094C252.601 300.098 252.715 300.131 252.818 300.188L259.317 303.869C259.479 303.962 259.6 304.115 259.652 304.294C259.705 304.474 259.685 304.667 259.598 304.832C256.021 311.574 253.458 314.966 253.351 315.104C253.294 315.179 253.221 315.244 253.139 315.291C253.056 315.339 252.963 315.37 252.869 315.381C252.837 315.386 252.806 315.389 252.774 315.391ZM253.037 301.967C252.896 303.136 252.681 305.129 252.57 307.182C252.38 310.746 252.604 312.49 252.842 313.345C254.715 310.586 256.434 307.728 257.994 304.781L253.037 301.967Z" fill="#14142B"/>
<path d="M249.119 316.138H61.947C61.7564 316.138 61.5735 316.063 61.4386 315.929C61.3039 315.793 61.228 315.61 61.228 315.42C61.228 315.23 61.3039 315.046 61.4386 314.911C61.5735 314.777 61.7564 314.701 61.947 314.701H249.119C249.311 314.701 249.493 314.777 249.628 314.911C249.762 315.046 249.838 315.23 249.838 315.42C249.838 315.61 249.762 315.793 249.628 315.929C249.493 316.063 249.311 316.138 249.119 316.138Z" fill="#14142B"/>
<path d="M241.868 271.715L236.287 290.918L239.077 292.185L244.594 273.194L241.868 271.715Z" fill="#84D7FF"/>
<path d="M239.077 292.904C238.976 292.904 238.874 292.882 238.781 292.84L235.99 291.573C235.831 291.501 235.705 291.375 235.633 291.217C235.561 291.061 235.547 290.882 235.596 290.715L241.178 271.513C241.207 271.411 241.26 271.315 241.331 271.236C241.402 271.155 241.491 271.092 241.589 271.051C241.688 271.01 241.794 270.992 241.9 270.998C242.008 271.002 242.112 271.031 242.206 271.082L244.931 272.561C245.076 272.64 245.188 272.765 245.251 272.917C245.314 273.068 245.325 273.238 245.279 273.395L239.761 292.386C239.733 292.485 239.684 292.577 239.616 292.656C239.548 292.734 239.464 292.796 239.371 292.838C239.279 292.881 239.179 292.903 239.077 292.904ZM237.15 290.521L238.619 291.188L243.743 273.549L242.304 272.772L237.15 290.521Z" fill="#84D7FF"/>
<path d="M245.702 283.182C246.407 281.368 244.667 278.999 241.816 277.892C238.965 276.784 236.083 277.357 235.377 279.173C234.673 280.987 236.412 283.356 239.263 284.463C242.115 285.571 244.998 284.998 245.702 283.182Z" fill="#84D7FF"/>
<path d="M242.135 285.757C241.062 285.745 240 285.536 239.002 285.141C235.732 283.869 233.847 281.135 234.708 278.918C235.14 277.803 236.186 277.029 237.653 276.736C239.001 276.468 240.572 276.642 242.077 277.227C243.584 277.813 244.859 278.744 245.672 279.854C246.557 281.056 246.806 282.335 246.373 283.45C245.939 284.566 244.894 285.339 243.427 285.632C243.001 285.715 242.569 285.757 242.135 285.757ZM238.951 278.056C238.607 278.053 238.262 278.085 237.924 278.15C236.957 278.343 236.28 278.801 236.039 279.442C235.488 280.859 237.079 282.857 239.515 283.803C240.77 284.29 242.055 284.44 243.139 284.224C244.107 284.031 244.783 283.573 245.026 282.932C245.274 282.293 245.089 281.494 244.505 280.708C243.852 279.819 242.801 279.064 241.548 278.571C240.722 278.242 239.842 278.067 238.953 278.056H238.951Z" fill="#84D7FF"/>
</svg>
