<svg width="48" height="48" viewBox="0 0 48 48" fill="none" xmlns="http://www.w3.org/2000/svg">
<g clip-path="url(#clip0_2319_60343)">
<rect width="48" height="48" rx="10.2857" fill="#E84DB3"/>
<mask id="mask0_2319_60343" style="mask-type:alpha" maskUnits="userSpaceOnUse" x="-32" y="-30" width="156" height="98">
<rect x="-31.7143" y="-29.5703" width="155.143" height="97.5184" rx="5.31918" fill="url(#paint0_linear_2319_60343)"/>
</mask>
<g mask="url(#mask0_2319_60343)">
<circle cx="48.7384" cy="35.3669" r="33.4665" fill="url(#paint1_linear_2319_60343)" fill-opacity="0.5"/>
</g>
<mask id="mask1_2319_60343" style="mask-type:alpha" maskUnits="userSpaceOnUse" x="-32" y="-30" width="156" height="98">
<rect x="-31.7143" y="-29.5703" width="155.143" height="97.5184" rx="5.31918" fill="url(#paint2_linear_2319_60343)"/>
</mask>
<g mask="url(#mask1_2319_60343)">
<circle cx="16.3702" cy="21.1728" r="22.8282" transform="rotate(-25.0881 16.3702 21.1728)" fill="url(#paint3_linear_2319_60343)" fill-opacity="0.5"/>
</g>
<mask id="mask2_2319_60343" style="mask-type:alpha" maskUnits="userSpaceOnUse" x="-32" y="-30" width="156" height="98">
<rect x="-31.7143" y="-29.5703" width="155.143" height="97.5184" rx="5.31918" fill="url(#paint4_linear_2319_60343)"/>
</mask>
<g mask="url(#mask2_2319_60343)">
<circle cx="23.7998" cy="31.2616" r="19.2153" transform="rotate(-175.524 23.7998 31.2616)" fill="url(#paint5_linear_2319_60343)" fill-opacity="0.5"/>
</g>
<mask id="mask3_2319_60343" style="mask-type:alpha" maskUnits="userSpaceOnUse" x="-32" y="-30" width="156" height="98">
<rect x="-31.7143" y="-29.5703" width="155.143" height="97.5184" rx="5.31918" fill="url(#paint6_linear_2319_60343)"/>
</mask>
<g mask="url(#mask3_2319_60343)">
<circle cx="1.53069" cy="35.1462" r="32.8016" transform="rotate(-140.12 1.53069 35.1462)" fill="url(#paint7_linear_2319_60343)" fill-opacity="0.5"/>
</g>
<path d="M30.0203 20.2129L25.1455 24.1378C24.2229 24.8611 22.9297 24.8611 22.0072 24.1378L17.0905 20.2129" stroke="white" stroke-width="1.71429" stroke-linecap="round" stroke-linejoin="round"/>
<path fill-rule="evenodd" clip-rule="evenodd" d="M18.1576 13.8574H28.9323C30.4859 13.8748 31.9646 14.5316 33.024 15.6748C34.0834 16.818 34.631 18.3477 34.5394 19.9078V27.3683C34.631 28.9284 34.0834 30.4582 33.024 31.6013C31.9646 32.7445 30.4859 33.4013 28.9323 33.4187H18.1576C14.8205 33.4187 12.5714 30.7039 12.5714 27.3683V19.9078C12.5714 16.5722 14.8205 13.8574 18.1576 13.8574Z" stroke="white" stroke-width="1.71429" stroke-linecap="round" stroke-linejoin="round"/>
</g>
<defs>
<linearGradient id="paint0_linear_2319_60343" x1="-31.7143" y1="67.9481" x2="123.429" y2="-29.5703" gradientUnits="userSpaceOnUse">
<stop stop-color="#0968E5"/>
<stop offset="0.492708" stop-color="#0941AB"/>
<stop offset="1" stop-color="#091970"/>
</linearGradient>
<linearGradient id="paint1_linear_2319_60343" x1="71.0494" y1="8.38615" x2="37.5829" y2="35.6264" gradientUnits="userSpaceOnUse">
<stop stop-color="white"/>
<stop offset="1" stop-color="white" stop-opacity="0"/>
</linearGradient>
<linearGradient id="paint2_linear_2319_60343" x1="-31.7143" y1="67.9481" x2="123.429" y2="-29.5703" gradientUnits="userSpaceOnUse">
<stop stop-color="#0968E5"/>
<stop offset="0.492708" stop-color="#0941AB"/>
<stop offset="1" stop-color="#091970"/>
</linearGradient>
<linearGradient id="paint3_linear_2319_60343" x1="6.17508" y1="-1.65536" x2="16.5918" y2="24.2757" gradientUnits="userSpaceOnUse">
<stop stop-color="white"/>
<stop offset="1" stop-color="white" stop-opacity="0"/>
</linearGradient>
<linearGradient id="paint4_linear_2319_60343" x1="-31.7143" y1="67.9481" x2="123.429" y2="-29.5703" gradientUnits="userSpaceOnUse">
<stop stop-color="#0968E5"/>
<stop offset="0.492708" stop-color="#0941AB"/>
<stop offset="1" stop-color="#091970"/>
</linearGradient>
<linearGradient id="paint5_linear_2319_60343" x1="23.7998" y1="12.0463" x2="22.7173" y2="35.0505" gradientUnits="userSpaceOnUse">
<stop stop-color="white"/>
<stop offset="1" stop-color="white" stop-opacity="0"/>
</linearGradient>
<linearGradient id="paint6_linear_2319_60343" x1="-31.7143" y1="67.9481" x2="123.429" y2="-29.5703" gradientUnits="userSpaceOnUse">
<stop stop-color="#0968E5"/>
<stop offset="0.492708" stop-color="#0941AB"/>
<stop offset="1" stop-color="#091970"/>
</linearGradient>
<linearGradient id="paint7_linear_2319_60343" x1="1.53069" y1="2.34455" x2="-1.47702" y2="35.3487" gradientUnits="userSpaceOnUse">
<stop stop-color="white"/>
<stop offset="1" stop-color="white" stop-opacity="0"/>
</linearGradient>
<clipPath id="clip0_2319_60343">
<rect width="48" height="48" rx="10.2857" fill="white"/>
</clipPath>
</defs>
</svg>
