<svg width="350" height="351" viewBox="0 0 350 351" fill="none" xmlns="http://www.w3.org/2000/svg">
<path d="M48.9815 283.854C48.9815 283.854 47.1541 280.469 48.4052 278.661C49.9024 276.496 53.67 274.843 54.2607 277.329C54.7816 279.517 53.2577 284.014 53.2577 284.014L48.9815 283.854Z" fill="#9A8DE7"/>
<path d="M53.2577 284.733H53.231L48.9548 284.573C48.8281 284.57 48.7044 284.534 48.5963 284.468C48.4881 284.402 48.3995 284.309 48.3395 284.197C48.1344 283.811 46.3439 280.363 47.8042 278.249C48.9424 276.608 51.3749 275.068 53.1838 275.409C54.0944 275.581 54.7221 276.202 54.9497 277.159C55.5096 279.521 53.9919 284.049 53.9242 284.24C53.8771 284.38 53.7878 284.503 53.6686 284.591C53.5494 284.679 53.4059 284.729 53.2577 284.733ZM49.4346 283.153L52.7409 283.277C53.19 281.8 53.9037 278.932 53.5611 277.495C53.4402 276.986 53.1715 276.88 52.9274 276.824C51.865 276.618 49.9146 277.736 48.9938 279.08C48.2759 280.109 48.9548 282.117 49.4346 283.153Z" fill="#9A8DE7"/>
<path d="M215.991 312.127H132.902L130.528 235.031C130.516 234.666 130.578 234.304 130.71 233.963C130.842 233.622 131.041 233.312 131.295 233.049C131.55 232.788 131.854 232.579 132.19 232.437C132.526 232.294 132.888 232.222 133.253 232.222H215.64C216.005 232.222 216.366 232.294 216.702 232.437C217.038 232.579 217.343 232.788 217.597 233.049C217.852 233.312 218.051 233.622 218.183 233.963C218.315 234.304 218.377 234.666 218.365 235.031L215.991 312.127Z" fill="#9A8DE7"/>
<path d="M215.991 312.845H132.902C132.715 312.845 132.537 312.772 132.403 312.643C132.269 312.513 132.19 312.336 132.185 312.149L129.816 235.054C129.801 234.593 129.88 234.134 130.046 233.704C130.213 233.274 130.464 232.881 130.785 232.551C131.107 232.22 131.49 231.956 131.915 231.776C132.34 231.597 132.796 231.503 133.257 231.503H215.644C216.105 231.503 216.561 231.597 216.987 231.776C217.412 231.956 217.796 232.219 218.118 232.55C218.439 232.881 218.689 233.273 218.856 233.704C219.023 234.134 219.101 234.593 219.087 235.054L216.713 312.149C216.706 312.337 216.628 312.514 216.493 312.644C216.358 312.773 216.178 312.846 215.991 312.845ZM133.6 311.41H215.296L217.648 235.012C217.656 234.742 217.61 234.474 217.513 234.223C217.417 233.972 217.27 233.743 217.083 233.55C216.895 233.357 216.671 233.203 216.424 233.098C216.175 232.993 215.909 232.94 215.64 232.94H133.253C132.984 232.94 132.718 232.993 132.469 233.098C132.222 233.203 131.998 233.357 131.81 233.55C131.623 233.743 131.476 233.972 131.38 234.223C131.283 234.474 131.237 234.742 131.245 235.012L133.6 311.41Z" fill="#9A8DE7"/>
<path d="M131.662 312.127H217.164C217.84 312.126 218.51 312.258 219.134 312.515C219.759 312.773 220.328 313.151 220.806 313.63C221.284 314.107 221.663 314.674 221.922 315.299C222.181 315.923 222.314 316.593 222.313 317.268H126.589V317.211C126.589 315.865 127.123 314.573 128.073 313.619C129.024 312.666 130.315 312.129 131.662 312.127Z" fill="#9A8DE7"/>
<path d="M222.313 317.986H126.589C126.399 317.986 126.217 317.91 126.082 317.776C125.947 317.642 125.872 317.459 125.872 317.269V317.209C125.874 315.672 126.485 314.198 127.573 313.111C128.66 312.023 130.133 311.411 131.671 311.41H217.163C218.717 311.411 220.206 312.028 221.304 313.126C222.403 314.225 223.021 315.714 223.023 317.266C223.023 317.455 222.949 317.637 222.816 317.772C222.683 317.907 222.503 317.984 222.313 317.986ZM127.365 316.551H221.528C221.357 315.516 220.824 314.576 220.025 313.897C219.226 313.219 218.212 312.846 217.163 312.845H131.671C130.628 312.846 129.619 313.22 128.828 313.899C128.036 314.58 127.513 315.52 127.354 316.551H127.365Z" fill="#9A8DE7"/>
<path d="M182.825 254.644H147.798C147.301 254.644 146.898 255.048 146.898 255.545V289.293C146.898 289.791 147.301 290.194 147.798 290.194H182.825C183.322 290.194 183.725 289.791 183.725 289.293V255.545C183.725 255.048 183.322 254.644 182.825 254.644Z" fill="#FF7378"/>
<path d="M182.822 290.914H147.798C147.37 290.914 146.958 290.742 146.655 290.439C146.351 290.135 146.181 289.725 146.18 289.295V255.545C146.181 255.117 146.351 254.705 146.655 254.402C146.958 254.098 147.37 253.928 147.798 253.927H182.822C183.252 253.928 183.662 254.098 183.966 254.402C184.269 254.705 184.441 255.117 184.441 255.545V289.295C184.441 289.725 184.269 290.135 183.966 290.439C183.662 290.742 183.252 290.914 182.822 290.914ZM147.798 255.363C147.75 255.363 147.703 255.382 147.67 255.417C147.635 255.45 147.616 255.497 147.616 255.545V289.295C147.616 289.344 147.635 289.39 147.67 289.425C147.703 289.459 147.75 289.479 147.798 289.479H182.822C182.87 289.479 182.917 289.459 182.952 289.425C182.986 289.39 183.004 289.344 183.004 289.295V255.545C183.004 255.497 182.986 255.45 182.952 255.417C182.917 255.382 182.87 255.363 182.822 255.363H147.798Z" fill="#FF7378"/>
<path d="M209.433 237.691H176.688C176.288 237.691 175.964 238.016 175.964 238.416V268.325C175.964 268.725 176.288 269.049 176.688 269.049H209.433C209.833 269.049 210.158 268.725 210.158 268.325V238.416C210.158 238.016 209.833 237.691 209.433 237.691Z" fill="#84D7FF"/>
<path d="M209.434 269.764H176.688C176.308 269.764 175.943 269.614 175.673 269.344C175.404 269.075 175.252 268.71 175.252 268.329V238.414C175.252 238.033 175.404 237.668 175.673 237.399C175.943 237.129 176.308 236.978 176.688 236.978H209.434C209.814 236.978 210.18 237.129 210.449 237.399C210.717 237.668 210.869 238.033 210.869 238.414V268.325C210.87 268.514 210.833 268.7 210.761 268.875C210.689 269.05 210.583 269.209 210.45 269.342C210.317 269.476 210.159 269.582 209.984 269.655C209.81 269.727 209.622 269.764 209.434 269.764ZM176.688 238.409V268.325H209.44V238.409H176.688Z" fill="#84D7FF"/>
<path d="M192.985 186.701C192.8 186.701 192.622 186.63 192.489 186.503C192.356 186.375 192.277 186.201 192.269 186.016C191.877 177.125 191.947 168.427 192.521 153.923C192.591 152.182 192.685 149.794 194.078 148.065C194.966 146.966 196.189 146.343 197.359 145.74C197.922 145.465 198.47 145.161 199 144.827C200.932 143.561 202.138 141.492 202.148 139.424C202.159 137.243 200.713 135.189 198.771 134.65C198.475 134.568 198.155 134.515 197.824 134.457C197.121 134.338 196.389 134.213 195.719 133.803C194.004 132.762 193.706 130.597 193.641 128.62C193.579 126.75 193.641 124.071 193.7 121.481C193.76 118.89 193.819 116.253 193.76 114.423C193.754 114.233 193.824 114.048 193.953 113.909C194.084 113.77 194.264 113.688 194.454 113.682C194.644 113.676 194.83 113.745 194.968 113.876C195.107 114.006 195.189 114.186 195.196 114.376C195.257 116.247 195.196 118.925 195.136 121.516C195.077 124.106 195.015 126.744 195.075 128.573C195.129 130.246 195.337 131.891 196.463 132.576C196.904 132.846 197.469 132.941 198.067 133.042C198.433 133.099 198.796 133.173 199.154 133.268C201.693 133.973 203.598 136.626 203.584 139.433C203.571 141.974 202.118 144.501 199.786 146.027C199.21 146.389 198.617 146.721 198.005 147.019C196.91 147.577 195.875 148.107 195.18 148.965C194.166 150.223 194.019 151.98 193.949 153.98C193.376 168.442 193.308 177.107 193.697 185.952C193.7 186.047 193.686 186.141 193.655 186.23C193.622 186.319 193.573 186.399 193.509 186.469C193.446 186.539 193.369 186.595 193.284 186.635C193.199 186.674 193.105 186.697 193.012 186.701H192.985Z" fill="#14142B"/>
<path d="M167.945 159.307C165.138 159.31 162.349 158.884 159.671 158.043C157.044 157.223 154.981 156.111 153.367 154.677C151.139 152.696 149.458 149.755 148.369 145.913C147.6 143.207 146.859 138.65 146.607 135.081C146.593 134.891 146.656 134.702 146.781 134.558C146.906 134.413 147.083 134.325 147.273 134.312C147.464 134.298 147.652 134.361 147.796 134.486C147.94 134.611 148.029 134.788 148.043 134.978C148.289 138.464 149.009 142.896 149.753 145.522C150.766 149.089 152.305 151.808 154.324 153.603C155.785 154.901 157.677 155.906 160.11 156.679C165.037 158.219 170.308 158.274 175.265 156.834C175.448 156.781 175.644 156.801 175.812 156.892C175.98 156.983 176.105 157.137 176.159 157.319C176.213 157.502 176.194 157.699 176.103 157.866C176.012 158.034 175.858 158.159 175.676 158.213C173.164 158.944 170.561 159.312 167.945 159.307Z" fill="#14142B"/>
<path d="M156.464 188.424C156.274 188.421 156.092 188.343 155.959 188.207C155.826 188.071 155.752 187.888 155.755 187.697C155.755 186.996 155.789 185.933 155.826 184.586C155.99 178.345 156.297 166.727 155.644 155.927C155.632 155.735 155.696 155.549 155.822 155.406C155.948 155.263 156.127 155.177 156.317 155.165C156.507 155.153 156.695 155.217 156.837 155.343C156.981 155.469 157.067 155.648 157.079 155.838C157.737 166.708 157.43 178.362 157.263 184.626C157.228 185.965 157.203 187.023 157.194 187.714C157.192 187.808 157.172 187.902 157.135 187.989C157.098 188.075 157.044 188.155 156.976 188.22C156.909 188.287 156.828 188.338 156.741 188.373C156.652 188.408 156.559 188.425 156.464 188.424Z" fill="#14142B"/>
<path d="M194.679 143.133C194.489 143.133 194.306 143.057 194.172 142.922C194.036 142.788 193.96 142.605 193.96 142.414C193.96 142.224 194.036 142.042 194.172 141.907C194.306 141.773 194.489 141.697 194.679 141.697C195.737 141.697 197.386 140.485 197.686 139.213C197.733 139.032 197.85 138.877 198.01 138.78C198.171 138.685 198.362 138.654 198.544 138.697C198.727 138.741 198.885 138.853 198.985 139.011C199.086 139.169 199.121 139.36 199.082 139.543C198.649 141.375 196.514 143.12 194.69 143.133H194.679Z" fill="#14142B"/>
<path d="M167.913 139.018H167.856C166.092 138.879 164.78 138.249 164.054 137.197C163.795 136.799 163.634 136.344 163.585 135.872C163.536 135.399 163.601 134.922 163.773 134.48C163.897 134.127 164.107 133.811 164.383 133.56C164.66 133.31 164.993 133.132 165.356 133.044C165.65 132.986 165.95 132.964 166.249 132.978C166.476 133.004 166.706 132.977 166.922 132.898C167.184 132.727 167.177 132.006 167.176 131.77L167.114 124.211C167.113 124.116 167.131 124.023 167.167 123.935C167.202 123.848 167.254 123.769 167.32 123.701C167.386 123.633 167.464 123.58 167.552 123.543C167.638 123.506 167.731 123.487 167.826 123.486C168.015 123.486 168.197 123.561 168.331 123.694C168.465 123.828 168.542 124.009 168.544 124.198L168.605 131.758C168.605 132.281 168.622 133.506 167.694 134.104C167.202 134.421 166.669 134.416 166.228 134.413C166.04 134.404 165.852 134.415 165.666 134.445C165.533 134.482 165.413 134.552 165.315 134.648C165.217 134.743 165.144 134.862 165.104 134.994C165.018 135.218 164.984 135.46 165.006 135.699C165.028 135.938 165.105 136.17 165.231 136.374C165.826 137.24 167.044 137.506 167.964 137.578C168.057 137.582 168.15 137.604 168.235 137.644C168.322 137.683 168.399 137.739 168.463 137.808C168.527 137.877 168.576 137.959 168.609 138.048C168.641 138.136 168.657 138.23 168.653 138.324C168.65 138.419 168.628 138.511 168.588 138.597C168.548 138.682 168.492 138.759 168.423 138.823C168.354 138.887 168.273 138.938 168.184 138.97C168.097 139.003 168.002 139.018 167.908 139.015L167.913 139.018Z" fill="#14142B"/>
<path d="M179.28 134.475C179.23 134.475 179.18 134.471 179.131 134.461L175.281 133.653C175.099 133.61 174.94 133.498 174.84 133.34C174.74 133.181 174.705 132.991 174.743 132.808C174.782 132.625 174.889 132.464 175.045 132.359C175.201 132.254 175.39 132.214 175.574 132.248L179.426 133.057C179.599 133.094 179.751 133.193 179.854 133.337C179.958 133.479 180.006 133.655 179.987 133.831C179.97 134.006 179.887 134.17 179.758 134.289C179.627 134.408 179.457 134.474 179.28 134.475Z" fill="#FF7378"/>
<path d="M148.823 147.185C148.773 147.185 148.722 147.18 148.672 147.171C147.646 146.952 144.238 145.94 143.052 142.07C143.013 141.893 143.041 141.707 143.134 141.551C143.226 141.394 143.374 141.278 143.548 141.226C143.722 141.174 143.908 141.189 144.072 141.27C144.234 141.35 144.361 141.49 144.425 141.66C145.356 144.693 147.911 145.556 148.974 145.777C149.147 145.814 149.299 145.914 149.403 146.057C149.506 146.2 149.554 146.378 149.535 146.553C149.516 146.729 149.434 146.892 149.302 147.01C149.171 147.129 149.001 147.194 148.823 147.195V147.185Z" fill="#14142B"/>
<path d="M176.97 128.519H176.997C177.179 128.518 177.326 128.37 177.325 128.187L177.303 124.815C177.302 124.633 177.154 124.486 176.97 124.487H176.945C176.762 124.488 176.615 124.638 176.616 124.82L176.638 128.191C176.639 128.375 176.788 128.52 176.97 128.519Z" fill="#14142B"/>
<path d="M176.963 129.758C176.552 129.757 176.156 129.594 175.864 129.304C175.573 129.014 175.407 128.62 175.405 128.208L175.381 124.834C175.38 124.63 175.419 124.427 175.497 124.236C175.574 124.047 175.687 123.875 175.831 123.729C175.975 123.583 176.146 123.466 176.335 123.387C176.522 123.308 176.725 123.266 176.93 123.265H176.969C177.381 123.265 177.775 123.428 178.067 123.717C178.36 124.008 178.526 124.402 178.528 124.813L178.55 128.187C178.552 128.601 178.39 128.998 178.101 129.293C177.81 129.587 177.415 129.755 177.002 129.758H176.963Z" fill="#14142B"/>
<path d="M156.9 134.621C156.723 134.622 156.552 134.557 156.42 134.439C156.287 134.321 156.203 134.158 156.184 133.982C156.164 133.805 156.211 133.628 156.315 133.483C156.419 133.34 156.571 133.24 156.745 133.201L160.58 132.345C160.766 132.303 160.962 132.337 161.121 132.439C161.282 132.541 161.397 132.703 161.439 132.888C161.48 133.075 161.446 133.27 161.344 133.431C161.242 133.592 161.079 133.705 160.894 133.747L157.052 134.605C157.002 134.615 156.952 134.62 156.9 134.621Z" fill="#FF7378"/>
<path d="M159.116 124.617H159.089C158.906 124.618 158.76 124.766 158.761 124.949L158.782 128.321C158.783 128.503 158.933 128.65 159.115 128.649H159.142C159.324 128.648 159.471 128.498 159.469 128.316L159.447 124.945C159.446 124.763 159.298 124.616 159.116 124.617Z" fill="#14142B"/>
<path d="M159.117 129.873C158.705 129.873 158.311 129.711 158.018 129.42C157.726 129.131 157.559 128.737 157.557 128.325L157.534 124.951C157.533 124.747 157.572 124.542 157.649 124.353C157.726 124.163 157.841 123.991 157.984 123.845C158.128 123.699 158.299 123.582 158.488 123.503C158.677 123.424 158.88 123.382 159.084 123.38H159.122C159.535 123.382 159.93 123.545 160.222 123.837C160.515 124.127 160.679 124.523 160.683 124.934L160.702 128.308C160.705 128.721 160.544 129.119 160.253 129.413C159.963 129.707 159.567 129.874 159.154 129.878H159.117V129.873Z" fill="#14142B"/>
<path d="M156.507 156.579L156.646 161.721C156.646 161.721 166.101 159.824 173.479 158.019C173.479 158.019 164.794 160.99 156.507 156.579Z" fill="#14142B"/>
<path d="M156.646 162.438C156.484 162.439 156.326 162.384 156.199 162.283C156.117 162.217 156.051 162.134 156.004 162.041C155.958 161.948 155.932 161.845 155.928 161.74L155.788 156.597C155.785 156.471 155.815 156.347 155.875 156.237C155.934 156.126 156.022 156.033 156.129 155.966C156.236 155.901 156.359 155.864 156.484 155.86C156.61 155.857 156.735 155.886 156.845 155.944C162.244 158.816 167.862 158.436 170.921 157.894C171.741 157.702 172.532 157.512 173.308 157.321C173.398 157.294 173.494 157.285 173.587 157.295C173.68 157.304 173.771 157.332 173.854 157.378C173.937 157.422 174.011 157.483 174.07 157.556C174.13 157.629 174.174 157.714 174.201 157.804C174.228 157.895 174.237 157.989 174.228 158.083C174.217 158.177 174.189 158.268 174.145 158.351C174.1 158.434 174.039 158.507 173.966 158.566C173.893 158.625 173.809 158.671 173.718 158.697C172.825 158.983 171.912 159.203 170.987 159.353C164.239 160.927 156.88 162.407 156.795 162.43C156.746 162.438 156.696 162.441 156.646 162.438ZM157.262 157.749L157.346 160.846C158.521 160.606 160.832 160.129 163.578 159.537C161.393 159.267 159.262 158.664 157.257 157.749H157.262Z" fill="#14142B"/>
<path d="M72.4852 255.763C71.9569 255.764 71.434 255.656 70.95 255.443C70.4662 255.231 70.032 254.92 69.6753 254.53C69.3187 254.14 69.0474 253.681 68.879 253.179C68.7105 252.678 68.6487 252.148 68.6972 251.621C68.7143 251.431 68.8064 251.255 68.9532 251.133C69.0998 251.01 69.2893 250.952 69.4797 250.968C69.67 250.986 69.8458 251.078 69.9683 251.225C70.0908 251.371 70.1501 251.561 70.1329 251.751C70.0944 252.173 70.1702 252.599 70.3526 252.983C70.5348 253.366 70.8169 253.693 71.169 253.93C71.5212 254.168 71.9307 254.306 72.3546 254.33C72.7784 254.355 73.2011 254.265 73.5784 254.07C73.6623 254.026 73.7542 253.998 73.8489 253.99C73.9435 253.98 74.0389 253.991 74.1295 254.019C74.2203 254.047 74.3044 254.094 74.3772 254.154C74.4499 254.216 74.5099 254.291 74.5534 254.375C74.597 254.46 74.6234 254.552 74.631 254.647C74.6387 254.741 74.6275 254.837 74.598 254.927C74.5686 255.018 74.5214 255.1 74.4595 255.173C74.3974 255.245 74.3218 255.303 74.2368 255.347C73.695 255.624 73.0941 255.767 72.4852 255.763Z" fill="#14142B"/>
<path d="M42.8551 275.192C42.7238 275.191 42.5951 275.154 42.4827 275.087C42.3704 275.019 42.2787 274.922 42.2173 274.806L36.9546 264.728C36.8733 264.566 36.8563 264.378 36.9073 264.204C36.9583 264.03 37.0733 263.882 37.2292 263.789C37.3852 263.697 37.5703 263.666 37.7477 263.705C37.925 263.742 38.0813 263.846 38.185 263.995L38.7614 264.848C38.8538 264.986 38.8959 265.151 38.8804 265.316L43.4929 274.135C43.5501 274.244 43.578 274.367 43.5741 274.491C43.5703 274.613 43.5346 274.733 43.4706 274.839C43.4068 274.944 43.3168 275.032 43.2093 275.093C43.1019 275.153 42.9805 275.185 42.8572 275.185L42.8551 275.192Z" fill="#14142B"/>
<path d="M47.8431 270.443C47.6625 270.443 47.4885 270.376 47.3561 270.252C47.2238 270.13 47.1428 269.962 47.1293 269.781L44.2765 232.718C44.262 232.528 44.3238 232.34 44.4482 232.194C44.5727 232.05 44.7496 231.961 44.94 231.946C45.1304 231.932 45.3187 231.994 45.4634 232.118C45.6082 232.242 45.6977 232.419 45.7121 232.61L48.565 269.67C48.5791 269.86 48.5173 270.048 48.3932 270.193C48.2689 270.337 48.0925 270.427 47.9025 270.441L47.8431 270.443Z" fill="#14142B"/>
<path d="M54.7795 270.235C54.7186 270.235 54.6581 270.228 54.599 270.213C54.4148 270.165 54.2573 270.046 54.1608 269.882C54.0643 269.717 54.0368 269.523 54.0842 269.338L55.6655 263.226C55.7131 263.042 55.832 262.883 55.996 262.786C56.16 262.691 56.3558 262.663 56.5402 262.71C56.7246 262.757 56.8825 262.876 56.9793 263.041C57.0761 263.205 57.1036 263.4 57.056 263.584L55.4747 269.699C55.4345 269.853 55.3444 269.988 55.2186 270.086C55.0929 270.183 54.9384 270.235 54.7795 270.235Z" fill="#14142B"/>
<path d="M117.213 97.6566C117.151 97.656 117.09 97.6484 117.03 97.634C113.457 96.7049 110.697 93.4254 110.151 89.8076C105.128 90.7879 99.7918 89.5573 96.0243 86.36C91.0815 82.1637 89.3587 74.7515 92.0147 69.1197C94.1415 64.6076 98.8833 61.2255 104.698 60.0626C109.183 59.1664 113.792 59.5888 117.941 60.3026C114.528 56.457 113.203 50.7389 114.795 45.8352C116.64 40.1294 122.34 35.847 128.331 35.6543C134.322 35.4614 140.284 39.3685 142.499 44.945C142.569 45.1221 142.566 45.3198 142.49 45.4945C142.415 45.6694 142.273 45.8071 142.095 45.8772C141.919 45.9473 141.721 45.9443 141.546 45.8688C141.371 45.7932 141.233 45.6512 141.163 45.4742C139.172 40.4351 133.798 36.9053 128.38 37.0796C122.961 37.254 117.828 41.118 116.156 46.2679C114.485 51.4178 116.378 57.5645 120.658 60.8809C120.786 60.9801 120.877 61.1195 120.916 61.2766C120.954 61.4338 120.939 61.5996 120.872 61.7468C120.805 61.8941 120.69 62.0143 120.546 62.0879C120.401 62.1617 120.237 62.1844 120.078 62.1526C115.49 61.2358 110.106 60.4338 104.979 61.4613C99.6053 62.5341 95.2449 65.6227 93.3109 69.7226C90.9215 74.7885 92.4905 81.4643 96.9513 85.2544C100.438 88.2119 105.397 89.3215 110.051 88.3534C110.051 88.1156 110.069 87.8756 110.094 87.6356C110.28 85.8288 111.08 84.4382 112.292 83.8208C112.742 83.6111 113.236 83.5184 113.731 83.5518C114.226 83.5852 114.704 83.7434 115.121 84.0116C115.459 84.2104 115.738 84.4968 115.928 84.8408C116.117 85.1848 116.21 85.5736 116.197 85.9661C116.163 86.7291 115.718 87.812 113.796 88.6652C113.066 88.9851 112.316 89.2543 111.55 89.4712C111.96 92.5907 114.319 95.4436 117.391 96.2393C117.561 96.2828 117.708 96.3865 117.807 96.5311C117.905 96.6757 117.947 96.8511 117.925 97.0246C117.902 97.1979 117.818 97.3574 117.688 97.473C117.556 97.5887 117.388 97.6525 117.213 97.6525V97.6566ZM113.507 84.9838C113.313 84.9807 113.121 85.0237 112.947 85.1088C111.856 85.6667 111.587 87.1721 111.523 87.7936C111.523 87.8591 111.511 87.9248 111.507 87.9987C112.088 87.8192 112.659 87.6063 113.215 87.3607C113.907 87.0573 114.733 86.5609 114.762 85.9108C114.76 85.7723 114.72 85.6369 114.648 85.5186C114.576 85.4003 114.474 85.3034 114.352 85.2381C114.101 85.0704 113.808 84.9786 113.507 84.9735V84.9838Z" fill="#14142B"/>
<path d="M229.697 86.6062C229.483 86.6059 229.27 86.5839 229.061 86.5406C228.966 86.5244 228.875 86.4892 228.794 86.4371C228.713 86.385 228.643 86.3171 228.588 86.2375C228.535 86.1578 228.496 86.0681 228.478 85.9736C228.459 85.879 228.459 85.7817 228.479 85.6873C228.499 85.5929 228.537 85.5034 228.592 85.4241C228.647 85.3449 228.717 85.2776 228.798 85.226C228.88 85.1746 228.971 85.14 229.067 85.1245C229.161 85.109 229.258 85.1127 229.353 85.1357C229.766 85.2211 230.196 85.1648 230.573 84.9758C230.95 84.7866 231.253 84.476 231.432 84.0939C231.61 83.7117 231.656 83.2804 231.559 82.8696C231.463 82.4587 231.231 82.0923 230.901 81.8295C230.782 81.7353 230.697 81.6061 230.656 81.46C230.615 81.3141 230.621 81.1589 230.673 81.0168C230.727 80.8747 230.823 80.753 230.95 80.6691C231.076 80.5852 231.225 80.5434 231.377 80.5498C234.794 80.6974 238.288 78.5358 239.683 75.41C241.078 72.2844 240.353 68.242 237.96 65.7952C235.566 63.3484 231.54 62.5362 228.387 63.8612C228.222 63.9294 228.038 63.934 227.87 63.8741C227.702 63.8143 227.563 63.6941 227.479 63.5371C227.395 63.3801 227.372 63.1975 227.415 63.0246C227.458 62.8517 227.564 62.7011 227.711 62.6019C231.092 60.3582 236.822 55.5999 237.224 48.9405C237.608 42.5825 232.146 36.163 225.297 34.9202C219.998 33.9582 214.018 35.8082 209.372 39.705C209.81 40.9825 209.824 42.3677 209.408 43.6531C209.067 44.6478 208.238 45.5194 207.357 45.8189C207.067 45.9252 206.755 45.962 206.449 45.9264C206.142 45.8907 205.847 45.7837 205.588 45.6138C205.347 45.4555 205.145 45.2463 204.995 45.0011C204.844 44.7557 204.75 44.4804 204.718 44.1946C204.575 43.0378 205.309 41.7539 205.984 41.0033C206.519 40.4056 207.083 39.8354 207.676 39.2948C207.125 38.2223 206.288 37.3229 205.257 36.6963C202.452 35.035 199.155 35.5847 197.44 36.0605C191.438 37.7218 186.721 43.1999 185.967 49.3794C185.96 49.4763 185.933 49.5707 185.887 49.657C185.843 49.7432 185.781 49.8195 185.706 49.8813C185.631 49.943 185.544 49.9887 185.451 50.0159C185.358 50.043 185.26 50.0509 185.163 50.0391C185.067 50.0272 184.974 49.9959 184.89 49.9472C184.806 49.8983 184.732 49.8328 184.675 49.7549C184.617 49.677 184.575 49.588 184.553 49.4935C184.529 49.399 184.527 49.3008 184.543 49.2051C185.363 42.4636 190.512 36.4891 197.053 34.6761C200.395 33.7512 203.568 34.03 205.988 35.4595C207.157 36.1578 208.119 37.1516 208.781 38.3412C210.621 36.8463 212.674 35.6339 214.871 34.7438C218.423 33.3081 222.12 32.898 225.562 33.5132C229.098 34.1552 232.535 36.1405 234.997 38.9646C237.576 41.9241 238.878 45.499 238.666 49.0327C238.323 54.6851 234.564 59.0209 231.218 61.7979C232.652 61.731 234.083 61.9633 235.422 62.4799C236.761 62.9965 237.977 63.7861 238.994 64.7984C241.828 67.6944 242.653 72.3009 241.004 76.0007C239.546 79.2659 236.274 81.5691 232.744 81.9485C232.979 82.4538 233.079 83.0103 233.038 83.5654C232.998 84.1206 232.816 84.6563 232.512 85.1222C232.207 85.588 231.789 85.9686 231.296 86.2282C230.804 86.4879 230.253 86.618 229.697 86.6062ZM208.18 40.7654C207.783 41.1469 207.401 41.544 207.03 41.957C206.439 42.6154 206.058 43.4788 206.123 44.0079C206.128 44.0906 206.152 44.171 206.194 44.2423C206.236 44.3137 206.296 44.3739 206.366 44.4181C206.44 44.4675 206.527 44.4973 206.615 44.5053C206.705 44.5131 206.795 44.4987 206.878 44.4633C207.346 44.3053 207.846 43.7577 208.041 43.1896C208.304 42.4086 208.351 41.5713 208.18 40.7654Z" fill="#14142B"/>
<path d="M230.693 106.244C230.557 106.244 230.42 106.236 230.284 106.221C230.094 106.201 229.919 106.105 229.798 105.956C229.679 105.807 229.623 105.616 229.643 105.426C229.664 105.235 229.76 105.061 229.909 104.941C230.059 104.821 230.249 104.765 230.439 104.786C230.825 104.816 231.212 104.765 231.576 104.637C231.942 104.508 232.275 104.304 232.556 104.039C232.836 103.774 233.059 103.452 233.209 103.096C233.358 102.739 233.43 102.355 233.422 101.969C233.414 101.582 233.325 101.202 233.161 100.852C232.996 100.502 232.761 100.19 232.469 99.9372C232.177 99.684 231.835 99.4948 231.466 99.3817C231.096 99.2687 230.706 99.2344 230.322 99.281C230.229 99.2967 230.132 99.2936 230.04 99.2718C229.948 99.25 229.86 99.2101 229.783 99.1542C229.706 99.0983 229.641 99.0278 229.591 98.9464C229.542 98.8651 229.509 98.7748 229.495 98.6807C229.48 98.5866 229.485 98.4906 229.508 98.3983C229.531 98.3059 229.572 98.2193 229.629 98.143C229.686 98.0668 229.758 98.0027 229.84 97.9544C229.922 97.9061 230.013 97.8746 230.108 97.8618C230.999 97.7105 231.915 97.8542 232.717 98.2712C233.52 98.6883 234.164 99.3557 234.553 100.172C234.941 100.989 235.053 101.91 234.87 102.796C234.687 103.681 234.22 104.483 233.541 105.079C232.77 105.809 231.755 106.225 230.693 106.244Z" fill="#14142B"/>
<path d="M146.38 40.5274C146.207 40.5267 146.041 40.4642 145.912 40.3513C145.781 40.2383 145.697 40.0825 145.671 39.9121C145.471 38.615 145.652 37.2874 146.193 36.0915C146.733 34.8956 147.612 33.8834 148.719 33.1788C149.827 32.4742 151.115 32.1076 152.428 32.1241C153.74 32.1404 155.02 32.539 156.11 33.2711C156.261 33.3795 156.366 33.5431 156.4 33.7272C156.434 33.9112 156.394 34.1011 156.289 34.2565C156.185 34.4119 156.024 34.5203 155.841 34.5589C155.658 34.5974 155.468 34.5629 155.309 34.4628C154.451 33.8858 153.443 33.5719 152.409 33.5592C151.374 33.5466 150.359 33.8358 149.486 34.3915C148.614 34.9472 147.922 35.7453 147.497 36.6879C147.071 37.6305 146.929 38.6769 147.089 39.6988C147.104 39.8007 147.098 39.9048 147.069 40.0038C147.04 40.1028 146.991 40.1945 146.923 40.2724C146.856 40.3503 146.773 40.4128 146.678 40.4553C146.585 40.498 146.482 40.5197 146.38 40.5192V40.5274Z" fill="#14142B"/>
<path d="M189.346 75.1292C189.214 75.1298 189.084 75.0937 188.971 75.025C188.859 74.9563 188.766 74.8576 188.706 74.7398C188.646 74.6222 188.619 74.4901 188.629 74.3582C188.639 74.2264 188.686 74.0999 188.764 73.993L197.841 61.3878C197.953 61.2332 198.121 61.1294 198.309 61.0991C198.498 61.0686 198.69 61.1142 198.844 61.2258C198.998 61.3373 199.102 61.5055 199.133 61.6936C199.164 61.8817 199.117 62.0742 199.006 62.2286L189.928 74.8318C189.862 74.9241 189.774 74.9992 189.673 75.0509C189.573 75.1026 189.459 75.1294 189.346 75.1292Z" fill="#14142B"/>
<path d="M202.884 81.3126C202.734 81.3124 202.587 81.2646 202.464 81.176C202.343 81.0876 202.252 80.9629 202.204 80.8196C202.158 80.6763 202.156 80.5218 202.202 80.378C202.247 80.2342 202.337 80.1084 202.459 80.0185L211.179 73.56C211.255 73.5039 211.34 73.4632 211.433 73.4403C211.524 73.4175 211.619 73.4129 211.713 73.4268C211.806 73.4407 211.896 73.4729 211.976 73.5214C212.057 73.5699 212.128 73.634 212.184 73.7098C212.24 73.7857 212.281 73.8718 212.304 73.9632C212.326 74.0548 212.331 74.15 212.317 74.2432C212.303 74.3366 212.271 74.4263 212.222 74.5071C212.173 74.5881 212.11 74.6586 212.035 74.7148L203.311 81.1711C203.189 81.2639 203.038 81.3136 202.884 81.3126Z" fill="#14142B"/>
<path d="M181.951 71.8149C181.901 71.8144 181.851 71.8089 181.8 71.7985C181.615 71.7586 181.453 71.6466 181.349 71.487C181.245 71.3274 181.21 71.1333 181.25 70.9473L181.764 68.5334C181.784 68.4411 181.821 68.3536 181.875 68.2759C181.929 68.1982 181.996 68.1318 182.076 68.0805C182.155 68.0292 182.244 67.9939 182.336 67.9768C182.429 67.9596 182.524 67.961 182.616 67.9806C182.708 68.0003 182.796 68.0379 182.874 68.0915C182.952 68.1449 183.017 68.2131 183.069 68.2922C183.12 68.3713 183.156 68.4599 183.172 68.5526C183.19 68.6454 183.189 68.7406 183.169 68.8328L182.652 71.2571C182.616 71.4158 182.526 71.5575 182.399 71.6589C182.272 71.7603 182.113 71.8152 181.951 71.8149Z" fill="#14142B"/>
<path d="M155.959 75.652C155.79 75.6519 155.625 75.5917 155.496 75.482C155.366 75.3724 155.28 75.2204 155.252 75.053L151.761 54.3077C151.736 54.1228 151.783 53.9353 151.894 53.7849C152.004 53.6345 152.17 53.533 152.353 53.5021C152.537 53.4712 152.726 53.5132 152.88 53.6191C153.033 53.7251 153.139 53.8868 153.176 54.0698L156.679 74.8131C156.708 74.9997 156.662 75.1903 156.553 75.3437C156.443 75.4973 156.276 75.6013 156.091 75.6334C156.048 75.6431 156.003 75.6493 155.959 75.652Z" fill="#14142B"/>
<path d="M148.09 76.3268C147.973 76.3272 147.859 76.2991 147.756 76.2452C147.654 76.1912 147.565 76.1129 147.5 76.0171L145.471 73.0883C145.417 73.0107 145.379 72.9234 145.359 72.8311C145.339 72.7388 145.337 72.6435 145.354 72.5505C145.37 72.4576 145.405 72.3688 145.457 72.2894C145.508 72.2099 145.573 72.1413 145.652 72.0874C145.729 72.0336 145.816 71.9955 145.908 71.9754C146 71.9554 146.096 71.9536 146.189 71.9704C146.282 71.9872 146.371 72.0221 146.451 72.0731C146.53 72.1242 146.599 72.1903 146.653 72.2679L148.685 75.1988C148.761 75.3066 148.805 75.4334 148.814 75.565C148.823 75.6968 148.795 75.8282 148.733 75.9449C148.671 76.0617 148.579 76.1591 148.466 76.2264C148.351 76.2939 148.222 76.3286 148.09 76.3268Z" fill="#14142B"/>
<path d="M193.241 153.951C199.952 154.333 213.17 153.078 213.17 153.078C208.569 139.4 209.73 122.612 207.325 114.206C204.919 105.799 200.07 96.2927 192.743 91.518C185.415 86.7434 167.992 84.4689 161.057 92.363C162.188 94.1925 162.006 96.0753 160.797 97.4022C162.028 101.028 160.456 103.582 158.771 105.223C160.859 108.894 186.216 122.996 194.42 122.295L194.556 129.653C194.62 131.565 194.986 133.503 196.894 133.346C202.048 132.935 203.468 137.447 202.887 140.888C202.256 144.644 196.529 146.992 195.486 147.964C194.87 148.529 193.481 150.485 193.498 151.541C193.541 154.318 193.241 153.951 193.241 153.951Z" fill="#14142B"/>
<path d="M196.216 154.742C195.19 154.742 194.242 154.723 193.381 154.677C193.251 154.696 193.12 154.679 192.998 154.633C192.876 154.585 192.768 154.507 192.686 154.406C192.597 154.298 192.542 154.167 192.528 154.028C192.513 153.89 192.539 153.75 192.602 153.625C192.633 153.563 192.673 153.507 192.721 153.457C192.785 152.827 192.805 152.192 192.778 151.56C192.756 150.159 194.374 148.021 194.993 147.447C195.484 147.055 196.008 146.706 196.56 146.405C198.503 145.242 201.753 143.296 202.178 140.776C202.454 139.135 202.272 136.861 200.93 135.396C200.002 134.371 198.662 133.936 196.947 134.069C196.606 134.11 196.259 134.078 195.93 133.977C195.601 133.875 195.298 133.706 195.038 133.481C194.055 132.603 193.879 130.989 193.836 129.678L193.713 123.037C188.194 122.994 178.171 118.183 173.975 116.037C167.055 112.501 159.397 107.772 158.148 105.577C158.069 105.439 158.038 105.279 158.06 105.121C158.083 104.964 158.157 104.819 158.271 104.708C160.414 102.62 161.019 100.306 160.117 97.6319C160.075 97.5108 160.068 97.3807 160.094 97.2556C160.12 97.1304 160.18 97.0145 160.266 96.9203C161.292 95.7881 161.365 94.2253 160.447 92.7404C160.365 92.6097 160.329 92.4562 160.342 92.3029C160.355 92.1496 160.417 92.0046 160.518 91.8892C163.771 88.1852 169.542 86.2615 176.775 86.4728C182.841 86.649 189.263 88.3945 193.135 90.9171C202.308 96.8935 206.597 109.056 208.014 114.007C209.04 117.549 209.411 122.415 209.86 128.043C210.476 135.946 211.185 144.904 213.857 152.848C213.892 152.95 213.904 153.06 213.89 153.167C213.877 153.275 213.838 153.379 213.779 153.47C213.721 153.559 213.641 153.636 213.548 153.692C213.455 153.747 213.351 153.782 213.242 153.792C212.769 153.836 203.138 154.742 196.216 154.742ZM194.185 153.275C199.903 153.467 209.288 152.7 212.209 152.453C209.711 144.566 209.027 135.87 208.423 128.167C207.985 122.612 207.603 117.815 206.634 114.413C205.262 109.616 201.122 97.8432 192.352 92.1292C185.731 87.8222 168.971 85.1786 161.938 92.4758C162.828 94.2417 162.702 96.1245 161.6 97.5724C162.42 100.395 161.771 103.046 159.711 105.296C161.245 107.013 166.966 110.854 174.629 114.77C183.551 119.322 190.934 121.873 194.357 121.579C194.455 121.571 194.553 121.582 194.647 121.614C194.74 121.645 194.825 121.695 194.899 121.761C194.971 121.827 195.031 121.907 195.071 121.996C195.112 122.085 195.134 122.182 195.137 122.28L195.27 129.642C195.288 130.175 195.346 131.829 195.994 132.41C196.109 132.508 196.244 132.578 196.39 132.618C196.536 132.657 196.688 132.664 196.837 132.638C198.984 132.47 200.765 133.089 201.989 134.428C203.679 136.274 203.925 139.04 203.593 141.015C203.06 144.186 199.453 146.348 197.299 147.639C196.837 147.893 196.393 148.18 195.971 148.497C195.402 149.029 194.201 150.807 194.214 151.538C194.226 152.267 194.215 152.848 194.185 153.275Z" fill="#14142B"/>
<path d="M67.6349 261.7C67.2757 261.707 66.919 261.641 66.5869 261.503C66.2548 261.367 65.9546 261.162 65.7049 260.905C64.8046 259.993 64.7902 258.73 64.7779 257.623C64.7779 257.444 64.7779 257.266 64.7779 257.092C64.6836 254.288 63.4284 250.412 62.4213 247.297C62.1774 246.539 61.9456 245.825 61.7445 245.167C57.8601 232.495 61.2134 221.02 65.4158 210.506C71.462 195.382 84.1923 173.142 98.6412 152.464C98.7043 152.374 98.7875 152.298 98.8842 152.246C98.9809 152.192 99.0887 152.162 99.1991 152.157C99.309 152.151 99.4187 152.172 99.5195 152.217C99.6202 152.261 99.7092 152.329 99.7795 152.413C108.161 162.307 120.034 168.589 132.929 169.951C133.046 169.963 133.156 170.003 133.254 170.068C133.351 170.132 133.432 170.22 133.487 170.322C133.543 170.425 133.573 170.539 133.574 170.656C133.575 170.774 133.548 170.889 133.495 170.993C133.275 171.421 111.394 214.082 110.256 216.715C109.536 218.378 109.552 219.524 109.872 219.886C110.155 220.205 110.863 220.057 111.259 219.941C111.349 219.914 111.444 219.904 111.538 219.915C111.631 219.924 111.722 219.952 111.805 219.998C111.888 220.042 111.962 220.103 112.021 220.176C112.081 220.249 112.125 220.334 112.152 220.424C112.179 220.515 112.188 220.609 112.178 220.702C112.168 220.797 112.14 220.888 112.095 220.971C112.051 221.054 111.99 221.127 111.917 221.185C111.843 221.245 111.759 221.29 111.669 221.317C110.069 221.789 109.226 221.317 108.798 220.837C107.991 219.927 108.043 218.216 108.939 216.144C110.014 213.657 128.443 177.696 131.744 171.261C119.183 169.676 107.636 163.552 99.277 154.044C85.1049 174.422 72.6741 196.193 66.7407 211.038C62.6388 221.293 59.3573 232.493 63.1085 244.74C63.3136 245.387 63.5371 246.096 63.7791 246.847C64.8046 250.049 66.1029 254.026 66.2033 257.036C66.2033 257.22 66.2033 257.412 66.2033 257.602C66.2136 258.526 66.2239 259.397 66.7161 259.893C67.5939 260.781 69.1916 259.947 71.0333 258.849L71.101 258.81C74.4051 256.841 78.2794 256.484 82.0305 256.145C82.8899 256.064 83.78 255.982 84.6393 255.882C89.0386 255.369 93.6635 255.077 98.1346 254.798C108.002 254.183 117.324 253.594 123.737 250.787C123.912 250.71 124.109 250.707 124.286 250.777C124.464 250.847 124.606 250.983 124.682 251.158C124.759 251.333 124.762 251.53 124.692 251.708C124.622 251.885 124.486 252.027 124.311 252.103C117.665 255.009 108.223 255.602 98.2248 256.23C93.7722 256.509 89.1679 256.798 84.8076 257.309C83.9298 257.412 83.0314 257.493 82.1618 257.574C78.5727 257.906 74.8604 258.248 71.8332 260.049L71.7676 260.088C70.619 260.773 69.0604 261.7 67.6349 261.7Z" fill="#14142B"/>
<path d="M127.787 181.254H127.744C121.169 180.874 114.426 178.955 108.244 175.702C102.1 172.481 96.686 168.029 92.3388 162.623C92.2202 162.474 92.1657 162.284 92.1872 162.095C92.2088 161.905 92.3046 161.732 92.4537 161.613C92.6027 161.496 92.7927 161.441 92.9819 161.463C93.1712 161.484 93.3442 161.58 93.4627 161.729C101.755 172.144 114.924 179.076 127.828 179.823C128.018 179.827 128.199 179.909 128.33 180.047C128.461 180.186 128.532 180.37 128.526 180.56C128.52 180.751 128.44 180.931 128.301 181.062C128.163 181.194 127.978 181.264 127.787 181.258V181.254Z" fill="#14142B"/>
<path d="M91.6372 192.884H91.6228C89.2827 192.835 87.7035 190.522 87.5824 188.407C87.4655 186.382 88.3311 184.51 89.2232 182.772C91.7313 177.908 94.6112 173.245 97.8372 168.824C97.892 168.746 97.9618 168.679 98.0426 168.629C98.1235 168.578 98.2136 168.544 98.3078 168.528C98.402 168.513 98.4985 168.516 98.5913 168.538C98.6843 168.56 98.7718 168.6 98.8489 168.657C98.926 168.713 98.9911 168.784 99.0404 168.866C99.0896 168.948 99.122 169.039 99.1357 169.133C99.1495 169.228 99.1441 169.325 99.1202 169.417C99.0961 169.509 99.0539 169.595 98.996 169.671C95.8161 174.036 92.9773 178.638 90.505 183.438C89.6991 185.002 88.9197 186.669 89.0161 188.333C89.1022 189.816 90.1811 191.426 91.6515 191.457C91.8419 191.459 92.0238 191.537 92.157 191.672C92.2903 191.809 92.3641 191.992 92.3623 192.182C92.3603 192.372 92.2828 192.554 92.1469 192.687C92.011 192.82 91.8276 192.895 91.6372 192.892V192.884Z" fill="#14142B"/>
<path d="M257.844 224.284C257.719 224.283 257.595 224.25 257.486 224.189C253.892 222.111 249.956 215.5 245.794 208.505C241.974 202.092 238.024 195.458 234.289 192.284C226.438 185.61 214.467 182.302 198.714 182.439C192.636 189.383 183.141 193.683 173.866 193.683C169.255 193.655 164.702 192.654 160.503 190.745C156.305 188.836 152.558 186.063 149.505 182.607C142.891 182.878 130.853 183.473 122.311 192.768C122.248 192.839 122.171 192.896 122.085 192.937C121.999 192.978 121.906 193.001 121.81 193.006C121.716 193.011 121.621 192.997 121.532 192.964C121.442 192.931 121.36 192.882 121.29 192.817C121.22 192.753 121.164 192.676 121.124 192.588C121.084 192.502 121.063 192.409 121.059 192.314C121.056 192.218 121.071 192.124 121.105 192.035C121.138 191.947 121.19 191.865 121.255 191.796C130.299 181.951 142.903 181.441 149.675 181.163H149.792C149.9 181.16 150.009 181.179 150.109 181.223C150.209 181.267 150.298 181.332 150.368 181.416C153.287 184.791 156.893 187.504 160.946 189.372C164.998 191.24 169.403 192.22 173.866 192.245C182.852 192.245 192.036 188.036 197.832 181.26C197.898 181.182 197.98 181.12 198.073 181.077C198.165 181.034 198.267 181.01 198.368 181.009C214.646 180.805 227.037 184.238 235.214 191.188C239.132 194.517 243.143 201.254 247.023 207.769C250.903 214.282 254.936 221.053 258.205 222.945C258.342 223.025 258.448 223.148 258.508 223.294C258.568 223.44 258.578 223.602 258.537 223.753C258.496 223.906 258.406 224.042 258.281 224.137C258.155 224.234 258.002 224.287 257.844 224.287V224.284Z" fill="#14142B"/>
<path d="M176.089 218.92C175.303 218.923 174.524 218.771 173.796 218.474C173.623 218.399 173.486 218.26 173.415 218.085C173.343 217.91 173.345 217.716 173.416 217.541C173.488 217.367 173.626 217.228 173.8 217.153C173.972 217.08 174.168 217.077 174.343 217.147C176.377 217.987 178.953 217.235 180.212 215.432C181.299 213.871 181.426 211.825 181.465 209.69C181.568 203.905 181.363 198.118 180.85 192.356C180.842 192.261 180.851 192.166 180.88 192.076C180.908 191.986 180.954 191.902 181.014 191.828C181.075 191.756 181.15 191.697 181.234 191.652C181.318 191.609 181.41 191.582 181.504 191.574C181.598 191.566 181.693 191.575 181.783 191.604C181.873 191.632 181.957 191.678 182.03 191.739C182.103 191.8 182.162 191.874 182.207 191.958C182.25 192.042 182.277 192.134 182.285 192.229C182.8 198.042 183.006 203.88 182.901 209.717C182.858 211.988 182.707 214.366 181.389 216.255C180.209 217.941 178.14 218.92 176.089 218.92Z" fill="#14142B"/>
<path d="M165.243 280.259H165.215C165.036 280.254 164.865 280.192 164.726 280.08C164.587 279.969 164.488 279.816 164.444 279.643C164.203 278.745 163.943 277.822 163.692 276.93C162.522 272.767 161.31 268.464 161.219 264.138C161.15 260.857 163.006 258.892 164.786 258.722C166.238 258.583 168.143 259.619 168.724 262.999C169.674 268.522 166.057 279.589 166.025 279.697C165.971 279.862 165.866 280.004 165.725 280.104C165.585 280.206 165.417 280.259 165.243 280.259ZM165.066 260.158H164.923C163.768 260.269 162.606 261.778 162.655 264.114C162.742 268.257 163.929 272.472 165.075 276.547C165.141 276.783 165.209 277.021 165.28 277.261C166.306 273.661 167.946 266.887 167.315 263.248C166.979 261.322 166.117 260.147 165.066 260.147V260.158Z" fill="#14142B"/>
<path d="M198.264 247.002H188.6C188.41 247.002 188.226 246.926 188.092 246.79C187.958 246.656 187.882 246.473 187.882 246.283C187.882 246.093 187.958 245.911 188.092 245.775C188.226 245.641 188.41 245.565 188.6 245.565H198.264C198.455 245.565 198.637 245.641 198.772 245.775C198.906 245.911 198.982 246.093 198.982 246.283C198.982 246.473 198.906 246.656 198.772 246.79C198.637 246.926 198.455 247.002 198.264 247.002Z" fill="#14142B"/>
<path d="M184.037 252.674C183.847 252.681 183.662 252.613 183.522 252.484C183.382 252.354 183.299 252.174 183.292 251.984C183.284 251.793 183.352 251.607 183.482 251.469C183.611 251.329 183.791 251.246 183.981 251.239C190.35 250.731 196.742 250.595 203.127 250.828C203.318 250.835 203.497 250.917 203.627 251.057C203.757 251.196 203.826 251.381 203.819 251.571C203.812 251.761 203.731 251.942 203.591 252.072C203.452 252.201 203.266 252.27 203.076 252.263C196.746 252.034 190.408 252.171 184.094 252.674H184.037Z" fill="#14142B"/>
<path d="M189.671 257.715C189.481 257.718 189.296 257.647 189.159 257.515C189.022 257.384 188.943 257.202 188.938 257.011C188.935 256.821 189.007 256.637 189.139 256.499C189.271 256.363 189.451 256.283 189.642 256.28L196.615 255.991C196.709 255.986 196.804 256.001 196.892 256.034C196.981 256.066 197.062 256.115 197.132 256.18C197.2 256.244 197.256 256.321 197.297 256.406C197.337 256.491 197.359 256.584 197.363 256.679C197.366 256.772 197.352 256.867 197.319 256.955C197.287 257.044 197.238 257.126 197.174 257.195C197.109 257.265 197.032 257.321 196.947 257.36C196.861 257.4 196.769 257.422 196.674 257.426L189.701 257.715H189.671Z" fill="#14142B"/>
<path d="M223.121 313.521C223.007 313.522 222.895 313.494 222.793 313.442C222.709 313.399 222.635 313.339 222.574 313.267C222.513 313.196 222.468 313.112 222.439 313.022C222.411 312.932 222.4 312.837 222.408 312.744C222.415 312.651 222.442 312.559 222.485 312.476C225.908 305.836 233.704 305.707 237.118 307.122C237.895 307.444 238.669 307.808 239.421 308.16C241.803 309.276 244.054 310.33 246.549 310.258C249.741 310.17 252.239 308.314 254.883 306.361C256.034 305.475 257.233 304.653 258.476 303.901C262.434 301.595 267.463 300.793 272.129 301.583C272.694 300.592 273.406 299.694 274.24 298.917C276.611 296.722 282.058 293.643 291.927 297.686C293.157 298.192 294.305 298.695 295.414 299.183C300.266 301.322 304.458 303.17 312.272 303.17C312.462 303.17 312.645 303.246 312.78 303.38C312.915 303.515 312.99 303.698 312.99 303.888C312.99 304.078 312.915 304.261 312.78 304.395C312.645 304.531 312.462 304.605 312.272 304.605C304.157 304.605 299.835 302.703 294.84 300.503C293.742 300.02 292.608 299.52 291.39 299.021C282.258 295.278 277.342 298.013 275.223 299.975C274.61 300.542 274.071 301.184 273.618 301.886C274.5 302.104 275.365 302.384 276.206 302.725C277.872 303.404 280.044 304.891 280.688 306.85C280.844 307.299 280.898 307.778 280.846 308.25C280.793 308.723 280.636 309.178 280.384 309.581C279.406 311.18 276.984 311.913 274.873 311.255C273.972 310.965 273.154 310.463 272.485 309.792C271.818 309.122 271.321 308.3 271.036 307.397C270.666 306.255 270.806 304.612 271.483 302.924C267.262 302.308 262.767 303.062 259.206 305.135C258.01 305.863 256.857 306.658 255.748 307.512C253.04 309.524 250.242 311.602 246.597 311.705C243.764 311.786 241.25 310.607 238.82 309.468C238.085 309.124 237.324 308.769 236.578 308.46C233.59 307.229 226.766 307.333 223.77 313.144C223.707 313.261 223.612 313.357 223.498 313.424C223.384 313.491 223.254 313.525 223.121 313.521ZM272.909 303.182C272.236 304.723 272.135 306.147 272.393 306.946C272.611 307.628 272.988 308.248 273.492 308.756C273.995 309.265 274.612 309.648 275.291 309.873C276.756 310.33 278.522 309.848 279.152 308.821C279.295 308.594 279.385 308.339 279.413 308.073C279.442 307.807 279.408 307.537 279.316 307.286C278.924 306.095 277.42 304.764 275.656 304.045C274.765 303.684 273.847 303.396 272.909 303.182Z" fill="#14142B"/>
<path d="M269.773 174.916C269.734 174.915 269.695 174.912 269.655 174.906C269.469 174.874 269.302 174.771 269.191 174.618C269.08 174.464 269.034 174.272 269.063 174.086C270.934 162.805 271.1 153.867 271.188 149.064V148.756C271.198 148.153 271.09 147.555 270.872 146.992C267.547 138.271 269.479 132.599 271.522 126.592C272.658 123.253 273.833 119.801 274.285 115.516C274.901 109.671 276.658 105.772 279.501 103.93C281.875 102.392 284.833 102.562 286.712 104.341C289.015 106.533 288.967 110.288 286.594 114.39C284.57 117.877 283.382 122.407 285.29 124.661C285.352 124.733 285.397 124.817 285.426 124.907C285.454 124.997 285.465 125.092 285.458 125.185C285.45 125.279 285.423 125.37 285.38 125.454C285.337 125.538 285.277 125.613 285.205 125.674C285.134 125.734 285.05 125.781 284.96 125.809C284.87 125.838 284.775 125.849 284.681 125.841C284.588 125.832 284.495 125.807 284.413 125.764C284.329 125.72 284.254 125.661 284.193 125.589C281.674 122.61 283.244 117.307 285.352 113.67C287.374 110.184 287.511 107.091 285.723 105.387C284.332 104.066 282.097 103.961 280.281 105.136C277.821 106.732 276.282 110.276 275.713 115.67C275.245 120.112 274.043 123.644 272.882 127.057C270.831 133.06 269.073 138.245 272.215 146.484C272.499 147.217 272.637 147.998 272.626 148.784V149.092C272.536 153.933 272.369 162.943 270.483 174.319C270.453 174.486 270.367 174.639 270.236 174.747C270.107 174.857 269.942 174.916 269.773 174.916Z" fill="#14142B"/>
<path d="M292.111 176.153C291.921 176.153 291.739 176.077 291.604 175.942C291.47 175.808 291.394 175.626 291.394 175.434C291.394 172.552 291.188 166.651 291.002 161.444C290.918 159.08 290.84 156.847 290.782 154.993C290.75 153.895 290.782 148.251 294.895 144.861C296.946 143.159 298.884 141.334 300.748 139.57C304.452 136.065 307.949 132.752 311.956 130.884C312.351 130.702 312.803 130.505 313.282 130.3C317.853 128.327 321.836 126.216 320.39 122.131C319.9 120.742 319.123 119.807 318.081 119.349C316.971 118.864 315.541 118.94 314.059 119.581C312.037 120.448 309.719 122.547 308.335 123.8C306.95 125.053 304.718 126.084 303.37 126.717C302.989 126.893 302.661 127.047 302.469 127.15C302.386 127.199 302.293 127.231 302.197 127.244C302.101 127.257 302.003 127.251 301.91 127.224C301.817 127.199 301.729 127.154 301.653 127.094C301.578 127.033 301.515 126.958 301.469 126.873C301.422 126.787 301.394 126.693 301.386 126.597C301.377 126.5 301.389 126.403 301.419 126.311C301.448 126.219 301.497 126.133 301.561 126.06C301.624 125.988 301.702 125.928 301.79 125.886C302.017 125.762 302.345 125.61 302.762 125.415C304.038 124.817 306.175 123.819 307.37 122.736C309.25 121.037 311.425 119.149 313.493 118.263C315.338 117.469 317.184 117.389 318.658 118.034C320.055 118.65 321.118 119.899 321.733 121.651C323.748 127.342 317.546 130.018 313.842 131.617C313.371 131.821 312.929 132.01 312.551 132.186C308.757 133.956 305.34 137.189 301.725 140.612C299.844 142.394 297.897 144.234 295.799 145.969C292.21 148.93 292.179 153.968 292.208 154.95C292.265 156.796 292.343 159.031 292.425 161.392C292.609 166.612 292.819 172.527 292.819 175.434C292.819 175.623 292.745 175.804 292.613 175.938C292.48 176.073 292.3 176.15 292.111 176.153Z" fill="#14142B"/>
<path d="M124.189 169.731C124.086 169.731 123.984 169.708 123.89 169.663C123.804 169.625 123.727 169.569 123.664 169.5C123.6 169.43 123.55 169.349 123.517 169.261C123.484 169.172 123.469 169.079 123.474 168.984C123.477 168.89 123.5 168.798 123.539 168.712C127.847 159.397 134.6 148.303 137.363 144.76C138.244 143.619 139.43 142.752 140.786 142.261C142.806 141.537 144.683 139.503 145.942 136.676C147.202 133.85 147.692 130.524 147.265 127.627C145.673 116.798 149.677 111.382 153.313 108.742L153.818 108.379C156.279 106.601 159.355 104.39 160.126 101.673C160.916 98.9039 159.957 95.2471 157.268 94.2093C154.357 93.0895 150.356 94.759 148.17 97.0211C141.278 104.146 139.404 111.809 137.899 117.961C137.179 120.907 136.557 123.452 135.521 125.597C134.62 127.457 128.367 134.621 121.128 142.936C116.074 148.746 110.834 154.747 106.845 159.605C106.786 159.681 106.712 159.744 106.629 159.792C106.545 159.839 106.453 159.868 106.357 159.878C106.262 159.889 106.165 159.881 106.073 159.853C105.981 159.826 105.896 159.78 105.822 159.719C105.748 159.658 105.687 159.582 105.642 159.498C105.598 159.413 105.571 159.32 105.563 159.224C105.555 159.128 105.566 159.033 105.596 158.94C105.626 158.849 105.674 158.765 105.737 158.693C109.745 153.82 114.985 147.81 120.051 141.998C126.926 134.113 133.419 126.666 134.233 124.975C135.204 122.967 135.81 120.492 136.51 117.625C138.056 111.298 139.982 103.426 147.144 96.0202C149.621 93.4587 154.193 91.4835 157.788 92.868C161.322 94.2298 162.473 98.7009 161.513 102.064C160.598 105.262 157.308 107.635 154.662 109.542L154.162 109.903C150.846 112.309 147.205 117.299 148.693 127.418C149.156 130.579 148.635 134.164 147.256 137.263C145.844 140.446 143.662 142.761 141.274 143.621C140.174 144.019 139.21 144.722 138.495 145.65C135.773 149.136 129.102 160.098 124.842 169.321C124.783 169.444 124.691 169.549 124.575 169.621C124.46 169.694 124.326 169.732 124.189 169.731Z" fill="#14142B"/>
<path d="M139.155 111.454H139.082C138.893 111.434 138.719 111.34 138.598 111.193C138.477 111.045 138.421 110.856 138.44 110.666C138.797 107.159 141.239 99.2834 146.274 93.0772C148.549 90.2715 152.669 87.6381 156.343 88.481C158.336 88.9384 161.033 90.2981 162.074 92.6178C162.739 94.1027 162.612 95.7578 161.706 97.4108C161.614 97.5779 161.46 97.7016 161.276 97.7549C161.094 97.8082 160.897 97.7866 160.73 97.6949C160.564 97.6033 160.44 97.4491 160.386 97.2662C160.334 97.0832 160.355 96.8866 160.447 96.7197C161.138 95.4604 161.244 94.277 160.764 93.2064C159.993 91.4836 157.825 90.294 156.021 89.8798C153.085 89.205 149.457 91.4324 147.388 93.9816C142.808 99.628 140.234 107.223 139.869 110.812C139.851 110.988 139.767 111.151 139.635 111.269C139.503 111.387 139.333 111.453 139.155 111.454Z" fill="#14142B"/>
<path d="M150.28 91.227C150.141 91.2277 150.004 91.1877 149.887 91.1118C149.77 91.0358 149.678 90.9273 149.622 90.7997C149.566 90.6721 149.547 90.5307 149.57 90.3931C149.594 90.2554 149.657 90.1276 149.751 90.0251C154.538 84.7952 159.163 86.0423 160.467 86.5386C162.485 87.3241 163.841 88.9156 163.841 90.4989C163.841 90.6893 163.765 90.8719 163.631 91.0065C163.496 91.1412 163.314 91.2168 163.124 91.2168C162.933 91.2168 162.75 91.1412 162.616 91.0065C162.481 90.8719 162.406 90.6893 162.406 90.4989C162.406 89.5186 161.395 88.448 159.944 87.8779C158.855 87.4553 154.979 86.4278 150.807 90.9851C150.742 91.0598 150.66 91.1202 150.569 91.1618C150.478 91.2035 150.38 91.2258 150.28 91.227Z" fill="#14142B"/>
<path d="M156.549 181.727C156.549 181.727 153.036 181.688 149.816 181.883C151.897 183.974 154.117 185.919 156.464 187.705L156.549 181.727Z" fill="#14142B"/>
<path d="M156.464 188.424C156.307 188.423 156.154 188.372 156.029 188.276C153.654 186.468 151.404 184.499 149.3 182.382C149.205 182.283 149.142 182.158 149.115 182.024C149.088 181.89 149.101 181.751 149.151 181.624C149.2 181.497 149.286 181.386 149.395 181.305C149.506 181.225 149.637 181.177 149.773 181.168C152.983 180.973 156.525 181.009 156.56 181.009C156.751 181.014 156.932 181.092 157.067 181.227C157.133 181.295 157.185 181.375 157.22 181.463C157.256 181.55 157.274 181.645 157.271 181.739L157.185 187.716C157.182 187.904 157.105 188.084 156.97 188.216C156.836 188.349 156.657 188.423 156.468 188.424H156.464ZM151.491 182.521C152.446 183.43 153.951 184.789 155.766 186.25L155.821 182.443C154.905 182.443 153.25 182.453 151.491 182.521Z" fill="#14142B"/>
<path d="M192.837 181.725H198.376C196.838 183.486 195.086 185.045 193.157 186.366L192.837 181.725Z" fill="#14142B"/>
<path d="M193.159 187.078C192.978 187.077 192.803 187.008 192.67 186.884C192.538 186.761 192.457 186.59 192.444 186.409L192.122 181.766C192.115 181.668 192.128 181.569 192.16 181.477C192.193 181.383 192.244 181.298 192.312 181.227C192.38 181.155 192.46 181.098 192.551 181.058C192.641 181.019 192.739 180.998 192.837 181H198.375C198.511 181 198.645 181.039 198.759 181.112C198.875 181.185 198.966 181.29 199.023 181.414C199.081 181.537 199.102 181.674 199.085 181.809C199.067 181.945 199.012 182.072 198.925 182.177C197.346 183.991 195.544 185.596 193.559 186.953C193.44 187.032 193.301 187.077 193.159 187.078ZM193.6 182.443L193.781 185.035C194.822 184.242 195.805 183.376 196.726 182.445L193.6 182.443Z" fill="#14142B"/>
<path d="M175.964 203.342C177.021 203.342 177.877 202.486 177.877 201.429C177.877 200.372 177.021 199.516 175.964 199.516C174.907 199.516 174.05 200.372 174.05 201.429C174.05 202.486 174.907 203.342 175.964 203.342Z" fill="#FF7378"/>
<path d="M175.962 204.062C175.441 204.062 174.931 203.907 174.498 203.618C174.065 203.328 173.727 202.917 173.529 202.435C173.329 201.954 173.278 201.423 173.379 200.912C173.482 200.401 173.733 199.932 174.102 199.565C174.471 199.196 174.94 198.946 175.451 198.845C175.964 198.745 176.493 198.797 176.974 198.998C177.455 199.198 177.866 199.537 178.155 199.971C178.443 200.404 178.597 200.913 178.596 201.435C178.593 202.133 178.314 202.8 177.821 203.292C177.327 203.785 176.659 204.061 175.962 204.062ZM175.962 200.233C175.724 200.232 175.493 200.302 175.296 200.434C175.098 200.566 174.945 200.752 174.854 200.972C174.763 201.19 174.739 201.431 174.785 201.664C174.831 201.897 174.945 202.11 175.113 202.277C175.281 202.445 175.495 202.56 175.727 202.605C175.959 202.652 176.2 202.628 176.42 202.537C176.638 202.446 176.826 202.292 176.956 202.095C177.088 201.898 177.158 201.666 177.157 201.429C177.157 201.112 177.031 200.808 176.807 200.584C176.583 200.359 176.279 200.233 175.962 200.233Z" fill="#FF7378"/>
<path d="M175.964 212.965C177.021 212.965 177.877 212.109 177.877 211.052C177.877 209.995 177.021 209.139 175.964 209.139C174.907 209.139 174.05 209.995 174.05 211.052C174.05 212.109 174.907 212.965 175.964 212.965Z" fill="#FF7378"/>
<path d="M175.962 213.684C175.442 213.684 174.932 213.528 174.501 213.239C174.068 212.951 173.731 212.539 173.531 212.058C173.332 211.578 173.279 211.049 173.381 210.538C173.483 210.028 173.733 209.559 174.102 209.191C174.469 208.823 174.938 208.572 175.449 208.471C175.959 208.369 176.489 208.422 176.969 208.62C177.45 208.82 177.861 209.157 178.15 209.59C178.439 210.023 178.593 210.531 178.593 211.052C178.593 211.749 178.315 212.419 177.822 212.911C177.328 213.405 176.66 213.682 175.962 213.684ZM175.962 209.856C175.726 209.856 175.495 209.926 175.297 210.058C175.101 210.189 174.947 210.376 174.858 210.594C174.767 210.812 174.743 211.053 174.789 211.285C174.835 211.517 174.95 211.729 175.117 211.897C175.283 212.064 175.497 212.179 175.729 212.224C175.96 212.271 176.202 212.247 176.42 212.156C176.638 212.065 176.825 211.913 176.956 211.715C177.087 211.519 177.157 211.288 177.157 211.052C177.157 210.734 177.032 210.431 176.807 210.206C176.583 209.982 176.279 209.856 175.962 209.856Z" fill="#FF7378"/>
<path d="M99.8921 180.169C100.949 180.169 101.806 179.312 101.806 178.256C101.806 177.199 100.949 176.341 99.8921 176.341C98.8353 176.341 97.9785 177.199 97.9785 178.256C97.9785 179.312 98.8353 180.169 99.8921 180.169Z" fill="#FF7378"/>
<path d="M99.888 180.886C99.4027 180.886 98.9268 180.752 98.5139 180.497C98.0707 180.224 97.7182 179.826 97.5012 179.352C97.2843 178.88 97.2125 178.352 97.295 177.839C97.3773 177.325 97.6103 176.847 97.9644 176.466C98.3184 176.084 98.7776 175.816 99.2839 175.696C99.7902 175.576 100.321 175.607 100.809 175.789C101.297 175.97 101.72 176.292 102.025 176.713C102.33 177.136 102.503 177.637 102.523 178.158C102.542 178.678 102.407 179.192 102.134 179.636C101.898 180.018 101.567 180.335 101.174 180.554C100.781 180.773 100.338 180.888 99.888 180.886ZM99.888 177.06C99.6825 177.059 99.4804 177.111 99.3008 177.21C99.1213 177.311 98.9703 177.454 98.8625 177.629C98.7232 177.855 98.6628 178.121 98.6906 178.385C98.7185 178.649 98.8332 178.896 99.0166 179.089C99.2 179.28 99.4419 179.406 99.7042 179.446C99.9667 179.485 100.235 179.436 100.467 179.308C100.699 179.178 100.882 178.977 100.986 178.733C101.091 178.489 101.112 178.217 101.046 177.96C100.98 177.703 100.83 177.475 100.621 177.312C100.411 177.15 100.153 177.06 99.888 177.06Z" fill="#FF7378"/>
<path d="M94.8511 188.366C95.9079 188.366 96.7646 187.509 96.7646 186.452C96.7646 185.395 95.9079 184.539 94.8511 184.539C93.7943 184.539 92.9375 185.395 92.9375 186.452C92.9375 187.509 93.7943 188.366 94.8511 188.366Z" fill="#FF7378"/>
<path d="M94.8467 189.085C94.3614 189.085 93.8855 188.949 93.4726 188.695C92.9307 188.361 92.5276 187.843 92.3378 187.237C92.148 186.63 92.1843 185.974 92.4399 185.392C92.6955 184.81 93.1533 184.34 93.7286 184.069C94.3039 183.797 94.9578 183.744 95.5697 183.918C96.1815 184.09 96.7099 184.48 97.0572 185.013C97.4046 185.545 97.5473 186.186 97.4592 186.816C97.3711 187.446 97.058 188.022 96.5778 188.44C96.0976 188.856 95.4828 189.086 94.8467 189.085ZM94.8467 185.255C94.7522 185.256 94.6579 185.266 94.5658 185.288C94.4128 185.323 94.2686 185.39 94.1416 185.482C94.0144 185.574 93.907 185.691 93.8254 185.825C93.7409 185.959 93.6838 186.109 93.6574 186.264C93.631 186.42 93.6358 186.58 93.6715 186.734C93.7073 186.888 93.7733 187.034 93.8657 187.162C93.9581 187.29 94.075 187.399 94.2097 187.482C94.3445 187.565 94.4944 187.621 94.6506 187.645C94.8069 187.67 94.9665 187.663 95.1202 187.625C95.2738 187.588 95.4185 187.52 95.5459 187.426C95.6732 187.332 95.7806 187.215 95.8619 187.078C95.9729 186.897 96.0337 186.69 96.038 186.477C96.0424 186.265 95.9903 186.056 95.887 185.871C95.7837 185.685 95.6329 185.53 95.4501 185.421C95.2673 185.314 95.0592 185.256 94.8467 185.255Z" fill="#FF7378"/>
<path d="M123.418 308.919H123.372C123.277 308.913 123.186 308.888 123.101 308.848C123.017 308.806 122.941 308.747 122.879 308.676C122.816 308.606 122.77 308.523 122.739 308.433C122.709 308.345 122.696 308.25 122.703 308.156C125.829 260.83 122.719 240.391 122.687 240.189C122.656 240.001 122.703 239.809 122.815 239.655C122.927 239.501 123.096 239.398 123.284 239.368C123.473 239.339 123.664 239.385 123.818 239.497C123.972 239.609 124.076 239.777 124.105 239.966C124.137 240.172 127.274 260.73 124.135 308.25C124.122 308.432 124.041 308.601 123.908 308.726C123.775 308.85 123.6 308.919 123.418 308.919Z" fill="#14142B"/>
<path d="M108.931 155.316C105.763 154.246 102.515 153.428 99.2173 152.873C99.2173 152.873 102.593 156.529 104.47 158.225C104.656 158.393 105.401 159.026 105.553 159.148L108.931 155.316Z" fill="#14142B"/>
<path d="M105.553 159.867C105.388 159.867 105.228 159.811 105.1 159.707C104.948 159.583 104.193 158.944 103.988 158.758C102.109 157.061 98.83 153.511 98.6905 153.359C98.5894 153.248 98.5253 153.109 98.5069 152.961C98.4885 152.813 98.5169 152.662 98.588 152.532C98.6591 152.4 98.7694 152.294 98.9036 152.228C99.0378 152.163 99.1892 152.141 99.3366 152.165C102.679 152.723 105.972 153.551 109.181 154.64C109.291 154.68 109.391 154.746 109.47 154.832C109.549 154.919 109.606 155.024 109.635 155.137C109.664 155.25 109.665 155.369 109.638 155.483C109.611 155.598 109.556 155.703 109.479 155.791L106.101 159.624C106.032 159.701 105.948 159.763 105.853 159.805C105.759 159.847 105.656 159.868 105.553 159.867ZM101.246 153.982C102.378 155.173 103.912 156.75 104.952 157.692C105.038 157.77 105.258 157.961 105.479 158.148L107.676 155.656C105.562 154.99 103.416 154.432 101.246 153.982Z" fill="#14142B"/>
<path d="M126.31 164.656C126.31 164.656 130.241 167.105 132.845 170.663C129.892 170.57 126.972 170.015 124.19 169.021L126.31 164.656Z" fill="#14142B"/>
<path d="M132.834 171.381C129.803 171.285 126.805 170.716 123.95 169.69C123.855 169.655 123.767 169.601 123.694 169.53C123.621 169.46 123.563 169.375 123.526 169.281C123.487 169.187 123.47 169.087 123.473 168.985C123.477 168.885 123.501 168.786 123.545 168.696L125.664 164.335C125.71 164.245 125.771 164.166 125.848 164.101C125.925 164.036 126.015 163.989 126.112 163.961C126.209 163.933 126.31 163.926 126.41 163.94C126.509 163.954 126.604 163.989 126.69 164.042C126.856 164.145 130.767 166.605 133.424 170.234C133.502 170.341 133.548 170.467 133.56 170.599C133.571 170.731 133.545 170.864 133.485 170.982C133.426 171.101 133.335 171.2 133.222 171.269C133.109 171.339 132.979 171.376 132.847 171.376L132.834 171.381ZM125.193 168.593C127.168 169.226 129.205 169.647 131.27 169.85C129.875 168.297 128.307 166.909 126.595 165.712L125.193 168.593Z" fill="#14142B"/>
<path d="M175.111 148.208C174.964 148.209 174.821 148.165 174.7 148.081C173.199 147.072 171.494 146.402 169.707 146.119C167.919 145.835 166.092 145.945 164.352 146.441C164.261 146.467 164.166 146.477 164.073 146.466C163.978 146.457 163.887 146.429 163.805 146.385C163.722 146.339 163.648 146.278 163.589 146.205C163.529 146.133 163.485 146.049 163.458 145.958C163.431 145.868 163.422 145.772 163.432 145.679C163.442 145.585 163.47 145.494 163.515 145.412C163.56 145.328 163.62 145.255 163.694 145.196C163.766 145.136 163.851 145.092 163.941 145.065C165.886 144.499 167.932 144.372 169.933 144.691C171.933 145.01 173.838 145.767 175.511 146.911C175.638 146.997 175.734 147.122 175.784 147.268C175.834 147.414 175.836 147.571 175.791 147.718C175.744 147.864 175.653 147.992 175.528 148.083C175.405 148.174 175.254 148.222 175.1 148.221L175.111 148.208Z" fill="#14142B"/>
<path d="M153.529 123.013C153.355 123.015 153.185 122.954 153.052 122.841C152.919 122.728 152.832 122.571 152.807 122.398C152.782 122.225 152.821 122.05 152.915 121.903C153.011 121.757 153.155 121.651 153.323 121.603C155.761 120.894 158.025 119.689 159.975 118.064C160.047 117.998 160.131 117.947 160.222 117.914C160.314 117.883 160.411 117.869 160.508 117.875C160.605 117.882 160.699 117.907 160.785 117.951C160.873 117.995 160.95 118.056 161.012 118.13C161.074 118.205 161.12 118.291 161.148 118.385C161.176 118.478 161.186 118.575 161.175 118.672C161.163 118.768 161.134 118.862 161.085 118.946C161.037 119.031 160.973 119.104 160.896 119.163C158.792 120.917 156.347 122.218 153.718 122.984C153.656 123.001 153.593 123.012 153.529 123.013Z" fill="#14142B"/>
<path d="M182.024 123.013C181.955 123.013 181.887 123.002 181.819 122.984C179.189 122.217 176.745 120.916 174.642 119.163C174.563 119.104 174.499 119.031 174.451 118.946C174.404 118.862 174.373 118.768 174.362 118.672C174.351 118.575 174.36 118.478 174.388 118.385C174.416 118.291 174.463 118.205 174.525 118.13C174.588 118.056 174.664 117.995 174.751 117.951C174.838 117.907 174.932 117.882 175.029 117.875C175.126 117.869 175.224 117.883 175.315 117.914C175.407 117.947 175.491 117.998 175.562 118.064C177.513 119.689 179.777 120.894 182.216 121.603C182.384 121.651 182.528 121.757 182.624 121.903C182.718 122.05 182.757 122.225 182.732 122.398C182.707 122.571 182.619 122.728 182.487 122.841C182.354 122.954 182.184 123.015 182.01 123.013H182.024Z" fill="#14142B"/>
<path d="M155.247 155.218H142.704L144.312 143.21C144.312 143.21 145.62 146.811 149.394 146.811C149.394 146.811 150.325 152.358 155.247 155.218Z" fill="#14142B"/>
<path d="M155.247 155.936H142.705C142.601 155.936 142.499 155.914 142.406 155.872C142.312 155.829 142.229 155.766 142.162 155.689C142.094 155.611 142.044 155.52 142.015 155.42C141.986 155.322 141.978 155.219 141.993 155.116L143.6 143.107C143.623 142.95 143.696 142.803 143.812 142.692C143.926 142.58 144.075 142.51 144.234 142.493C144.393 142.476 144.554 142.512 144.689 142.596C144.825 142.68 144.929 142.808 144.984 142.958C145.032 143.083 146.187 146.088 149.394 146.088C149.563 146.087 149.728 146.148 149.857 146.256C149.987 146.366 150.073 146.518 150.102 146.684C150.112 146.736 151.056 151.941 155.61 154.591C155.748 154.67 155.854 154.793 155.915 154.939C155.975 155.084 155.986 155.247 155.945 155.399C155.903 155.552 155.813 155.686 155.687 155.783C155.561 155.879 155.408 155.93 155.25 155.93L155.247 155.936ZM143.522 154.501H153.02C150.19 152.039 149.136 148.805 148.81 147.503C148.021 147.433 147.254 147.205 146.557 146.83C145.859 146.456 145.244 145.942 144.751 145.323L143.522 154.501Z" fill="#14142B"/>
<path d="M161.78 107.967L148.09 118.304C148.09 118.304 149.449 112.151 153.147 109.776C158.294 106.472 158.771 105.223 158.771 105.223L161.78 107.967Z" fill="#14142B"/>
<path d="M148.09 119.022C147.982 119.022 147.876 118.998 147.779 118.952C147.682 118.906 147.596 118.839 147.53 118.755C147.462 118.671 147.414 118.573 147.39 118.469C147.365 118.364 147.365 118.255 147.388 118.15C147.446 117.885 148.856 111.677 152.76 109.171C157.132 106.363 157.993 105.131 158.107 104.946C158.137 104.835 158.198 104.735 158.28 104.656C158.362 104.576 158.465 104.52 158.576 104.493C158.697 104.465 158.824 104.47 158.943 104.506C159.062 104.542 159.169 104.608 159.255 104.698L162.262 107.442C162.339 107.513 162.401 107.6 162.442 107.697C162.483 107.795 162.5 107.9 162.496 108.005C162.491 108.111 162.464 108.214 162.414 108.307C162.365 108.4 162.296 108.482 162.212 108.545L148.522 118.882C148.396 118.974 148.245 119.023 148.09 119.022ZM158.872 106.287C158.186 107.046 156.71 108.338 153.539 110.379C151.432 111.733 150.12 114.481 149.423 116.401L160.656 107.912L158.872 106.287Z" fill="#14142B"/>
<path d="M220.591 308.919H220.574C220.48 308.917 220.387 308.896 220.3 308.859C220.214 308.821 220.137 308.767 220.072 308.698C220.006 308.63 219.955 308.55 219.921 308.462C219.887 308.375 219.871 308.28 219.872 308.187C220.361 284.976 222.604 266.068 223.343 259.856C223.855 255.534 224.879 253.293 226.566 252.823C228.634 252.238 230.874 254.638 232.792 257.065C241.784 268.431 251.395 272.972 257.139 275.684C259.724 276.913 261.591 277.787 262.555 278.84C262.824 279.135 263.092 279.456 263.376 279.806C264.87 281.627 265.947 282.755 267.221 281.918C267.578 281.669 267.873 281.34 268.08 280.956C269.282 278.852 271.868 277.146 274.371 275.495C275.829 274.532 277.203 273.625 278.253 272.683C287.648 264.262 293.152 257.362 295.319 245.048C298.332 227.939 299.548 199.7 298.307 176.054C286.094 179.331 273.105 178.031 261.782 172.401C261.291 180.605 258.392 228.961 257.9 231.657C257.489 233.879 256.587 235.329 255.411 235.64C254.796 235.802 253.83 235.729 252.759 234.449C252.7 234.377 252.653 234.293 252.625 234.203C252.597 234.113 252.588 234.017 252.596 233.924C252.604 233.83 252.631 233.739 252.675 233.655C252.718 233.572 252.778 233.497 252.851 233.436C252.924 233.376 253.007 233.33 253.098 233.302C253.187 233.274 253.282 233.264 253.376 233.273C253.47 233.281 253.561 233.308 253.645 233.352C253.729 233.396 253.802 233.455 253.863 233.529C254.128 233.846 254.632 234.36 255.045 234.252C255.513 234.129 256.162 233.183 256.48 231.402C256.89 229.159 259.228 191.053 260.408 171.216C260.415 171.097 260.452 170.98 260.516 170.879C260.579 170.777 260.668 170.693 260.773 170.634C260.877 170.575 260.995 170.544 261.115 170.543C261.235 170.54 261.354 170.569 261.46 170.625C272.943 176.649 286.306 178.013 298.769 174.432C298.873 174.402 298.981 174.396 299.089 174.414C299.195 174.431 299.296 174.473 299.385 174.536C299.473 174.598 299.546 174.68 299.599 174.774C299.651 174.869 299.681 174.974 299.687 175.082C301.013 199.002 299.795 227.876 296.727 245.298C294.499 257.959 288.614 265.318 279.204 273.752C278.077 274.764 276.657 275.7 275.156 276.693C272.793 278.252 270.353 279.862 269.321 281.668C269.003 282.249 268.55 282.746 268.002 283.118C265.555 284.728 263.572 282.314 262.259 280.718C261.986 280.388 261.731 280.076 261.486 279.81C260.715 278.964 258.863 278.089 256.517 276.981C250.662 274.217 240.86 269.586 231.658 257.955C230.838 256.93 228.376 253.804 226.94 254.205C226.362 254.368 225.299 255.342 224.752 260.025C224.016 266.22 221.778 285.074 221.29 308.222C221.285 308.405 221.209 308.58 221.08 308.71C220.949 308.839 220.774 308.914 220.591 308.919Z" fill="#14142B"/>
<path d="M284.375 189.386C275.923 189.402 267.618 187.163 260.317 182.9C260.227 182.858 260.146 182.798 260.08 182.722C260.014 182.647 259.965 182.558 259.935 182.463C259.905 182.367 259.896 182.267 259.908 182.166C259.919 182.067 259.951 181.972 260.002 181.885C260.054 181.799 260.121 181.724 260.203 181.666C260.285 181.608 260.377 181.567 260.476 181.547C260.574 181.526 260.674 181.527 260.772 181.548C260.87 181.569 260.962 181.611 261.044 181.671C272.347 188.301 286.127 189.765 298.851 185.69C299.033 185.631 299.229 185.648 299.399 185.735C299.569 185.823 299.696 185.973 299.754 186.154C299.812 186.336 299.796 186.533 299.71 186.702C299.622 186.872 299.472 187 299.29 187.058C294.469 188.601 289.437 189.386 284.375 189.386Z" fill="#14142B"/>
<path d="M285.026 213.176C284.341 213.182 283.669 212.99 283.092 212.623C282.941 212.516 282.839 212.355 282.804 212.174C282.769 211.993 282.805 211.806 282.904 211.65C283.003 211.495 283.157 211.383 283.337 211.339C283.515 211.295 283.704 211.32 283.865 211.411C285.095 212.202 286.896 211.463 287.79 210.277C288.791 208.946 289.07 207.126 289.269 205.377C289.876 200.012 290.067 194.608 289.843 189.213C289.84 189.12 289.854 189.025 289.886 188.937C289.918 188.848 289.968 188.766 290.032 188.697C290.095 188.627 290.172 188.571 290.257 188.532C290.344 188.491 290.436 188.469 290.53 188.465C290.625 188.461 290.718 188.476 290.807 188.507C290.896 188.54 290.977 188.59 291.047 188.653C291.116 188.717 291.173 188.794 291.213 188.879C291.253 188.965 291.275 189.058 291.279 189.152C291.507 194.621 291.312 200.099 290.696 205.539C290.474 207.485 290.159 209.522 288.939 211.141C288.052 212.305 286.533 213.176 285.026 213.176Z" fill="#14142B"/>
<path d="M284.331 197.776C285.386 197.776 286.244 196.919 286.244 195.863C286.244 194.806 285.386 193.948 284.331 193.948C283.274 193.948 282.416 194.806 282.416 195.863C282.416 196.919 283.274 197.776 284.331 197.776Z" fill="#FF7378"/>
<path d="M284.331 198.496H284.231C283.54 198.483 282.882 198.197 282.399 197.702C281.917 197.205 281.65 196.538 281.655 195.847C281.662 195.155 281.941 194.493 282.434 194.006C282.925 193.519 283.589 193.246 284.28 193.246C284.973 193.246 285.637 193.519 286.128 194.006C286.62 194.493 286.9 195.155 286.907 195.847C286.912 196.538 286.645 197.205 286.163 197.702C285.68 198.197 285.022 198.483 284.331 198.496ZM284.331 194.667C284.021 194.667 283.724 194.788 283.501 195.003C283.279 195.218 283.148 195.511 283.136 195.82C283.127 196.135 283.242 196.442 283.458 196.673C283.674 196.902 283.971 197.039 284.287 197.049C284.444 197.055 284.601 197.031 284.748 196.976C284.895 196.921 285.031 196.838 285.145 196.731C285.26 196.624 285.354 196.495 285.419 196.353C285.484 196.209 285.521 196.055 285.526 195.898C285.532 195.742 285.508 195.585 285.453 195.437C285.398 195.29 285.315 195.155 285.208 195.04C285.101 194.925 284.972 194.832 284.83 194.766C284.686 194.701 284.532 194.665 284.375 194.659L284.331 194.667Z" fill="#FF7378"/>
<path d="M283.974 207.393C285.031 207.393 285.887 206.537 285.887 205.48C285.887 204.423 285.031 203.566 283.974 203.566C282.917 203.566 282.061 204.423 282.061 205.48C282.061 206.537 282.917 207.393 283.974 207.393Z" fill="#FF7378"/>
<path d="M283.976 208.111H283.877C283.18 208.085 282.521 207.783 282.046 207.272C281.571 206.761 281.319 206.082 281.344 205.386C281.363 204.87 281.533 204.371 281.834 203.951C282.134 203.531 282.551 203.209 283.033 203.024C283.515 202.84 284.041 202.801 284.545 202.913C285.049 203.025 285.509 203.283 285.867 203.655C286.225 204.026 286.467 204.495 286.561 205.003C286.655 205.51 286.597 206.034 286.396 206.51C286.194 206.985 285.857 207.39 285.427 207.676C284.997 207.96 284.492 208.113 283.976 208.113V208.111ZM282.778 205.445C282.768 205.682 282.83 205.915 282.955 206.117C283.079 206.319 283.261 206.479 283.477 206.577C283.691 206.676 283.932 206.707 284.165 206.67C284.399 206.632 284.616 206.524 284.789 206.363C284.962 206.201 285.083 205.991 285.137 205.761C285.19 205.53 285.175 205.289 285.091 205.067C285.007 204.845 284.86 204.654 284.667 204.516C284.474 204.379 284.245 204.302 284.009 204.295C283.694 204.285 283.387 204.402 283.157 204.617C282.927 204.833 282.791 205.13 282.778 205.445Z" fill="#FF7378"/>
<path d="M123.187 244.177C123.187 244.177 119.612 247.331 113.299 254.194C119.905 252.823 123.418 250.984 123.418 250.984L123.187 244.177Z" fill="#14142B"/>
<path d="M113.299 254.911C113.16 254.911 113.024 254.87 112.907 254.793C112.791 254.718 112.699 254.609 112.643 254.481C112.587 254.354 112.569 254.212 112.592 254.075C112.615 253.938 112.678 253.81 112.772 253.707C119.036 246.896 122.674 243.67 122.711 243.639C122.813 243.549 122.939 243.491 123.073 243.47C123.207 243.448 123.345 243.465 123.469 243.519C123.594 243.572 123.7 243.66 123.777 243.773C123.854 243.885 123.898 244.016 123.902 244.152L124.137 250.959C124.14 251.094 124.106 251.228 124.039 251.345C123.97 251.461 123.871 251.557 123.751 251.619C123.605 251.697 120.073 253.521 113.447 254.901C113.398 254.909 113.349 254.912 113.299 254.911ZM122.529 245.768C121.207 247.018 118.774 249.394 115.414 252.977C119.29 252.013 121.772 250.963 122.69 250.541L122.529 245.768Z" fill="#14142B"/>
<path d="M265.761 277.73C265.293 277.735 264.833 277.602 264.44 277.349C264.356 277.3 264.283 277.234 264.226 277.156C264.167 277.078 264.127 276.989 264.104 276.895C264.081 276.8 264.079 276.702 264.095 276.608C264.111 276.512 264.146 276.42 264.2 276.338C264.253 276.258 264.321 276.188 264.402 276.133C264.482 276.079 264.573 276.042 264.668 276.023C264.764 276.006 264.862 276.007 264.956 276.028C265.051 276.049 265.14 276.089 265.22 276.145C265.672 276.436 266.358 276.258 266.803 275.939C267.384 275.511 267.79 274.82 268.183 274.151C268.225 274.061 268.286 273.979 268.362 273.914C268.437 273.847 268.525 273.798 268.621 273.768C268.716 273.739 268.818 273.73 268.917 273.741C269.017 273.753 269.113 273.784 269.199 273.836C269.286 273.887 269.36 273.955 269.419 274.036C269.477 274.118 269.517 274.21 269.538 274.309C269.557 274.407 269.557 274.508 269.535 274.606C269.514 274.704 269.473 274.796 269.414 274.878C268.968 275.634 268.464 276.491 267.648 277.094C267.1 277.497 266.441 277.718 265.761 277.73Z" fill="#14142B"/>
<path d="M283.636 122.822C283.477 122.822 283.32 122.767 283.194 122.668C283.068 122.567 282.98 122.428 282.942 122.272C282.905 122.116 282.92 121.951 282.988 121.805C283.054 121.66 283.169 121.541 283.311 121.466C283.379 121.432 290.263 117.82 294.513 108.89C295.756 106.277 297.347 103.418 299.727 102.019C301.336 101.096 303.243 100.844 305.037 101.318C306.441 101.697 307.553 102.512 308.173 103.613C308.966 104.993 309.289 106.593 309.093 108.172C309.071 108.361 308.974 108.533 308.824 108.651C308.674 108.768 308.484 108.822 308.295 108.799C308.105 108.776 307.933 108.679 307.816 108.529C307.698 108.379 307.645 108.189 307.667 108C307.833 106.72 307.569 105.422 306.92 104.308C306.493 103.545 305.689 102.973 304.663 102.694C303.241 102.327 301.731 102.526 300.453 103.25C298.402 104.45 296.966 107.083 295.809 109.499C291.34 118.89 284.263 122.585 283.963 122.736C283.863 122.79 283.751 122.82 283.636 122.822Z" fill="#14142B"/>
<path d="M295.754 122.821C295.588 122.824 295.426 122.768 295.296 122.663C295.167 122.558 295.078 122.412 295.044 122.248C295.012 122.085 295.036 121.915 295.116 121.768C295.194 121.622 295.321 121.506 295.475 121.443C295.532 121.417 299.117 119.803 303.322 112.994C304.739 110.697 306.701 107.913 309.323 106.763C312.565 105.339 315.931 106.371 317.508 109.275C319.608 113.137 317.016 116.595 315.406 118.694L315.353 118.767C315.298 118.849 315.225 118.919 315.141 118.972C315.057 119.026 314.964 119.062 314.866 119.079C314.768 119.095 314.668 119.09 314.571 119.067C314.475 119.042 314.384 118.999 314.305 118.94C314.229 118.879 314.165 118.804 314.118 118.718C314.071 118.633 314.042 118.538 314.033 118.442C314.024 118.345 314.034 118.247 314.063 118.155C314.092 118.061 314.141 117.975 314.204 117.901C316.163 115.35 317.792 112.821 316.241 109.968C315.035 107.747 312.424 106.974 309.883 108.086C307.599 109.089 305.732 111.802 304.528 113.755C300.031 121.043 296.175 122.709 296.013 122.779C295.93 122.808 295.842 122.824 295.754 122.821Z" fill="#14142B"/>
<path d="M282.735 142.265C282.637 142.265 282.54 142.245 282.45 142.206C282.363 142.168 282.284 142.115 282.219 142.047C282.154 141.979 282.101 141.899 282.067 141.811C282.032 141.724 282.015 141.63 282.017 141.536C282.018 141.441 282.038 141.348 282.077 141.262C283.984 136.87 288.477 133.737 293.256 133.468C293.447 133.458 293.634 133.523 293.776 133.649C293.918 133.776 294.004 133.955 294.015 134.145C294.026 134.335 293.96 134.523 293.833 134.665C293.707 134.807 293.529 134.893 293.339 134.905C289.086 135.148 285.089 137.933 283.393 141.84C283.337 141.968 283.245 142.075 283.127 142.151C283.01 142.227 282.874 142.266 282.735 142.265Z" fill="#14142B"/>
<path d="M270.137 169.85C267.087 169.934 264.061 170.407 261.131 171.259C261.131 171.259 265.002 172.934 269.376 174.705L270.137 169.85Z" fill="#14142B"/>
<path d="M269.376 175.423C269.284 175.422 269.193 175.404 269.108 175.369C264.774 173.618 260.885 171.936 260.847 171.917C260.711 171.859 260.597 171.761 260.52 171.635C260.443 171.509 260.406 171.363 260.415 171.215C260.424 171.068 260.478 170.927 260.57 170.811C260.662 170.696 260.787 170.612 260.928 170.57C263.923 169.697 267.018 169.214 270.137 169.135C270.241 169.135 270.341 169.158 270.434 169.2C270.528 169.243 270.611 169.306 270.678 169.383C270.745 169.461 270.795 169.552 270.824 169.652C270.852 169.75 270.86 169.853 270.845 169.955L270.087 174.809C270.069 174.917 270.029 175.018 269.968 175.107C269.906 175.196 269.825 175.269 269.731 175.323C269.623 175.386 269.501 175.421 269.376 175.423ZM263.35 171.427C264.716 172.008 266.68 172.831 268.808 173.698L269.292 170.597C267.292 170.711 265.306 170.989 263.35 171.427Z" fill="#14142B"/>
<path d="M292.046 171.259C292.046 171.259 296.7 172.828 298.983 175.121C298.983 175.121 296.895 175.794 292.046 176.606V171.259Z" fill="#14142B"/>
<path d="M292.046 177.323C291.855 177.323 291.672 177.249 291.538 177.113C291.404 176.979 291.328 176.796 291.328 176.606V171.259C291.328 171.146 291.355 171.033 291.407 170.932C291.46 170.831 291.535 170.743 291.628 170.677C291.72 170.61 291.827 170.567 291.939 170.551C292.053 170.533 292.167 170.544 292.275 170.58C292.481 170.646 297.116 172.221 299.49 174.614C299.578 174.702 299.641 174.81 299.673 174.928C299.706 175.047 299.708 175.172 299.679 175.291C299.651 175.41 299.592 175.521 299.509 175.611C299.426 175.7 299.32 175.767 299.203 175.804C299.116 175.832 297.009 176.503 292.165 177.314C292.125 177.32 292.085 177.323 292.046 177.323ZM292.763 172.295V175.755C294.958 175.369 296.508 175.025 297.481 174.782C295.942 173.646 293.924 172.758 292.757 172.295H292.763Z" fill="#14142B"/>
<path d="M165.229 285.313C165.844 285.313 166.343 284.814 166.343 284.2C166.343 283.584 165.844 283.085 165.229 283.085C164.614 283.085 164.116 283.584 164.116 284.2C164.116 284.814 164.614 285.313 165.229 285.313Z" fill="#14142B"/>
<path d="M165.229 286.031C164.867 286.031 164.513 285.923 164.212 285.722C163.911 285.52 163.676 285.234 163.537 284.9C163.399 284.566 163.362 284.197 163.434 283.841C163.504 283.487 163.679 283.16 163.934 282.905C164.191 282.648 164.516 282.474 164.872 282.403C165.227 282.332 165.595 282.369 165.93 282.507C166.265 282.646 166.551 282.88 166.753 283.182C166.953 283.483 167.061 283.837 167.061 284.2C167.061 284.685 166.867 285.15 166.524 285.493C166.18 285.838 165.714 286.03 165.229 286.031ZM165.229 283.803C165.151 283.803 165.075 283.826 165.01 283.871C164.944 283.914 164.893 283.976 164.864 284.048C164.834 284.12 164.825 284.2 164.841 284.277C164.857 284.354 164.894 284.424 164.949 284.48C165.005 284.534 165.075 284.572 165.152 284.587C165.229 284.603 165.308 284.595 165.381 284.565C165.453 284.534 165.515 284.484 165.558 284.419C165.602 284.354 165.626 284.278 165.626 284.2C165.625 284.095 165.583 283.994 165.509 283.92C165.434 283.846 165.334 283.804 165.229 283.803Z" fill="#14142B"/>
<path d="M69.5134 284.014H32.8197C32.1696 284.014 31.6426 284.541 31.6426 285.192V316.884C31.6426 317.534 32.1696 318.061 32.8197 318.061H69.5134C70.1636 318.061 70.6906 317.534 70.6906 316.884V285.192C70.6906 284.541 70.1636 284.014 69.5134 284.014Z" fill="#84D7FF"/>
<path d="M69.5176 318.776H32.8219C32.3192 318.776 31.8369 318.576 31.4812 318.221C31.1255 317.866 30.9254 317.384 30.9248 316.881V285.192C30.9254 284.689 31.1255 284.206 31.4812 283.852C31.8369 283.496 32.3192 283.296 32.8219 283.296H69.5176C70.02 283.298 70.5018 283.497 70.857 283.852C71.2123 284.208 71.4121 284.689 71.4127 285.192V316.881C71.4121 317.383 71.2123 317.865 70.857 318.221C70.5018 318.575 70.02 318.776 69.5176 318.776ZM32.824 284.73C32.7635 284.73 32.7035 284.742 32.6476 284.764C32.5916 284.787 32.5408 284.821 32.4978 284.864C32.455 284.906 32.4209 284.958 32.3977 285.014C32.3745 285.07 32.3626 285.129 32.3626 285.19V316.879C32.3626 316.94 32.3745 316.999 32.3977 317.055C32.4209 317.111 32.455 317.161 32.4978 317.204C32.5408 317.248 32.5916 317.281 32.6476 317.304C32.7035 317.327 32.7635 317.339 32.824 317.339H69.5176C69.6395 317.339 69.7563 317.29 69.8425 317.203C69.9286 317.118 69.977 317 69.977 316.879V285.192C69.977 285.07 69.9286 284.953 69.8425 284.867C69.7563 284.78 69.6395 284.733 69.5176 284.733L32.824 284.73Z" fill="#84D7FF"/>
<path d="M51.1677 314.934C58.843 314.934 65.0649 308.712 65.0649 301.038C65.0649 293.362 58.843 287.141 51.1677 287.141C43.4925 287.141 37.2705 293.362 37.2705 301.038C37.2705 308.712 43.4925 314.934 51.1677 314.934Z" fill="#FF7378"/>
<path d="M51.1678 315.651C48.2772 315.651 45.4514 314.793 43.048 313.188C40.6444 311.581 38.7712 309.298 37.6651 306.628C36.559 303.957 36.2696 301.018 36.8337 298.183C37.3978 295.348 38.79 292.744 40.8341 290.7C42.8783 288.656 45.4827 287.264 48.3178 286.701C51.153 286.137 54.0916 286.427 56.7622 287.534C59.4327 288.64 61.7151 290.514 63.3208 292.917C64.9265 295.321 65.7833 298.147 65.7829 301.038C65.778 304.913 64.2366 308.626 61.4967 311.365C58.7569 314.105 55.0423 315.646 51.1678 315.651ZM51.1678 287.858C48.5612 287.858 46.013 288.631 43.8457 290.08C41.6784 291.527 39.9892 293.585 38.9916 295.993C37.9941 298.403 37.7331 301.052 38.2416 303.608C38.7502 306.166 40.0054 308.514 41.8485 310.356C43.6917 312.2 46.0401 313.455 48.5966 313.964C51.1531 314.472 53.8031 314.211 56.2113 313.213C58.6196 312.216 60.6779 310.527 62.1261 308.36C63.5743 306.192 64.3472 303.644 64.3472 301.038C64.3435 297.543 62.9536 294.193 60.4828 291.722C58.0121 289.251 54.662 287.862 51.1678 287.858Z" fill="#FF7378"/>
<path d="M51.168 291.882C50.9776 291.882 50.7951 291.806 50.6604 291.672C50.5258 291.536 50.4502 291.354 50.4502 291.164V289.244C50.4502 289.054 50.5258 288.872 50.6604 288.736C50.7951 288.602 50.9776 288.526 51.168 288.526C51.3583 288.526 51.5409 288.602 51.6755 288.736C51.8102 288.872 51.8858 289.054 51.8858 289.244V291.164C51.8858 291.354 51.8102 291.536 51.6755 291.672C51.5409 291.806 51.3583 291.882 51.168 291.882Z" fill="#14142B"/>
<path d="M51.168 313.553C50.9776 313.553 50.7951 313.477 50.6604 313.341C50.5258 313.207 50.4502 313.024 50.4502 312.834V310.915C50.4502 310.725 50.5258 310.541 50.6604 310.407C50.7951 310.272 50.9776 310.197 51.168 310.197C51.3583 310.197 51.5409 310.272 51.6755 310.407C51.8102 310.541 51.8858 310.725 51.8858 310.915V312.834C51.8858 313.024 51.8102 313.207 51.6755 313.341C51.5409 313.477 51.3583 313.553 51.168 313.553Z" fill="#14142B"/>
<path d="M62.9651 301.755H61.0474C60.857 301.755 60.6745 301.68 60.5399 301.546C60.4053 301.41 60.3296 301.228 60.3296 301.038C60.3296 300.847 60.4053 300.665 60.5399 300.529C60.6745 300.395 60.857 300.319 61.0474 300.319H62.9651C63.1555 300.319 63.3381 300.395 63.4727 300.529C63.6073 300.665 63.6829 300.847 63.6829 301.038C63.6829 301.228 63.6073 301.41 63.4727 301.546C63.3381 301.68 63.1555 301.755 62.9651 301.755Z" fill="#14142B"/>
<path d="M41.2905 301.755H39.3687C39.1783 301.755 38.9957 301.68 38.8611 301.546C38.7265 301.41 38.6509 301.228 38.6509 301.038C38.6509 300.847 38.7265 300.665 38.8611 300.529C38.9957 300.395 39.1783 300.319 39.3687 300.319H41.2884C41.4788 300.319 41.6613 300.395 41.796 300.529C41.9306 300.665 42.0062 300.847 42.0062 301.038C42.0062 301.228 41.9306 301.41 41.796 301.546C41.6613 301.68 41.4788 301.755 41.2884 301.755H41.2905Z" fill="#14142B"/>
<path d="M51.1678 301.756C51.0656 301.756 50.9644 301.734 50.8713 301.692C50.7783 301.648 50.6954 301.587 50.6284 301.51L45.0253 295.123C44.963 295.052 44.9154 294.969 44.8849 294.881C44.8546 294.791 44.8421 294.696 44.8482 294.603C44.8542 294.508 44.8789 294.416 44.9205 294.332C44.9622 294.247 45.02 294.171 45.0908 294.109C45.1617 294.048 45.2441 294 45.3334 293.969C45.4226 293.939 45.5169 293.926 45.6111 293.932C45.7051 293.939 45.797 293.964 45.8816 294.004C45.9662 294.046 46.0418 294.105 46.104 294.175L50.9873 299.741L53.5489 294.344C53.6345 294.178 53.7809 294.052 53.9573 293.993C54.1337 293.933 54.3262 293.945 54.4943 294.024C54.6625 294.105 54.7931 294.247 54.8585 294.421C54.924 294.595 54.9192 294.788 54.8452 294.959L51.816 301.347C51.7659 301.456 51.6895 301.55 51.5934 301.623C51.4974 301.694 51.3849 301.741 51.2662 301.758C51.2335 301.759 51.2006 301.758 51.1678 301.756Z" fill="#14142B"/>
<path d="M246.984 319.535H28.6012C28.4108 319.535 28.2282 319.459 28.0935 319.324C27.9589 319.19 27.8833 319.007 27.8833 318.817C27.8833 318.626 27.9589 318.444 28.0935 318.309C28.2282 318.175 28.4108 318.099 28.6012 318.099H246.984C247.175 318.099 247.358 318.175 247.492 318.309C247.626 318.444 247.702 318.626 247.702 318.817C247.702 319.007 247.626 319.19 247.492 319.324C247.358 319.459 247.175 319.535 246.984 319.535Z" fill="#14142B"/>
<path d="M318.349 298.414C317.13 298.419 315.963 298.904 315.101 299.766C314.24 300.628 313.755 301.796 313.751 303.014V305.931C313.755 307.149 314.24 308.317 315.102 309.178C315.963 310.04 317.131 310.525 318.349 310.529H320.435V298.414H318.349Z" fill="#FF7378"/>
<path d="M320.436 311.248H318.35C316.942 311.243 315.592 310.682 314.595 309.685C313.599 308.689 313.038 307.339 313.033 305.931V303.014C313.038 301.606 313.599 300.255 314.594 299.259C315.591 298.263 316.94 297.701 318.35 297.697H320.436C320.626 297.697 320.808 297.773 320.943 297.907C321.077 298.041 321.153 298.224 321.153 298.414V310.529C321.153 310.623 321.135 310.717 321.1 310.804C321.063 310.892 321.011 310.971 320.943 311.038C320.877 311.104 320.797 311.157 320.71 311.193C320.624 311.229 320.53 311.248 320.436 311.248ZM318.35 299.132C317.322 299.136 316.336 299.547 315.609 300.274C314.882 301.002 314.473 301.987 314.469 303.014V305.931C314.471 306.96 314.879 307.946 315.607 308.674C316.335 309.401 317.321 309.81 318.35 309.811H319.717V299.132H318.35Z" fill="#FF7378"/>
<path d="M321.407 319.35C321.217 319.35 321.034 319.275 320.9 319.14C320.766 319.006 320.69 318.823 320.69 318.632V290.313C320.69 290.123 320.766 289.939 320.9 289.805C321.034 289.671 321.217 289.595 321.407 289.595C321.598 289.595 321.781 289.671 321.915 289.805C322.05 289.939 322.125 290.123 322.125 290.313V318.632C322.125 318.727 322.106 318.82 322.07 318.908C322.035 318.994 321.981 319.073 321.915 319.14C321.848 319.206 321.769 319.26 321.682 319.296C321.595 319.331 321.502 319.35 321.407 319.35Z" fill="#14142B"/>
<path d="M215.992 312.039H132.845C132.655 312.039 132.472 311.963 132.337 311.829C132.202 311.694 132.127 311.511 132.127 311.321C132.127 311.131 132.202 310.948 132.337 310.814C132.472 310.678 132.655 310.604 132.845 310.604H215.992C216.183 310.604 216.365 310.678 216.5 310.814C216.635 310.948 216.711 311.131 216.711 311.321C216.711 311.511 216.635 311.694 216.5 311.829C216.365 311.963 216.183 312.039 215.992 312.039Z" fill="#14142B"/>
</svg>
