<svg width="40" height="40" viewBox="0 0 40 40" fill="none" xmlns="http://www.w3.org/2000/svg">
<rect width="40" height="40" rx="8.53333" fill="#9A8DE7"/>
<path d="M21.0178 9.72707C21.1539 9.8448 21.2912 9.95869 21.4085 10.0999C21.4529 10.1533 21.4981 10.2075 21.5442 10.2624C22.0893 10.9122 22.4459 11.6329 22.6139 12.4245C22.7846 13.2287 22.7637 14.0201 22.5512 14.7987C22.5496 14.8048 22.5464 14.8103 22.5419 14.8148C22.5375 14.8192 22.532 14.8225 22.5259 14.8241C22.5198 14.8258 22.5134 14.8259 22.5073 14.8243C22.5012 14.8228 22.4956 14.8197 22.4911 14.8153C22.1699 14.5048 21.7907 14.3623 21.3492 14.3116C21.3353 14.3099 21.3289 14.302 21.33 14.2881C21.3343 14.2386 21.3428 14.1911 21.3556 14.1456C21.3706 14.0915 21.3497 14.0394 21.3825 13.9921C21.391 13.9794 21.3945 13.9642 21.3923 13.9494C21.3778 13.8419 21.4175 13.7571 21.4166 13.6504C21.4155 13.5154 21.4155 13.3804 21.4166 13.2456C21.4166 13.2297 21.4128 13.2146 21.4051 13.2004C21.3778 13.1501 21.3944 13.0874 21.3868 13.0302C21.1547 11.3258 19.8056 9.99153 18.0793 9.82774C17.3363 9.75722 16.6388 9.89783 15.9867 10.2496C15.2855 10.6279 14.6913 11.246 14.3654 11.9792C14.0245 12.7462 13.9524 13.5473 14.1492 14.3828C14.1884 14.55 14.246 14.7198 14.3219 14.8921C14.3487 14.9524 14.3619 15.0121 14.3616 15.0712C14.3576 15.7574 14.3579 16.4494 14.3624 17.1472C14.3624 17.1714 14.3535 17.1755 14.3356 17.1596C14.2159 17.0541 14.101 16.9394 13.9909 16.8154C13.4725 16.231 13.1107 15.574 12.9054 14.8443C12.8297 14.5759 12.7773 14.2968 12.748 14.007C12.5765 12.2996 13.2662 10.6488 14.615 9.57821C15.5619 8.82664 16.6567 8.46905 17.8993 8.50545C18.2702 8.51626 18.6112 8.56076 18.9226 8.63896C19.7109 8.83688 20.4093 9.19958 21.0178 9.72707Z" fill="white"/>
<path d="M19.9012 12.4077C19.99 12.5886 20.0566 12.7869 20.1013 13.0027C20.1371 13.1773 20.154 13.3967 20.1521 13.6609C20.1467 14.4292 20.1458 15.1967 20.1495 15.9634C20.1495 15.9644 20.1498 15.9654 20.1503 15.9663C20.1509 15.9672 20.1516 15.968 20.1525 15.9685C20.1533 15.969 20.1543 15.9693 20.1553 15.9693C20.1562 15.9693 20.1572 15.969 20.158 15.9685C20.439 15.8192 20.7398 15.7303 21.0606 15.7019C21.6688 15.6479 22.2171 15.7963 22.7053 16.1472C22.7851 16.2048 22.8427 16.2752 22.9237 16.3323C22.9907 16.3797 23.0107 16.4432 23.0671 16.4948C23.0864 16.5125 23.1044 16.5314 23.1212 16.5516C23.3007 16.7705 23.4396 17.0186 23.538 17.2959C23.5465 17.3203 23.5618 17.3259 23.584 17.3125C23.9304 17.1041 24.3039 16.9939 24.7046 16.982C24.7472 16.9808 24.7903 16.9748 24.8338 16.964C24.8782 16.9527 24.9254 16.9586 24.9754 16.982C24.9868 16.9871 24.9984 16.9891 25.0104 16.9879C25.0729 16.9822 25.1352 16.9839 25.1972 16.993C25.4844 17.0363 25.7446 17.1223 25.9778 17.2511C26.5078 17.544 26.8818 17.9914 27.0996 18.5934C27.1053 18.6085 27.115 18.6118 27.1286 18.6032C27.3623 18.4569 27.6221 18.3465 27.8921 18.2983C27.9442 18.2889 27.9949 18.2794 28.0444 18.2697C28.0961 18.2597 28.1472 18.2548 28.1975 18.2548C28.3616 18.2545 28.5186 18.2548 28.6684 18.2556C28.6846 18.2559 28.6997 18.26 28.7136 18.268C28.7407 18.2839 28.7709 18.2883 28.8045 18.2812C28.851 18.271 28.8826 18.2936 28.9154 18.3013C29.4392 18.425 29.8554 18.6674 30.1639 19.0285C30.4568 19.3715 30.6439 19.7532 30.7252 20.1738C30.7699 20.4061 30.7902 20.672 30.7862 20.9714C30.7851 21.0618 30.7845 21.1538 30.7845 21.2474C30.7854 22.6493 30.7856 24.0407 30.7854 25.4216C30.7854 25.6687 30.7801 25.9564 30.7696 26.2849C30.7548 26.749 30.7347 27.1975 30.7094 27.6306C30.7066 27.6784 30.7047 27.7243 30.7039 27.7684C30.7026 27.8865 30.6749 27.9881 30.6642 28.102C30.5943 28.8606 30.4457 29.57 30.2185 30.23C30.1264 30.4979 30.0082 30.7667 29.864 31.0366C29.4119 31.8826 28.7616 32.534 27.913 32.991C27.0838 33.4376 26.122 33.6974 25.1541 33.8138C24.4097 33.9031 23.6481 33.9412 22.8696 33.9281C22.3768 33.9199 21.8716 33.8902 21.3541 33.839C20.7196 33.7761 20.1039 33.6472 19.5067 33.4521C18.6604 33.1753 17.8833 32.6694 17.1901 32.1021C17.0141 31.9579 16.8139 31.7726 16.5896 31.5463C15.7751 30.7248 14.9575 29.9072 14.1365 29.0937C14.0857 29.0438 14.0252 29.0131 13.9748 28.9623C12.8502 27.8285 11.6785 26.6581 10.4597 25.451C10.1642 25.1584 9.97372 24.9545 9.88813 24.8393C9.71296 24.6039 9.58742 24.3326 9.51149 24.0255C9.50467 23.9973 9.50225 23.9686 9.50424 23.9393C9.50538 23.924 9.5031 23.9092 9.49742 23.895C9.46543 23.8135 9.48761 23.7371 9.46841 23.6531C9.44879 23.5681 9.44836 23.4806 9.46713 23.3908C9.47509 23.3518 9.47893 23.3112 9.47865 23.2688C9.47836 23.2276 9.48192 23.1853 9.48931 23.1421C9.53396 22.8759 9.60533 22.6308 9.70344 22.4067C9.79841 22.1895 9.92311 21.9774 10.0775 21.7703C10.4216 21.3088 10.8942 21.0125 11.4953 20.8814C11.5889 20.8609 11.6833 20.8484 11.7786 20.8439C11.8029 20.843 11.814 20.8319 11.8374 20.8298C12.0834 20.8068 12.346 20.8211 12.6253 20.8729C12.9085 20.9249 13.1758 21.0272 13.4272 21.1796C13.5884 21.2774 13.7776 21.4371 13.9949 21.6586C14.4177 22.09 14.8429 22.5157 15.2703 22.9357C15.2853 22.9504 15.2929 22.9473 15.2929 22.9263C15.2923 19.7303 15.2924 16.5344 15.2933 13.3384C15.2933 13.2787 15.3168 13.2373 15.3189 13.181C15.3197 13.1569 15.3222 13.1323 15.3261 13.1072C15.3469 12.9778 15.3721 12.8701 15.4016 12.7839C15.6735 11.9914 16.2006 11.4619 16.9828 11.1955C17.4628 11.0317 17.9652 11.0274 18.4898 11.1827C18.7452 11.2583 18.9843 11.3814 19.2073 11.5521C19.4996 11.7756 19.7309 12.0608 19.9012 12.4077ZM16.6126 26.0639C16.6126 26.0684 16.6113 26.0728 16.6087 26.0766C16.6062 26.0803 16.6027 26.0832 16.5985 26.0849C16.5943 26.0866 16.5898 26.087 16.5853 26.0861C16.5809 26.0852 16.5769 26.0829 16.5738 26.0797C15.4909 24.9991 14.413 23.9224 13.3401 22.8495C13.2455 22.7552 13.1414 22.6703 13.0441 22.5795C12.9651 22.5061 12.8842 22.448 12.8014 22.405C12.6581 22.3305 12.5105 22.2877 12.3587 22.2766C11.8116 22.2363 11.3896 22.4429 11.0927 22.8964C10.975 23.0767 10.906 23.2893 10.8858 23.5341C10.8803 23.5964 10.9106 23.6352 10.9076 23.6932C10.8965 23.8975 11.0944 24.2097 11.2019 24.3177C12.0735 25.1924 12.9659 26.0844 13.8793 26.9938C13.9168 27.0309 13.9557 27.0458 13.9932 27.0834C15.2492 28.3351 16.5038 29.5882 17.757 30.8425C17.7937 30.8792 17.8389 30.8988 17.879 30.938C18.1403 31.1951 18.4294 31.4203 18.7462 31.6137C18.997 31.7667 19.2367 31.8918 19.4653 31.989C19.988 32.2114 20.5217 32.3663 21.0666 32.4536C21.7186 32.5579 22.425 32.6117 23.1856 32.6148C23.658 32.6168 24.1294 32.5966 24.6 32.5542C25.1992 32.5005 25.7554 32.3988 26.2687 32.2492C26.7592 32.1062 27.1841 31.9175 27.5432 31.6832C28.3039 31.1873 28.8208 30.4923 29.0941 29.5983C29.2482 29.0938 29.3462 28.5387 29.388 27.933C29.4371 27.2164 29.4618 26.4947 29.4626 25.7538C29.4638 24.1449 29.4628 22.5845 29.4597 21.0725C29.4594 20.9491 29.4511 20.8062 29.4349 20.6438C29.398 20.2762 29.2174 20.0101 28.8932 19.8458C28.5213 19.657 28.1533 19.6652 27.7893 19.8705C27.5072 20.0295 27.3339 20.2678 27.2694 20.5854C27.2532 20.6643 27.2323 20.7419 27.2323 20.8221C27.2314 21.7164 27.2315 22.6096 27.2327 23.5017C27.2327 23.6168 27.2155 23.7145 27.1811 23.7947C27.0807 24.0285 26.8941 24.1537 26.6214 24.1705C26.3288 24.1884 26.1104 24.0477 25.9855 23.7956C25.9479 23.7202 25.9296 23.5772 25.9304 23.3665C25.9347 22.0934 25.9356 20.8395 25.933 19.6048C25.9326 19.5519 25.9104 19.5186 25.9087 19.4691C25.9078 19.4359 25.9029 19.403 25.8938 19.3706C25.7645 18.8971 25.3559 18.6293 24.8875 18.5521C24.397 18.4714 23.9351 18.8012 23.7717 19.249C23.7239 19.3801 23.6995 19.5611 23.6983 19.792C23.6938 20.6693 23.6966 21.4511 23.7069 22.1376C23.7106 22.3924 23.7008 22.6338 23.6774 22.8619C23.6624 23.0126 23.5904 23.1442 23.4616 23.2568C23.1396 23.5384 22.6004 23.4245 22.4302 23.0286C22.3938 22.9442 22.3756 22.8464 22.3756 22.7352C22.3785 21.3316 22.3793 19.9055 22.3782 18.4569C22.3778 18.0325 22.2468 17.6329 21.877 17.4294C21.5771 17.2639 21.2163 17.1905 20.8861 17.3159C20.3235 17.5301 20.1435 17.989 20.1452 18.5798C20.1481 19.6678 20.1486 20.7259 20.1469 21.7541C20.1461 22.2451 19.6155 22.5223 19.1829 22.3078C18.9586 22.1966 18.8464 22.0012 18.8464 21.7217C18.847 19.1289 18.847 16.5408 18.8464 13.9573C18.846 13.8588 18.8285 13.765 18.8212 13.6669C18.8138 13.573 18.8049 13.5045 18.7944 13.4613C18.64 12.8406 17.9873 12.4585 17.368 12.7101C16.8707 12.9123 16.6134 13.3179 16.6134 13.8409C16.6154 17.9823 16.6152 22.0567 16.6126 26.0639Z" fill="white"/>
<path d="M17.545 6.10773C19.6351 6.08939 21.5899 6.89257 23.0568 8.38291C24.2708 9.61648 24.9746 11.2531 25.1132 12.9806C25.1183 13.042 25.1199 13.103 25.1179 13.1636C25.1176 13.1703 25.1149 13.1765 25.1101 13.1812C25.1053 13.1858 25.0989 13.1884 25.0923 13.1884L23.2773 13.1918C23.2678 13.1918 23.2587 13.1881 23.2518 13.1815C23.245 13.1749 23.241 13.1659 23.2406 13.1564C23.1932 11.8182 22.7365 10.6615 21.8706 9.68643C21.067 8.78159 20.0753 8.20106 18.8954 7.94485C18.232 7.80068 17.5652 7.77523 16.895 7.8685C16.6043 7.90917 16.3252 7.97173 16.0577 8.05618C14.8923 8.42443 13.9495 9.09169 13.2292 10.0579C12.7217 10.7393 12.3958 11.5032 12.2516 12.3498C12.2072 12.6087 12.1949 12.8898 12.1816 13.1585C12.1813 13.1671 12.1776 13.1752 12.1713 13.1812C12.1651 13.1872 12.1567 13.1905 12.148 13.1905L10.2652 13.1888C10.2328 13.1888 10.2174 13.1726 10.2191 13.1402C10.3115 11.4758 10.8776 10.0203 11.9172 8.77363C12.1009 8.55353 12.2935 8.34893 12.4952 8.15983C13.671 7.05679 15.0713 6.39351 16.6962 6.17C16.9803 6.13076 17.2632 6.11 17.545 6.10773Z" fill="white"/>
</svg>
