<svg width="16" height="16" viewBox="0 0 16 16" fill="none" xmlns="http://www.w3.org/2000/svg">
<g clip-path="url(#clip0_3070_11277)">
<path d="M6.00004 2H10L11.3334 3.33333H14C14.1769 3.33333 14.3464 3.40357 14.4714 3.5286C14.5965 3.65362 14.6667 3.82319 14.6667 4V13.3333C14.6667 13.5101 14.5965 13.6797 14.4714 13.8047C14.3464 13.9298 14.1769 14 14 14H2.00004C1.82323 14 1.65366 13.9298 1.52864 13.8047C1.40361 13.6797 1.33337 13.5101 1.33337 13.3333V4C1.33337 3.82319 1.40361 3.65362 1.52864 3.5286C1.65366 3.40357 1.82323 3.33333 2.00004 3.33333H4.66671L6.00004 2ZM8.00004 12.6667C9.06091 12.6667 10.0783 12.2452 10.8285 11.4951C11.5786 10.7449 12 9.72753 12 8.66667C12 7.6058 11.5786 6.58839 10.8285 5.83824C10.0783 5.08809 9.06091 4.66667 8.00004 4.66667C6.93918 4.66667 5.92176 5.08809 5.17161 5.83824C4.42147 6.58839 4.00004 7.6058 4.00004 8.66667C4.00004 9.72753 4.42147 10.7449 5.17161 11.4951C5.92176 12.2452 6.93918 12.6667 8.00004 12.6667ZM8.00004 11.3333C7.2928 11.3333 6.61452 11.0524 6.11442 10.5523C5.61433 10.0522 5.33337 9.37391 5.33337 8.66667C5.33337 7.95942 5.61433 7.28115 6.11442 6.78105C6.61452 6.28095 7.2928 6 8.00004 6C8.70728 6 9.38556 6.28095 9.88566 6.78105C10.3858 7.28115 10.6667 7.95942 10.6667 8.66667C10.6667 9.37391 10.3858 10.0522 9.88566 10.5523C9.38556 11.0524 8.70728 11.3333 8.00004 11.3333Z" fill="white"/>
</g>
<defs>
<clipPath id="clip0_3070_11277">
<rect width="16" height="16" fill="white"/>
</clipPath>
</defs>
</svg>
