<svg width="112" height="112" viewBox="0 0 112 112" fill="none" xmlns="http://www.w3.org/2000/svg">
<rect y="3.05176e-05" width="112" height="112" rx="56" fill="#FFF9EB"/>
<path fill-rule="evenodd" clip-rule="evenodd" d="M63.9321 30.3264C61.2901 26.1861 55.8152 24.7542 51.4327 27.1831C49.8866 28.033 48.6053 29.3131 47.7465 30.8672L23.5073 73.2895L23.2916 73.8601C21.5781 78.8159 23.9018 83.9837 28.5448 85.875L29.2882 86.1396C30.0398 86.3728 30.8147 86.5117 31.6014 86.5558L31.8789 86.5501L31.9846 86.5597H80.2579L80.8448 86.5122C85.8805 85.9549 89.5789 81.6597 89.3213 76.6513C89.2614 75.5822 89.031 74.5457 88.6334 73.5789L64.2353 30.8361L63.9321 30.3264ZM53.8482 31.5606C55.9966 30.3699 58.6913 31.1445 59.8764 33.2867L84.1499 75.77L84.2221 76.0952C84.2649 76.3178 84.3108 76.6152 84.3278 76.9196C84.4529 79.3521 82.5734 81.4352 80.1267 81.5632L31.9839 81.5598L31.8816 81.5634L31.3795 81.5086C31.0497 81.4543 30.7288 81.3647 30.4213 81.2408C28.1636 80.3211 27.0731 77.7375 27.9936 75.4702L52.1046 33.3167L52.3775 32.8809C52.7691 32.3262 53.2687 31.8792 53.8482 31.5606ZM53.5 70.2321C53.5 68.8521 54.62 67.7121 56 67.7121C57.38 67.7121 58.5 68.8154 58.5 70.1954V70.2321C58.5 71.6121 57.38 72.7321 56 72.7321C54.62 72.7321 53.5 71.6121 53.5 70.2321ZM58.4414 49.9811C58.2758 48.7608 57.2298 47.8203 55.9642 47.8203C54.5835 47.8203 53.4642 48.9396 53.4642 50.3203V60.6536L53.487 60.9929C53.6526 62.2131 54.6985 63.1536 55.9642 63.1536C57.3449 63.1536 58.4642 62.0344 58.4642 60.6536V50.3203L58.4414 49.9811Z" fill="#FF7378"/>
</svg>
